<?xml version="1.0" encoding="UTF-8" standalone="no"?>
<!-- Created with Inkscape (http://www.inkscape.org/) -->

<svg
   version="1.1"
   id="svg2"
   width="1007.82"
   height="480"
   viewBox="0 0 1007.82 480"
   sodipodi:docname="Paradise-Cakes-Logos_for-print.ai"
   xmlns:inkscape="http://www.inkscape.org/namespaces/inkscape"
   xmlns:sodipodi="http://sodipodi.sourceforge.net/DTD/sodipodi-0.dtd"
   xmlns="http://www.w3.org/2000/svg"
   xmlns:svg="http://www.w3.org/2000/svg">
  <defs
     id="defs6">
    <clipPath
       clipPathUnits="userSpaceOnUse"
       id="clipPath16">
      <path
         d="M 0,360 H 755.865 V 0 H 0 Z"
         id="path14" />
    </clipPath>
  </defs>
  <sodipodi:namedview
     id="namedview4"
     pagecolor="#ffffff"
     bordercolor="#000000"
     borderopacity="0.25"
     inkscape:showpageshadow="2"
     inkscape:pageopacity="0.0"
     inkscape:pagecheckerboard="0"
     inkscape:deskcolor="#d1d1d1" />
  <g
     id="g8"
     inkscape:groupmode="layer"
     inkscape:label="Paradise-Cakes-Logos_for-print"
     transform="matrix(1.3333333,0,0,-1.3333333,0,480)">
    <g
       id="g10">
      <g
         id="g12"
         clip-path="url(#clipPath16)">
        <g
           id="g18"
           transform="translate(530.2793,126.1289)">
          <path
             d="m 0,0 c -0.157,-0.472 -0.451,-1.042 -0.883,-1.709 -0.43,-0.667 -0.882,-1.337 -1.353,-2.001 -0.472,-0.669 -0.923,-1.315 -1.355,-1.944 -0.43,-0.629 -0.765,-1.177 -0.999,-1.649 -1.258,-1.493 -2.809,-3.162 -4.655,-5.006 -1.846,-1.845 -3.85,-3.651 -6.005,-5.418 -2.16,-1.767 -4.401,-3.398 -6.714,-4.888 -2.317,-1.491 -4.534,-2.592 -6.653,-3.297 -2.435,-0.867 -4.89,-1.689 -7.364,-2.475 -2.475,-0.783 -5.204,-0.902 -8.185,-0.352 -0.396,0.078 -0.848,0.195 -1.355,0.352 -0.511,0.158 -1.003,0.315 -1.475,0.472 -2.354,0.629 -4.295,1.471 -5.827,2.533 -1.531,1.06 -2.886,2.53 -4.062,4.414 -0.471,0.865 -0.964,1.747 -1.476,2.653 -0.512,0.9 -0.842,1.98 -0.999,3.238 -0.158,1.648 -0.04,3.197 0.35,4.653 0.396,1.45 0.867,2.766 1.415,3.945 1.1,2.12 2.413,3.847 3.946,5.183 1.531,1.334 3.432,2.592 5.714,3.768 0.472,0.236 0.959,0.509 1.471,0.824 0.508,0.314 0.999,0.51 1.471,0.591 0.71,0.076 1.237,-0.02 1.593,-0.296 0.354,-0.275 0.958,-0.254 1.825,0.06 0.471,-0.629 1.137,-1.06 2.004,-1.296 0.861,-0.235 1.683,-0.628 2.469,-1.178 L -36.042,0 c 0.238,-0.16 0.451,-0.294 0.649,-0.413 0.198,-0.117 0.371,-0.295 0.533,-0.53 0.233,-0.394 0.411,-0.865 0.527,-1.412 0.116,-0.551 0.097,-1.061 -0.056,-1.533 -0.395,-0.159 -0.765,-0.314 -1.121,-0.471 -0.354,-0.158 -0.724,-0.315 -1.12,-0.472 -0.705,0.236 -1.218,0.687 -1.532,1.354 -0.315,0.667 -0.705,1.276 -1.177,1.827 -1.333,0.392 -2.646,0.235 -3.945,-0.47 -1.293,-0.707 -2.373,-1.377 -3.24,-2.003 -0.863,-0.551 -1.725,-1.179 -2.592,-1.884 -0.863,-0.708 -1.648,-1.375 -2.353,-2.004 -0.552,-1.257 -1.141,-2.611 -1.764,-4.061 -0.635,-1.456 -0.868,-3.005 -0.71,-4.654 0.157,-1.336 0.567,-2.495 1.237,-3.476 0.664,-0.981 1.471,-1.785 2.414,-2.413 1.571,-0.708 3.18,-1.101 4.827,-1.177 1.653,-0.081 3.302,0.038 4.95,0.353 1.648,0.311 3.241,0.745 4.767,1.294 1.531,0.548 3.008,1.099 4.417,1.649 2.358,0.865 4.869,2.181 7.541,3.945 2.668,1.768 5.3,3.693 7.892,5.772 2.59,2.082 5.004,4.201 7.241,6.362 2.242,2.157 4.067,4.062 5.477,5.713 0.629,-0.16 1.101,-0.14 1.415,0.058 0.315,0.195 0.704,0.294 1.176,0.294 C -0.193,1.569 -0.076,1.43 -0.233,1.234 -0.391,1.039 -0.548,0.862 -0.705,0.705 -0.548,0.472 -0.391,0.37 -0.233,0.41 -0.076,0.451 0,0.312 0,0"
             style="fill:#ffff;fill-opacity:1;fill-rule:nonzero;stroke:none"
             id="path20" />
        </g>
        <g
           id="g22"
           transform="translate(525.8066,109.168)">
          <path
             d="m 0,0 c 2.353,2.276 4.554,4.711 6.592,7.303 2.044,2.591 4.083,5.182 6.127,7.774 -0.081,0.547 -0.198,1.06 -0.356,1.528 -0.157,0.472 -0.314,0.982 -0.471,1.533 C 11.501,17.901 11.029,17.744 10.481,17.666 9.929,17.587 9.458,17.392 9.067,17.077 8.834,16.92 8.656,16.725 8.54,16.489 8.418,16.253 8.24,16.056 8.007,15.901 7.773,15.741 7.495,15.587 7.181,15.43 6.866,15.27 6.592,15.115 6.359,14.958 5.259,14.25 4.295,13.545 3.474,12.838 2.646,12.13 1.805,11.345 0.942,10.482 0.39,9.854 -0.082,9.283 -0.472,8.773 -0.867,8.264 -1.223,7.693 -1.532,7.066 -1.689,6.831 -1.847,6.595 -2.004,6.359 -2.161,6.123 -2.318,5.888 -2.476,5.651 c -1.49,-2.512 -2.357,-5.692 -2.59,-9.539 1.018,0.394 1.921,0.944 2.708,1.649 C -1.572,-1.532 -0.786,-0.786 0,0 M 15.427,6.947 C 14.407,5.456 13.149,3.826 11.658,2.062 10.168,0.294 8.672,-1.296 7.181,-2.711 6.004,-3.888 4.787,-5.087 3.529,-6.302 2.276,-7.521 0.78,-8.441 -0.943,-9.07 c -0.868,-0.315 -1.669,-0.335 -2.414,-0.059 -0.751,0.275 -1.436,0.53 -2.065,0.766 -1.409,0.548 -2.433,1.686 -3.062,3.416 -0.705,0.548 -1.157,1.296 -1.355,2.236 -0.192,0.943 -0.254,1.945 -0.173,3.005 0.076,1.06 0.254,2.1 0.529,3.121 0.273,1.02 0.532,1.922 0.765,2.708 1.805,3.926 4.199,7.187 7.186,9.778 2.982,2.591 6.359,4.787 10.128,6.595 0.314,-0.157 0.608,-0.218 0.882,-0.178 0.274,0.041 0.573,-0.019 0.887,-0.174 0.153,-0.082 0.31,-0.178 0.467,-0.297 0.157,-0.117 0.314,-0.215 0.472,-0.294 0.395,-0.157 0.846,-0.277 1.353,-0.353 0.513,-0.078 0.964,-0.197 1.36,-0.352 0.547,-0.16 0.978,-0.472 1.293,-0.944 0.314,-0.471 0.665,-0.823 1.06,-1.059 0.157,-0.158 0.197,-0.277 0.116,-0.353 -0.076,-0.081 -0.116,-0.197 -0.116,-0.354 1.176,0.629 2.551,0.765 4.123,0.413 1.571,-0.356 2.591,-1.08 3.063,-2.181 0.548,-1.255 0.629,-2.749 0.233,-4.475 C 23.398,10.168 22.968,8.674 22.496,7.419 22.258,6.79 21.983,6.182 21.669,5.594 21.354,5.005 21.081,4.396 20.848,3.768 20.609,3.063 20.392,2.335 20.198,1.59 20.001,0.842 19.747,0.116 19.433,-0.589 19.194,-1.22 18.961,-1.904 18.728,-2.65 c -0.239,-0.748 -0.375,-1.514 -0.416,-2.297 -0.041,-0.786 0.02,-1.514 0.177,-2.178 0.157,-0.67 0.513,-1.2 1.061,-1.593 1.176,-0.392 2.297,-0.392 3.356,0 1.061,0.393 2.141,0.864 3.241,1.415 2.12,0.941 4.062,1.884 5.828,2.827 1.769,0.941 3.437,2.08 5.009,3.415 2.354,2.042 4.59,3.926 6.71,5.653 2.119,1.726 4.204,3.61 6.243,5.654 0.314,0.472 0.588,0.784 0.827,0.943 0.233,0.156 0.629,0.429 1.175,0.825 0.158,0.626 0.61,1.097 1.355,1.412 0.745,0.314 1.552,0.981 2.414,2.004 0.472,0.547 0.902,1.059 1.298,1.531 0.39,0.472 1.06,0.588 2.004,0.352 -0.082,-0.393 0.075,-0.588 0.471,-0.588 0.076,-0.393 0.076,-0.512 0,-0.355 -0.082,0.157 -0.163,0.078 -0.239,-0.233 0.239,-0.236 0.391,-0.454 0.472,-0.65 0.076,-0.197 0.314,-0.334 0.705,-0.41 C 60.262,14.21 59.871,13.604 59.242,13.251 58.614,12.896 58.025,12.485 57.478,12.014 57.32,11.854 57.144,11.659 56.945,11.426 56.747,11.189 56.651,10.954 56.651,10.718 55.236,8.91 53.826,7.282 52.411,5.829 50.997,4.376 49.587,2.981 48.172,1.648 c -1.415,-1.336 -2.865,-2.67 -4.357,-4.003 -1.496,-1.337 -3.062,-2.829 -4.711,-4.476 -1.181,-0.786 -2.358,-1.59 -3.535,-2.417 -1.175,-0.824 -2.433,-1.59 -3.767,-2.295 -1.101,-0.235 -2.105,-0.57 -3.007,-1.001 -0.903,-0.432 -1.902,-0.804 -3.003,-1.121 -0.081,0 -0.116,-0.116 -0.116,-0.353 -0.867,0.08 -1.826,0.14 -2.886,0.178 -1.06,0.041 -2.023,0.256 -2.886,0.647 -1.258,0.55 -2.297,1.178 -3.124,1.883 -0.821,0.708 -1.551,1.728 -2.176,3.064 -0.628,1.1 -1.003,2.315 -1.12,3.651 -0.117,1.334 -0.117,2.67 0,4.006 0.117,1.334 0.355,2.651 0.705,3.946 0.355,1.295 0.766,2.49 1.238,3.59"
             style="fill:#ffff;fill-opacity:1;fill-rule:nonzero;stroke:none"
             id="path24" />
        </g>
        <g
           id="g26"
           transform="translate(610.375,168.5303)">
          <path
             d="m 0,0 c -0.157,-0.394 -0.294,-0.807 -0.41,-1.237 -0.122,-0.432 -0.3,-0.845 -0.532,-1.236 l -1.294,-1.415 c -0.396,-0.629 -0.69,-1.237 -0.887,-1.825 -0.193,-0.589 -0.452,-1.197 -0.767,-1.826 -0.233,-0.393 -0.527,-0.786 -0.881,-1.176 -0.356,-0.396 -0.65,-0.786 -0.883,-1.18 -0.158,-0.392 -0.294,-0.806 -0.41,-1.237 -0.123,-0.431 -0.295,-0.883 -0.534,-1.353 -0.39,-0.866 -0.805,-1.69 -1.237,-2.473 -0.431,-0.786 -0.842,-1.61 -1.237,-2.475 -0.391,-0.865 -0.766,-1.727 -1.116,-2.591 -0.355,-0.865 -0.73,-1.689 -1.121,-2.473 1.73,2.12 3.337,4.534 4.829,7.245 1.49,2.708 2.905,5.317 4.244,7.832 0.862,1.57 1.785,3.18 2.763,4.828 0.985,1.651 1.71,3.416 2.181,5.3 C 2.237,2.314 1.745,1.884 1.238,1.415 0.726,0.943 0.314,0.472 0,0 m 0.943,-36.159 c -2.043,-0.631 -3.813,-1.455 -5.304,-2.475 -1.491,-1.021 -2.942,-2.119 -4.356,-3.296 -1.019,-0.867 -2.004,-1.729 -2.947,-2.591 -0.938,-0.868 -1.846,-1.808 -2.708,-2.828 3.611,0.941 6.755,2.316 9.423,4.123 2.673,1.806 4.752,4.2 6.243,7.184 -0.157,0 -0.274,-0.041 -0.351,-0.117 m -20.142,-16.256 c -0.786,-1.491 -1.69,-2.886 -2.708,-4.181 -1.025,-1.296 -1.928,-2.728 -2.709,-4.299 -0.315,-0.549 -0.572,-1.08 -0.766,-1.589 -0.197,-0.512 -0.456,-1.042 -0.765,-1.59 -0.158,-0.396 -0.396,-0.728 -0.71,-1.001 -0.315,-0.277 -0.588,-0.609 -0.822,-1.002 -0.238,-0.393 -0.411,-0.786 -0.532,-1.177 -0.117,-0.395 -0.295,-0.785 -0.527,-1.179 -0.315,-0.629 -0.731,-1.197 -1.239,-1.706 -0.511,-0.512 -0.881,-1.081 -1.12,-1.709 -0.471,-0.471 -1.08,-0.804 -1.826,-1.002 -0.745,-0.195 -1.511,0.021 -2.297,0.65 -0.157,0.157 -0.274,0.352 -0.349,0.588 -0.082,0.235 -0.199,0.471 -0.356,0.707 -0.39,0.393 -0.745,0.746 -1.059,1.06 -0.315,0.315 -0.472,0.664 -0.472,1.06 -0.076,0.39 0.019,0.746 0.294,1.059 0.279,0.313 0.492,0.627 0.649,0.942 0,2.67 0.451,5.124 1.354,7.363 0.903,2.236 1.785,4.415 2.652,6.537 2.039,5.102 4.296,9.97 6.771,14.606 2.474,4.63 5.046,9.186 7.713,13.662 l 5.771,10.13 1.887,3.415 c 1.334,2.277 2.652,4.551 3.945,6.831 1.293,2.277 2.571,4.554 3.829,6.831 0.781,0.708 1.471,1.453 2.059,2.239 0.589,0.783 1.313,1.491 2.18,2.12 C 2.668,6.79 3.373,6.988 3.769,7.538 4.24,7.303 4.691,7.282 5.122,7.479 5.554,7.675 5.964,7.733 6.359,7.655 6.988,7.655 7.536,7.439 8.008,7.008 8.479,6.574 8.87,6.164 9.185,5.771 8.951,5.456 8.87,5.124 8.951,4.77 9.027,4.417 9.027,4.123 8.951,3.887 8.87,3.572 8.733,3.316 8.54,3.121 8.343,2.924 8.206,2.708 8.125,2.475 7.968,2.157 7.912,1.843 7.952,1.531 7.987,1.217 7.932,0.902 7.774,0.588 7.612,0.195 7.399,-0.178 7.126,-0.53 6.852,-0.883 6.634,-1.258 6.477,-1.648 6.4,-1.809 6.38,-1.963 6.421,-2.12 6.456,-2.277 6.477,-2.435 6.477,-2.592 6.4,-2.749 6.299,-2.944 6.183,-3.18 6.065,-3.416 5.929,-3.613 5.771,-3.769 L 5.417,-5.184 C 5.103,-5.654 4.747,-6.086 4.356,-6.479 3.961,-6.872 3.651,-7.303 3.413,-7.774 3.022,-8.479 2.729,-9.266 2.531,-10.13 2.333,-10.995 2.039,-11.778 1.648,-12.485 1.415,-12.879 1.137,-13.271 0.822,-13.662 0.508,-14.058 0.233,-14.448 0,-14.842 c -0.867,-1.176 -1.647,-2.454 -2.357,-3.826 -0.706,-1.377 -1.492,-2.69 -2.354,-3.945 -0.629,-0.867 -1.298,-1.651 -2.003,-2.359 -0.705,-0.705 -1.299,-1.49 -1.765,-2.355 -1.1,-1.649 -2.337,-3.061 -3.712,-4.239 -1.374,-1.177 -2.571,-2.67 -3.59,-4.476 -0.315,-0.236 -0.731,-0.687 -1.238,-1.354 -0.512,-0.669 -0.847,-1.159 -1.004,-1.473 -0.705,-0.551 -1.176,-1.061 -1.41,-1.532 -0.238,-0.469 -0.67,-0.981 -1.298,-1.529 -1.101,-1.415 -2.043,-2.966 -2.825,-4.653 -0.786,-1.691 -1.496,-3.555 -2.12,-5.596 1.806,2.356 3.769,4.752 5.888,7.186 2.12,2.431 4.397,4.671 6.831,6.715 0.629,0.468 1.237,0.94 1.826,1.412 0.588,0.471 1.273,0.902 2.059,1.296 0.629,0.311 1.217,0.626 1.769,0.943 0.548,0.312 1.253,0.664 2.12,1.06 0.863,0.311 1.745,0.626 2.648,0.94 0.902,0.314 2.023,0.394 3.357,0.236 0.239,0 0.472,-0.058 0.71,-0.177 0.234,-0.117 0.507,-0.175 0.822,-0.175 0.471,-0.079 0.963,-0.119 1.475,-0.119 0.507,0 0.959,-0.196 1.355,-0.588 0.308,-0.865 0.603,-1.631 0.881,-2.298 0.275,-0.667 0.213,-1.511 -0.176,-2.53 C 5.731,-38.91 5.554,-39.341 5.36,-39.574 5.163,-39.811 4.904,-40.165 4.595,-40.634 4.433,-40.87 4.316,-41.126 4.24,-41.4 c -0.081,-0.277 -0.198,-0.492 -0.355,-0.649 -0.076,-0.157 -0.218,-0.294 -0.41,-0.411 -0.199,-0.119 -0.376,-0.256 -0.534,-0.413 -0.628,-0.708 -1.293,-1.433 -1.998,-2.179 -0.71,-0.747 -1.496,-1.396 -2.357,-1.944 l -1.061,-0.588 c -0.395,-0.236 -0.689,-0.454 -0.881,-0.649 -0.199,-0.196 -0.574,-0.294 -1.122,-0.294 -1.1,-0.629 -2.256,-1.101 -3.473,-1.413 -1.218,-0.315 -2.414,-0.707 -3.591,-1.179 -0.314,0.157 -0.669,0.276 -1.06,0.355 -0.395,0.076 -0.786,0.037 -1.181,-0.119 0.314,-0.705 0.669,-1.235 1.059,-1.591 0.396,-0.351 0.67,-0.843 0.828,-1.469 0.232,-0.708 0.354,-1.415 0.354,-2.123 0,-0.705 0.076,-1.374 0.233,-2 0.391,-1.415 1.06,-2.848 2.003,-4.301 0.944,-1.453 2.039,-2.492 3.297,-3.121 0.315,-0.158 0.69,-0.315 1.12,-0.47 0.432,-0.159 0.842,-0.316 1.238,-0.472 0.781,-0.314 1.532,-0.549 2.237,-0.707 0.704,-0.157 1.531,-0.157 2.475,0 1.804,0.393 3.534,1.02 5.182,1.884 1.649,0.864 3.296,1.806 4.945,2.827 3.301,2.041 6.166,4.182 8.601,6.421 2.429,2.236 4.868,4.77 7.303,7.597 0.471,0.626 0.999,1.275 1.587,1.942 0.588,0.667 1.197,1.314 1.825,1.945 0.548,0.626 1.258,1.354 2.12,2.178 0.862,0.823 1.491,1.276 1.887,1.354 0.39,0 0.765,-0.157 1.121,-0.472 0.349,-0.314 0.724,-0.469 1.115,-0.469 0.157,-0.395 0.097,-0.649 -0.178,-0.765 -0.273,-0.119 -0.334,-0.297 -0.176,-0.531 0.238,-0.317 0.491,-0.454 0.765,-0.413 0.279,0.038 0.609,-0.02 1.004,-0.177 l 0.116,-0.117 v -0.236 c -0.314,-0.786 -0.745,-1.412 -1.293,-1.884 -0.552,-0.471 -1.059,-0.984 -1.531,-1.531 -1.258,-2.28 -2.809,-4.38 -4.655,-6.302 -1.847,-1.925 -3.748,-3.75 -5.711,-5.476 -0.867,-0.708 -1.73,-1.395 -2.591,-2.062 -0.867,-0.67 -1.765,-1.316 -2.708,-1.945 -0.943,-0.629 -1.866,-1.296 -2.769,-2 -0.903,-0.708 -1.826,-1.296 -2.769,-1.768 -1.73,-0.943 -3.672,-1.747 -5.832,-2.414 -2.16,-0.667 -4.377,-1.04 -6.653,-1.121 -2.749,-0.076 -5.184,0.454 -7.303,1.593 -2.12,1.136 -4.042,2.571 -5.772,4.298 -1.1,1.097 -2.079,2.434 -2.941,4.004 -0.867,1.569 -1.531,3.141 -2.003,4.711 -0.162,0.628 -0.314,1.551 -0.472,2.769 -0.157,1.217 -0.471,1.901 -0.943,2.062 -0.472,0.157 -0.745,0.017 -0.827,-0.414 -0.075,-0.431 -0.315,-0.687 -0.704,-0.766"
             style="fill:#ffff;fill-opacity:1;fill-rule:nonzero;stroke:none"
             id="path28" />
        </g>
        <g
           id="g30"
           transform="translate(650.4189,123.7734)">
          <path
             d="m 0,0 c -0.157,-0.786 -0.335,-1.436 -0.533,-1.945 -0.193,-0.51 -0.37,-1.001 -0.528,-1.471 -0.157,-0.472 -0.354,-0.963 -0.587,-1.473 -0.239,-0.512 -0.472,-1.118 -0.71,-1.826 1.886,0.944 3.615,2.158 5.182,3.652 1.572,1.491 3.023,3.022 4.362,4.594 0.39,0.391 0.745,0.726 1.059,0.999 0.31,0.277 0.589,0.609 0.822,1.002 0.629,0.944 0.963,1.983 1.004,3.121 0.035,1.139 0.254,2.181 0.65,3.121 C 9.148,9.617 7.835,9.026 6.77,8.007 5.71,6.988 4.67,6.045 3.651,5.183 3.022,5.022 2.728,4.749 2.769,4.355 2.804,3.963 2.632,3.57 2.236,3.18 1.765,2.314 1.313,1.686 0.882,1.296 0.451,0.899 0.157,0.472 0,0 M 49.82,2.591 C 50.135,2.432 50.251,2.236 50.175,2 50.094,1.765 50.175,1.45 50.413,1.06 50.646,0.981 50.688,0.824 50.53,0.588 50.373,0.353 50.135,0.096 49.82,-0.178 49.506,-0.454 49.156,-0.729 48.76,-1.002 48.37,-1.278 48.056,-1.532 47.822,-1.768 47.508,-2.161 47.173,-2.67 46.818,-3.299 46.463,-3.928 46.072,-4.557 45.642,-5.184 45.21,-5.812 44.719,-6.383 44.171,-6.893 43.618,-7.402 43.07,-7.774 42.518,-8.011 c -0.467,-0.157 -0.923,-0.608 -1.355,-1.353 -0.431,-0.748 -0.923,-1.355 -1.471,-1.826 -1.414,-1.336 -2.708,-2.496 -3.883,-3.474 -1.182,-0.983 -2.516,-1.985 -4.007,-3.005 -0.705,-0.55 -1.491,-1.001 -2.359,-1.353 -0.862,-0.353 -1.607,-0.729 -2.236,-1.119 -1.729,-0.943 -3.377,-1.709 -4.944,-2.297 -1.573,-0.588 -2.988,-0.964 -4.24,-1.119 -1.415,-0.235 -2.89,-0.492 -4.418,-0.765 -1.531,-0.277 -3.006,-0.49 -4.417,-0.65 -2.753,-0.076 -5.025,0.275 -6.831,1.061 -1.81,0.783 -3.499,1.805 -5.066,3.062 -1.338,1.098 -2.769,2.278 -4.3,3.533 -1.532,1.254 -2.531,2.787 -3.002,4.594 -0.396,1.57 -0.492,3.102 -0.295,4.595 0.194,1.488 0.548,2.886 1.061,4.182 0.507,1.295 1.136,2.509 1.881,3.65 0.746,1.137 1.475,2.179 2.18,3.122 0.391,0.469 0.685,0.941 0.883,1.412 0.197,0.472 0.375,0.903 0.532,1.296 0.548,0.626 1.198,1.136 1.943,1.531 0.745,0.391 1.278,0.901 1.593,1.532 1.018,0.236 1.764,0.665 2.236,1.296 0.472,0.627 1.019,1.255 1.648,1.883 0.862,0.077 1.532,0.313 2.003,0.708 0.472,0.391 1.136,0.664 2.003,0.825 0.234,0 0.451,-0.081 0.645,-0.237 0.197,-0.159 0.451,-0.235 0.765,-0.235 1.491,0.235 2.886,0.178 4.184,-0.178 1.293,-0.352 2.297,-1.002 3.002,-1.942 C 16.177,9.146 16.075,7.556 15.959,5.946 15.843,4.336 15.705,2.865 15.548,1.531 14.134,-0.984 12.328,-3.063 10.127,-4.712 7.931,-6.362 5.73,-8.089 3.534,-9.895 c -0.943,-0.314 -2.023,-0.587 -3.24,-0.824 -1.218,-0.235 -2.374,-0.55 -3.474,-0.943 0.076,-1.572 0.431,-2.691 1.06,-3.357 0.629,-0.667 1.45,-1.432 2.474,-2.297 0.863,-0.865 1.841,-1.511 2.942,-1.943 1.1,-0.433 2.632,-0.608 4.595,-0.53 2.749,0.157 5.497,0.606 8.246,1.354 2.748,0.746 5.375,1.669 7.89,2.769 0.472,0.076 1.157,0.371 2.059,0.883 0.903,0.51 1.847,1.059 2.83,1.648 0.979,0.591 1.841,1.158 2.592,1.709 0.745,0.548 1.196,0.944 1.353,1.177 0.077,0.157 0.452,0.532 1.121,1.12 0.664,0.589 1.451,1.275 2.354,2.062 0.902,0.784 1.825,1.628 2.768,2.531 0.944,0.902 1.765,1.709 2.475,2.416 1.096,1.177 2.217,2.216 3.358,3.121 1.135,0.9 1.825,1.628 2.058,2.179 0.629,0.311 1.237,0.588 1.826,0.824 0.588,0.235 0.923,-0.236 0.999,-1.413"
             style="fill:#ffff;fill-opacity:1;fill-rule:nonzero;stroke:none"
             id="path32" />
        </g>
        <g
           id="g34"
           transform="translate(736.1641,118.2373)">
          <path
             d="m 0,0 c 0.157,0 -0.157,-0.197 -0.943,-0.59 z m -30.858,-11.896 c 0,0.235 -0.077,0.352 -0.234,0.352 0,-0.314 -0.061,-0.452 -0.178,-0.411 -0.116,0.038 -0.293,0.017 -0.532,-0.059 -1.1,-0.631 -2.16,-1.161 -3.179,-1.591 -1.02,-0.432 -2.024,-0.883 -3.003,-1.355 -0.984,-0.472 -1.886,-1.021 -2.708,-1.648 -0.827,-0.629 -1.592,-1.453 -2.297,-2.475 0.076,-0.469 -0.021,-0.804 -0.294,-0.999 -0.28,-0.195 -0.335,-0.489 -0.178,-0.885 0.862,-0.154 1.744,-0.175 2.652,-0.058 0.898,0.117 1.705,0.335 2.414,0.646 1.334,0.553 2.688,1.104 4.062,1.651 1.375,0.548 2.633,1.217 3.769,2 1.135,0.787 2.099,1.748 2.885,2.889 0.786,1.136 1.217,2.53 1.298,4.181 -0.786,-0.236 -1.531,-0.571 -2.241,-1.001 -0.705,-0.434 -1.45,-0.845 -2.236,-1.237 M 1.299,1.413 C 1.607,1.489 1.75,1.451 1.709,1.294 1.669,1.137 1.101,0.705 0,0 c -0.076,0 -0.253,-0.04 -0.527,-0.119 -0.279,-0.078 -0.574,-0.157 -0.882,-0.235 -0.32,-0.393 -0.67,-0.688 -1.066,-0.883 -0.39,-0.198 -0.781,-0.375 -1.176,-0.53 -2.353,-1.337 -4.615,-2.28 -6.77,-2.827 -2.161,-0.551 -4.458,-1.258 -6.892,-2.12 -0.863,-0.314 -1.689,-0.53 -2.475,-0.649 -0.786,-0.116 -1.491,-0.451 -2.12,-1.001 0.157,-0.394 0.314,-0.667 0.471,-0.824 0.158,-0.158 0.254,-0.294 0.295,-0.412 0.04,-0.119 0.061,-0.294 0.061,-0.53 0,-0.235 -0.041,-0.669 -0.117,-1.295 -0.239,-1.651 -0.766,-3.162 -1.592,-4.537 -0.822,-1.374 -1.785,-2.611 -2.886,-3.709 -1.1,-1.099 -2.277,-2.1 -3.535,-3.003 -1.257,-0.902 -2.434,-1.747 -3.529,-2.532 -0.71,-0.076 -1.517,-0.373 -2.419,-0.883 -0.903,-0.51 -1.744,-0.845 -2.53,-1.002 -0.158,-0.078 -0.219,-0.038 -0.178,0.117 0.04,0.16 -0.021,0.236 -0.178,0.236 -1.334,-0.158 -2.708,-0.37 -4.123,-0.647 -1.409,-0.273 -2.551,0.059 -3.413,0.999 -0.472,0.551 -1.019,1.296 -1.648,2.24 -0.628,0.943 -1.136,1.807 -1.532,2.591 -0.238,0.471 -0.451,0.824 -0.648,1.06 -0.194,0.235 -0.138,0.669 0.177,1.296 0.395,0.707 0.922,1.432 1.592,2.178 0.664,0.745 1.314,1.473 1.943,2.18 1.019,1.098 2.134,2.041 3.357,2.827 1.217,0.785 2.489,1.489 3.823,2.12 1.339,0.626 2.713,1.215 4.123,1.765 1.415,0.551 2.831,1.139 4.24,1.768 -0.628,0.864 -1.354,2.003 -2.175,3.415 -0.827,1.415 -1.593,2.55 -2.298,3.416 -0.395,0.392 -0.689,0.824 -0.882,1.296 -0.198,0.471 -0.416,1.018 -0.649,1.65 -0.315,0.548 -0.609,1.275 -0.883,2.178 -0.278,0.903 -0.451,1.628 -0.532,2.178 -0.076,0.707 0,1.395 0.238,2.062 0.233,0.667 0.568,1.334 0.999,2.003 0.432,0.667 0.903,1.255 1.415,1.767 0.507,0.51 0.999,0.92 1.471,1.235 0.39,0.393 0.883,0.667 1.475,0.827 0.589,0.154 1.193,0.391 1.821,0.705 1.415,0.783 2.83,1.49 4.245,2.119 1.41,0.629 3.057,1.02 4.944,1.18 0.315,-0.315 0.629,-0.691 0.944,-1.118 0.314,-0.434 0.781,-0.572 1.415,-0.414 0.233,-0.158 0.43,-0.353 0.587,-0.588 0.158,-0.237 0.432,-0.396 0.823,-0.472 -0.158,-0.392 -0.138,-0.845 0.06,-1.354 0.193,-0.512 0.37,-0.844 0.528,-1.001 -0.077,-0.16 -0.213,-0.294 -0.412,-0.413 -0.197,-0.118 -0.252,-0.335 -0.176,-0.647 -0.234,0 -0.411,-0.12 -0.528,-0.355 -0.117,-0.234 -0.258,-0.315 -0.411,-0.234 -0.319,-0.159 -0.492,-0.139 -0.532,0.059 -0.041,0.195 -0.178,0.253 -0.411,0.175 -0.396,0.078 -0.883,0.078 -1.476,0 -0.588,-0.079 -1.08,-0.158 -1.47,-0.234 -1.415,-0.395 -2.886,-0.926 -4.417,-1.592 -1.533,-0.667 -2.689,-1.433 -3.474,-2.294 -0.157,-0.161 -0.295,-0.376 -0.411,-0.65 -0.122,-0.276 -0.259,-0.53 -0.416,-0.766 -0.315,-0.471 -0.609,-0.94 -0.882,-1.412 -0.274,-0.471 -0.335,-1.1 -0.178,-1.884 0.157,-0.631 0.396,-1.141 0.71,-1.532 0.31,-0.471 0.725,-1.021 1.238,-1.65 0.506,-0.629 1.039,-1.294 1.586,-2.001 0.548,-0.707 1.101,-1.374 1.649,-2.003 0.548,-0.629 1.059,-1.177 1.531,-1.648 1.963,0.708 3.85,1.334 5.655,1.883 1.805,0.548 3.59,1.119 5.361,1.709 1.764,0.589 3.55,1.256 5.36,2.001 1.805,0.745 3.687,1.59 5.649,2.534 0.239,0.157 0.334,0.157 0.294,0 -0.041,-0.158 0.021,-0.237 0.178,-0.237 0.157,0 0.197,0.059 0.116,0.178 -0.076,0.117 -0.035,0.216 0.122,0.294 1.567,0.627 2.961,1.197 4.179,1.707 1.217,0.51 1.943,0.687 2.181,0.53 0.157,0 0.192,-0.216 0.116,-0.647 C 4.047,5.16 3.905,4.691 3.713,4.182 3.515,3.67 3.221,2.982 2.83,2.12 Z"
             style="fill:#ffff;fill-opacity:1;fill-rule:nonzero;stroke:none"
             id="path36" />
        </g>
        <g
           id="g38"
           transform="translate(176.3511,307.3232)">
          <path
             d="M 0,0 -6.435,-71.019 H 6.438 Z m 23.969,-124.727 v -0.665 H 11.32 L 7.325,-82.115 H -7.544 l -3.996,-43.277 h -12.65 v 1.109 h 0.221 L -8.432,29.519 H 7.769 l 15.756,-153.802 h 0.223 z"
             style="fill:#ffff;fill-opacity:1;fill-rule:nonzero;stroke:none"
             id="path40" />
        </g>
        <g
           id="g42"
           transform="translate(311.2852,307.7285)">
          <path
             d="M 0,0 -6.456,-71.249 H 6.458 Z m 24.046,-125.13 v -0.667 H 11.356 L 7.349,-82.381 H -7.569 l -4.008,-43.416 h -12.692 v 1.112 h 0.222 L -8.459,29.614 H 7.793 l 15.808,-154.299 h 0.222 z"
             style="fill:#ffff;fill-opacity:1;fill-rule:nonzero;stroke:none"
             id="path44" />
        </g>
        <g
           id="g46"
           transform="translate(244.3486,264.144)">
          <path
             d="M 0,0 C 5.528,0 9.289,8.184 9.289,20.349 V 49.986 C 9.289,57.284 5.528,62.371 0,62.371 H -10.837 V 0.221 L 0,0.221 Z m 9.289,-21.895 c 0,6.634 -3.537,11.058 -9.068,11.058 H -10.837 V -80.95 H -23.444 V 73.431 H 0 c 13.05,0 21.896,-9.29 21.896,-23.224 V 20.349 c 0,-10.618 -2.875,-19.244 -7.741,-24.773 4.866,-3.76 7.741,-9.731 7.741,-17.25 V -81.17 H 9.289 Z"
             style="fill:#ffff;fill-opacity:1;fill-rule:nonzero;stroke:none"
             id="path48" />
        </g>
        <g
           id="g50"
           transform="translate(378.2686,193.0474)">
          <path
             d="m 0,0 c 6.447,0 10.895,4.892 10.895,12.229 v 108.503 c 0,7.336 -4.448,12.45 -10.895,12.45 H -9.338 V 0.222 Z M -22.012,-10.894 V 144.3 H 0 c 14.23,0 23.568,-9.338 23.568,-23.346 V 12.229 C 23.568,-1.778 14.23,-11.116 0,-11.116 Z"
             style="fill:#ffff;fill-opacity:1;fill-rule:nonzero;stroke:none"
             id="path52" />
        </g>
        <g
           id="g54"
           transform="translate(424.9248,337.3477)">
          <path
             d="m 0,0 h 13.945 l 1.142,-269.457 c -10.026,0 -14.222,8.15 -14.18,18.176 z"
             style="fill:#ffff;fill-opacity:1;fill-rule:nonzero;stroke:none"
             id="path56" />
        </g>
        <g
           id="g58"
           transform="translate(472.6758,212.3247)">
          <path
             d="m 0,0 v -9.551 c 0,-6.294 3.474,-10.636 8.466,-10.636 5.209,0 8.682,5.427 8.682,13.676 0,15.628 -4.775,34.513 -14.109,51.011 -9.984,17.367 -15.196,36.035 -15.196,54.486 0,15.845 8.467,26.264 21.056,26.264 9.769,0 17.15,-5.426 19.753,-13.893 0.652,-2.386 1.085,-4.992 1.085,-7.596 V 95.512 H 17.366 v 8.249 c 0,6.295 -3.473,10.636 -8.467,10.636 C 3.474,114.397 0,108.971 0,100.938 0,84.876 4.992,68.161 14.326,51.446 24.312,34.082 29.521,13.242 29.521,-4.125 c 0,-16.279 -8.464,-26.915 -21.055,-26.915 -9.768,0 -17.15,5.427 -19.753,13.893 -0.653,2.387 -1.087,4.992 -1.087,7.596 l 0,9.551 z"
             style="fill:#ffff;fill-opacity:1;fill-rule:nonzero;stroke:none"
             id="path60" />
        </g>
        <g
           id="g62"
           transform="translate(560.25,182.4956)">
          <path
             d="M 0,0 H -36.772 V 155.557 H -1.114 V 143.744 H -24.069 V 87.138 H -6.908 V 75.104 h -1.115 v 0.223 H -24.069 V 11.811 H 0 Z"
             style="fill:#ffff;fill-opacity:1;fill-rule:nonzero;stroke:none"
             id="path64" />
        </g>
        <g
           id="g66"
           transform="translate(118.3857,250.896)">
          <path
             d="M 0,0 C 0,-11.162 -4.744,-18.696 -11.72,-18.696 H -25.392 V 71.992 H -11.72 C -4.744,71.992 0,65.574 0,56.367 Z m -11.72,85.946 h -26.933 -2.645 -58.978 c -0.383,0 -0.694,-0.311 -0.694,-0.694 0,-7.323 5.937,-13.26 13.261,-13.26 h 48.374 l 0.043,-242.52 c 0.001,-8.605 5.016,-15.579 13.621,-15.579 l 0.279,153.46 h 13.672 c 16.464,0 25.666,13.115 25.666,32.647 v 56.646 c 0,17.58 -9.202,29.3 -25.666,29.3"
             style="fill:#ffff;fill-opacity:1;fill-rule:nonzero;stroke:none"
             id="path68" />
        </g>
        <g
           id="g70"
           transform="translate(117.4819,52.2002)">
          <path
             d="M 0,0 C 0.738,-0.137 1.126,0.103 1.395,0.592 1.462,0.715 1.488,0.865 1.359,0.955 1.29,1.003 1.156,1.009 1.073,0.977 0.652,0.814 0.353,0.508 0,0 m 189.92,25.46 c -0.745,-0.104 -1.532,0.244 -2.346,0.089 -0.074,-0.014 -0.179,-0.141 -0.179,-0.214 0.002,-0.197 0.17,-0.32 0.334,-0.325 0.646,-0.016 1.282,-0.079 1.903,-0.269 0.089,-0.026 0.203,0.008 0.299,0.036 0.138,0.04 0.242,0.129 0.241,0.287 -0.002,0.144 -0.073,0.257 -0.252,0.396 m -89.187,69.057 c -0.178,0.117 -0.308,0.143 -0.423,0.031 -0.141,-0.138 -0.155,-0.325 -0.047,-0.464 0.426,-0.539 0.283,-1.212 0.423,-1.815 0.045,-0.194 0.012,-0.374 0.208,-0.483 0.768,-0.424 1.02,-1.13 1.107,-1.945 0.025,-0.228 0.112,-0.469 0.234,-0.664 0.753,-1.198 1.188,-2.486 1.262,-3.907 0.089,-1.74 1.152,-3.156 1.649,-4.762 0.053,-0.171 0.224,-0.262 0.411,-0.209 0.203,0.055 0.24,0.205 0.181,0.399 -0.311,1.003 -0.295,2.072 -0.636,3.073 -0.425,1.251 -0.863,2.503 -1.252,3.758 -0.376,1.219 -0.849,2.398 -1.263,3.598 -0.383,1.111 -1.229,2.002 -1.679,3.097 -0.051,0.121 -0.136,0.228 -0.175,0.293 m -0.372,4.924 c -0.401,-0.355 -0.724,0.092 -0.998,-0.203 -0.063,-0.368 0.184,-0.628 0.379,-0.894 0.782,-1.071 1.464,-2.212 2.315,-3.235 0.17,-0.203 0.279,-0.463 0.388,-0.711 1.232,-2.8 2.204,-5.703 3.319,-8.547 0.766,-1.955 1.118,-3.993 1.566,-6.006 0.282,-1.273 0.163,-2.638 0.185,-3.962 0.021,-1.154 -0.11,-2.319 0.004,-3.46 0.141,-1.403 0.21,-2.845 0.923,-4.134 0.237,-0.428 0.634,-0.93 -0.255,-1.137 -0.136,-0.032 -0.155,-0.212 -0.131,-0.351 0.144,-0.822 0.034,-1.67 0.382,-2.481 0.252,-0.589 0.456,-1.207 0.692,-1.807 0.327,-0.83 1.015,-1.255 1.772,-1.591 0.416,-0.185 0.786,-0.08 1.092,0.285 0.571,0.684 0.88,1.457 0.808,2.351 -0.116,1.456 -0.225,2.914 -0.409,4.362 -0.057,0.44 -0.016,0.974 -0.469,1.305 -0.064,0.046 -0.122,0.221 -0.088,0.268 0.468,0.648 -0.245,1.222 -0.102,1.844 0.036,0.157 -0.032,0.299 -0.196,0.288 -0.624,-0.042 -0.631,0.29 -0.55,0.771 0.026,0.15 -0.197,0.336 -0.29,0.514 -0.302,0.576 -0.268,0.886 0.3,1.168 0.438,0.219 0.479,0.476 0.423,0.893 -0.101,0.767 -0.195,1.506 -0.466,2.264 -0.271,0.758 -0.184,1.658 -0.393,2.488 -0.43,1.712 -0.51,3.49 -0.97,5.201 -0.283,1.053 -0.153,2.154 -0.263,3.229 -0.014,0.135 -0.021,0.275 -0.002,0.408 0.053,0.376 -0.604,0.4 -0.406,0.846 0.137,0.309 0.302,0.617 0.368,0.944 0.139,0.695 0.183,1.412 0.258,2.113 0.151,1.403 0.594,2.721 1,4.042 0.333,1.083 0.872,2.106 1.509,3.069 0.991,1.501 2.165,2.817 3.529,3.999 0.765,0.663 1.426,1.415 2.351,1.906 0.611,0.325 0.988,0.988 1.586,1.411 1.572,1.113 3.383,1.73 5.08,2.576 0.796,0.395 1.718,0.372 2.607,0.31 0.203,-0.014 0.417,-0.128 0.602,-0.087 1.832,0.401 3.445,-0.548 5.168,-0.807 1.041,-0.157 1.879,-0.778 2.829,-1.136 0.54,-0.204 1.057,-0.47 1.586,-0.704 0.85,-0.376 1.431,-1.012 1.794,-1.857 0.363,-0.845 0.693,-1.694 0.739,-2.633 0.06,-1.208 -0.587,-2.127 -1.173,-3.084 -0.814,-1.332 -1.902,-2.477 -2.637,-3.865 -0.17,-0.322 -0.465,-0.582 -0.719,-0.855 -1.096,-1.176 -1.95,-2.53 -2.868,-3.838 -0.49,-0.696 -1.024,-1.355 -1.546,-2.026 -0.859,-1.102 -1.591,-2.317 -2.095,-3.603 -0.774,-1.972 -1.748,-3.828 -2.787,-5.664 -0.415,-0.734 -0.739,-1.52 -1.091,-2.29 -0.626,-1.371 -1.521,-2.578 -2.363,-3.81 -0.732,-1.072 -1.469,-2.142 -1.954,-3.337 -0.635,-1.563 -1.02,-3.22 -0.426,-4.868 0.423,-1.177 1.22,-2.161 2.064,-3.115 1.524,-1.726 3.41,-1.39 5.293,-1.099 2.408,0.372 4.441,1.57 6.394,2.961 0.939,0.668 1.975,1.198 2.969,1.787 0.262,0.155 0.582,0.264 0.688,0.575 0.223,0.649 0.775,0.916 1.312,1.213 0.831,0.46 1.743,0.78 2.473,1.414 0.949,0.823 1.831,1.718 2.798,2.524 2.605,2.173 4.908,4.685 7.587,6.783 0.76,0.596 1.322,1.456 1.937,2.225 0.723,0.906 1.462,1.786 2.389,2.5 0.455,0.351 0.867,0.772 1.179,1.266 0.748,1.187 1.699,2.197 2.665,3.209 1.12,1.173 2.092,2.457 2.927,3.877 0.597,1.014 1.161,2.054 1.736,3.079 0.408,0.726 0.683,1.537 1.068,2.294 0.31,0.612 0.632,1.217 1.071,1.723 0.89,1.028 1.53,2.264 2.547,3.17 1.315,1.171 2.401,2.618 3.91,3.541 1.639,1.003 3.265,2.079 5.183,2.528 0.198,0.046 0.401,0.12 0.599,0.112 1.132,-0.042 2.204,0.337 3.315,0.456 0.888,0.096 1.769,0.057 2.636,-0.027 2.834,-0.276 5.682,-0.45 8.484,-1.005 0.232,-0.046 0.491,-0.043 0.694,-0.148 1.165,-0.596 2.5,-0.649 3.684,-1.166 1.298,-0.565 2.593,-1.136 3.358,-2.458 0.355,-0.615 0.811,-1.175 1.228,-1.754 0.484,-0.673 0.599,-1.406 0.148,-2.1 -0.605,-0.933 -0.972,-2.032 -1.88,-2.762 -0.101,-0.082 -0.2,-0.204 -0.236,-0.326 -0.226,-0.764 -0.771,-1.259 -1.384,-1.705 -0.109,-0.079 -0.291,-0.172 -0.294,-0.264 -0.031,-0.852 -0.927,-1.232 -1.079,-2.018 -0.052,-0.266 -0.277,-0.462 -0.475,-0.653 -0.146,-0.141 -0.329,-0.272 -0.414,-0.447 -0.693,-1.432 -1.949,-2.421 -2.856,-3.682 -0.378,-0.525 -0.697,-1.056 -1.37,-1.286 -0.326,-0.111 -0.045,-0.213 0.077,-0.366 0.195,-0.247 -0.087,-0.904 -0.484,-0.949 -1.246,-0.138 -1.471,-1.284 -2.114,-2.006 -0.402,-0.453 -0.702,-0.998 -1.272,-1.279 -0.122,-0.061 -0.29,-0.095 -0.275,-0.257 0.093,-0.949 -0.918,-1.187 -1.218,-1.897 -0.133,-0.312 -0.598,-0.279 -0.934,-0.286 -0.447,-0.011 -0.599,-0.11 -0.619,-0.649 -0.043,-1.09 -0.791,-1.821 -1.638,-2.423 -0.285,-0.203 -0.753,-0.219 -0.672,-0.756 0.01,-0.063 -0.108,-0.201 -0.181,-0.213 -0.705,-0.111 -0.949,-0.729 -1.32,-1.196 -0.785,-0.987 -1.792,-1.762 -2.578,-2.751 -0.51,-0.641 -0.946,-1.324 -1.407,-1.997 -0.609,-0.888 -1.008,-1.917 -1.796,-2.686 -0.119,-0.116 -0.225,-0.262 -0.289,-0.416 -0.69,-1.622 -1.522,-3.194 -1.811,-4.963 -0.038,-0.234 -0.127,-0.477 -0.095,-0.703 0.183,-1.326 -0.085,-2.646 -0.036,-3.971 0.016,-0.447 0.051,-0.887 0.195,-1.304 0.462,-1.337 0.895,-2.686 1.533,-3.953 0.121,-0.242 0.27,-0.482 0.454,-0.675 0.448,-0.471 0.744,-1.03 1.088,-1.572 0.627,-0.986 1.317,-1.956 2.399,-2.565 0.914,-0.514 1.661,-1.27 2.464,-1.939 0.234,-0.195 0.404,-0.512 0.746,-0.459 0.437,0.067 0.502,-0.08 0.507,-0.491 0.004,-0.33 1.015,-0.735 1.418,-0.667 1.687,0.283 2.683,1.487 3.607,2.75 0.309,0.422 0.194,1.025 0.482,1.53 0.366,0.639 1.087,0.978 1.3,1.72 0.223,0.778 1.016,1.226 1.212,2.034 0.08,0.331 0.304,0.471 0.671,0.498 0.515,0.037 0.919,0.276 0.883,0.893 -0.019,0.317 0.155,0.505 0.392,0.663 0.289,0.193 0.511,0.452 0.695,0.74 0.227,0.357 0.509,0.601 0.941,0.718 0.548,0.149 0.942,0.515 1.165,1.059 0.075,0.184 0.178,0.428 0.332,0.495 1.161,0.507 2.024,1.445 3.086,2.107 1.095,0.681 2.152,1.508 3.03,2.5 0.352,0.397 0.709,0.587 1.296,0.622 0.828,0.049 1.629,0.408 2.361,0.846 0.263,0.158 0.516,0.398 0.797,0.441 2.077,0.315 4.031,1.2 6.166,1.267 1.204,0.038 2.363,-0.208 3.521,-0.413 0.843,-0.149 1.683,-0.263 2.526,-0.246 0.632,0.013 1.223,-0.083 1.779,-0.325 1.003,-0.438 2.135,-0.312 3.142,-0.786 0.377,-0.178 0.916,0.153 1.375,-0.116 0.169,-0.099 0.408,-0.097 0.526,-0.28 0.269,-0.413 0.59,-0.65 1.103,-0.427 0.056,0.024 0.172,0.025 0.195,-0.009 0.538,-0.773 1.614,-0.455 2.212,-1.092 0.298,-0.317 0.701,-0.105 1.059,-0.249 1.897,-0.768 3.692,-1.69 5.413,-2.816 1.026,-0.672 2.042,-1.451 3.274,-1.787 0.569,-0.154 1.01,-0.557 1.495,-0.86 1.381,-0.859 2.726,-1.777 4.081,-2.679 0.54,-0.359 1.091,-0.692 1.7,-0.923 0.256,-0.096 0.518,-0.202 0.665,-0.449 0.228,-0.383 0.576,-0.563 0.994,-0.64 0.391,-0.073 0.66,-0.336 0.937,-0.588 1.636,-1.49 3.439,-2.763 5.249,-4.024 0.385,-0.268 0.834,-0.475 1.285,-0.617 1.401,-0.44 2.502,-1.353 3.628,-2.229 1.126,-0.878 2.283,-1.688 3.56,-2.359 0.943,-0.496 1.774,-1.256 2.558,-2 1.373,-1.304 3.008,-2.217 4.598,-3.187 1.506,-0.919 3.068,-1.757 4.734,-2.372 0.127,-0.047 0.25,-0.115 0.358,-0.194 1.882,-1.364 4.046,-2.233 6.011,-3.446 1.181,-0.729 2.224,-1.653 2.943,-2.881 0.764,-1.305 0.235,-2.72 -1.257,-2.941 -1.233,-0.184 -2.229,-0.737 -3.255,-1.34 -0.671,-0.395 -1.411,-0.672 -2.191,-0.817 -1.538,-0.287 -3.067,-0.625 -4.611,-0.876 -1.821,-0.297 -3.552,-0.93 -5.347,-1.321 -0.601,-0.13 -1.201,-0.259 -1.809,-0.294 -1.031,-0.059 -1.997,-0.362 -2.963,-0.678 -0.195,-0.064 -0.389,-0.15 -0.588,-0.169 -1.731,-0.165 -3.394,-0.644 -5.05,-1.124 -3.149,-0.913 -6.426,-1.083 -9.616,-1.734 -2.692,-0.548 -5.467,-0.761 -8.036,-1.845 -0.322,-0.136 -0.665,-0.127 -1.005,-0.147 -0.443,-0.026 -0.882,-0.08 -1.292,-0.268 -1.112,-0.507 -2.257,-0.618 -3.477,-0.48 -1.144,0.129 -2.313,0.173 -3.464,0.107 -3.232,-0.183 -6.46,0.025 -9.689,0.014 -1.254,-0.004 -2.508,-0.099 -3.972,-0.161 0.993,-0.646 2.106,-0.624 3.011,-1.421 -0.913,-0.15 -1.584,0.106 -2.237,0.308 -0.625,0.191 -1.247,0.304 -1.893,0.372 -0.912,0.095 -1.813,0.305 -2.726,0.375 -2.088,0.157 -4.173,0.169 -6.256,-0.173 -1.272,-0.209 -2.567,-0.282 -3.851,-0.414 -1.15,-0.118 -2.261,-0.464 -3.415,-0.577 -0.624,-0.062 -0.716,-0.296 -0.612,-0.919 0.418,-2.525 1.785,-4.418 3.876,-5.827 0.137,-0.093 0.307,-0.204 0.459,-0.199 0.811,0.026 1.407,-0.43 2.029,-0.845 0.608,-0.407 1.36,-0.401 2.017,-0.685 1.695,-0.733 3.474,-1.17 5.301,-1.402 0.682,-0.087 1.329,-0.292 1.983,-0.475 0.628,-0.176 1.247,-0.337 1.904,-0.259 0.207,0.026 0.412,0.013 0.598,-0.082 0.905,-0.459 1.874,-0.586 2.87,-0.536 0.426,0.022 0.794,-0.254 1.19,-0.239 1.728,0.06 3.305,-0.686 4.982,-0.889 0.235,-0.028 0.472,-0.077 0.696,-0.153 0.872,-0.297 1.766,-0.507 2.684,-0.531 1.402,-0.037 2.751,-0.391 4.111,-0.654 1.55,-0.299 3.077,-0.689 4.418,-1.644 0.65,-0.463 1.464,-0.706 2.22,-1.008 0.594,-0.237 1.264,-0.295 1.751,-0.78 0.066,-0.065 0.191,-0.114 0.281,-0.104 1.224,0.134 2.211,-0.591 3.304,-0.921 0.491,-0.147 0.98,-0.287 1.486,-0.352 0.963,-0.126 1.804,-0.601 2.686,-0.947 0.51,-0.2 0.76,-0.759 1.045,-1.221 0.928,-1.508 0.895,-1.657 -0.427,-2.766 -0.312,-0.261 -0.66,-0.34 -1.035,-0.368 -1.292,-0.1 -2.579,-0.13 -3.863,0.112 -1.54,0.29 -3.113,0.234 -4.664,0.417 -0.641,0.076 -1.286,0.117 -1.928,0.187 -2.768,0.303 -5.532,0.445 -8.325,0.279 -2.17,-0.129 -4.316,-0.44 -6.474,-0.648 -1.578,-0.153 -3.136,-0.58 -4.729,-0.721 -1.05,-0.093 -2.101,-0.198 -3.152,-0.24 -2.663,-0.107 -5.251,-0.688 -7.856,-1.169 -2.396,-0.443 -4.735,-1.108 -7.088,-1.734 -1.096,-0.291 -2.247,-0.558 -3.415,-0.518 -1.8,0.061 -3.605,-0.07 -5.395,0.006 -2.303,0.097 -4.612,0.121 -6.913,0.366 -1.887,0.2 -3.745,0.608 -5.643,0.71 -0.851,0.045 -1.669,0.316 -2.481,0.562 -1.569,0.474 -3.164,0.766 -4.8,0.889 -1.34,0.101 -2.581,0.632 -3.783,1.171 -1.747,0.784 -3.584,1.251 -5.413,1.748 -1.967,0.535 -3.709,1.452 -5.257,2.766 -0.832,0.707 -1.587,1.479 -2.246,2.355 -0.258,0.343 -0.646,0.602 -1.009,0.848 -0.428,0.29 -0.805,0.634 -1.14,1.014 -0.588,0.671 -1.238,1.257 -1.992,1.737 -0.254,0.162 -0.493,0.37 -0.689,0.6 -1.65,1.946 -3.507,3.685 -5.349,5.441 -0.172,0.163 -0.386,0.311 -0.488,0.513 -0.698,1.372 -1.956,2.347 -2.628,3.735 -0.029,0.059 -0.074,0.121 -0.127,0.157 -1.491,1.027 -2.477,2.593 -3.935,3.664 -0.933,0.686 -2,0.822 -3.07,0.945 -0.806,0.092 -1.631,0.061 -2.446,0.024 -2.245,-0.105 -2.407,-0.482 -2.581,-2.567 -0.179,-2.158 0.448,-4.196 1.145,-6.25 0.717,-2.114 2.044,-3.711 3.44,-5.345 2.864,-3.351 6.52,-5.367 10.676,-6.579 1.38,-0.403 2.636,-1.095 3.984,-1.564 2.734,-0.951 5.196,-2.528 7.942,-3.452 0.29,-0.097 0.565,-0.248 0.86,-0.316 1.5,-0.351 2.8,-1.188 4.22,-1.731 0.254,-0.097 0.485,-0.267 0.744,-0.329 1.687,-0.403 3.269,-1.139 4.976,-1.501 0.906,-0.193 1.81,-0.553 2.654,-1.015 0.562,-0.307 1.215,-0.448 1.774,-0.758 1.342,-0.748 2.542,-1.705 3.648,-2.766 0.764,-0.732 1.095,-1.605 0.669,-2.677 -0.732,-1.84 -2.113,-3.14 -4.175,-2.908 -2.267,0.255 -4.547,0.147 -6.808,0.398 -1.655,0.185 -3.336,0.295 -4.946,0.687 -1.61,0.393 -3.173,1.04 -4.8,1.368 -2.024,0.409 -3.988,1.131 -6.082,1.204 -1.15,0.04 -2.277,0.507 -3.44,0.274 -1.64,-0.328 -3.307,-0.347 -4.959,-0.53 -2.93,-0.323 -5.881,-0.376 -8.811,-0.709 -1.205,-0.137 -2.337,-0.529 -3.425,-0.948 -1.656,-0.638 -3.387,-0.988 -5.044,-1.589 -1.085,-0.393 -2.177,-0.701 -3.344,-0.817 -0.968,-0.097 -1.915,-0.485 -2.862,-0.678 -1.455,-0.295 -2.89,-0.753 -4.387,-0.832 -0.929,-0.049 -1.828,-0.172 -2.545,-0.86 -0.306,-0.293 -0.702,-0.375 -1.117,-0.444 -0.922,-0.153 -1.903,-0.092 -2.678,-0.812 -0.253,-0.235 -0.694,-0.214 -1.046,-0.356 -1.183,-0.476 -2.38,-0.941 -3.606,-1.289 -0.977,-0.277 -1.965,-0.186 -3.007,-0.019 -1.542,0.248 -3.033,0.748 -4.589,0.877 -1.046,0.087 -2.031,0.456 -2.889,0.946 -1.614,0.921 -3.337,1.646 -4.82,2.834 -1.1,0.881 -2.226,1.796 -3.562,2.357 -0.181,0.076 -0.362,0.207 -0.488,0.358 -1.02,1.226 -2.434,1.955 -3.67,2.908 -0.622,0.482 -1.24,0.953 -1.676,1.616 -0.194,0.293 -0.46,0.494 -0.732,0.702 -1.101,0.842 -2.286,1.584 -3.199,2.655 -0.48,0.562 -1.15,0.841 -1.776,1.173 -0.496,0.262 -0.89,0.607 -1.234,1.041 -1.075,1.356 -2.166,2.7 -3.248,4.051 -0.741,0.926 -1.663,1.684 -2.357,2.665 -0.374,0.531 -1.088,0.768 -1.474,1.369 -1.099,1.713 -2.443,3.255 -3.603,4.921 -0.94,1.351 -1.938,2.704 -2.531,4.284 -0.505,1.344 -1.44,2.445 -2.189,3.65 -0.593,0.953 -1.185,1.906 -1.76,2.869 -0.137,0.23 -0.257,0.493 -0.294,0.754 -0.145,0.987 -0.555,1.885 -0.896,2.805 -0.204,0.548 -0.373,1.113 -0.392,1.684 -0.041,1.232 -0.404,2.41 -0.519,3.625 -0.145,1.551 0.092,3.05 0.689,4.491 0.026,0.062 0.057,0.127 0.1,0.177 1.267,1.45 2.386,3.058 4.198,3.926 0.399,0.191 0.809,0.364 1.188,0.589 1.052,0.625 2.187,0.951 3.404,0.915 0.92,-0.027 1.742,0.273 2.542,0.644 1.326,0.614 2.625,1.28 3.946,1.905 1.999,0.946 4.112,1.597 6.198,2.308 1.063,0.363 2.122,0.714 3.126,1.218 1.253,0.63 2.574,1.21 3.949,1.284 2.318,0.124 4.408,1.112 6.642,1.472 2.521,0.407 4.887,1.459 7.429,1.718 1.431,0.145 2.823,0.504 4.171,0.91 2.642,0.795 5.356,1.231 8.039,1.795 1.311,0.276 2.658,0.517 4.004,0.68 1.414,0.172 2.829,0.342 4.237,0.578 2.881,0.48 5.772,0.917 8.703,0.947 3.235,0.034 6.421,0.473 9.601,1.028 1.259,0.22 2.54,0.47 3.844,0.307 0.548,-0.068 1.049,0.237 1.604,0.249 1.183,0.024 2.369,0.068 3.524,0.397 0.251,0.072 0.544,0.048 0.809,0.007 2.185,-0.336 4.392,-0.334 6.592,-0.446 2.318,-0.117 4.579,-0.601 6.835,-1.094 0.657,-0.143 1.225,-0.553 1.913,-0.677 0.566,-0.102 1.13,-0.213 1.698,-0.315 0.71,-0.127 1.464,-0.174 1.971,-0.87 0.225,-0.307 0.651,-0.496 1.05,-0.593 0.727,-0.175 1.383,-0.346 1.903,-1.025 0.296,-0.387 0.987,-0.543 1.506,-0.723 1.079,-0.373 1.957,-1.095 2.992,-1.523 1.643,-0.682 2.81,-1.984 4.098,-3.133 0.581,-0.519 1.227,-0.968 1.859,-1.429 0.713,-0.52 1.467,-0.977 2.132,-1.573 0.535,-0.479 1.217,-0.766 1.909,-0.936 2.377,-0.581 4.749,-1.201 7.154,-1.636 1.258,-0.228 2.557,-0.371 3.806,-0.606 1.311,-0.246 2.519,-0.127 3.708,0.229 0.979,0.293 1.944,0.584 2.96,0.714 1.347,0.173 2.69,0.383 4.038,0.555 2.188,0.28 4.366,0.632 6.545,0.976 2.202,0.347 4.412,0.846 6.674,0.784 0.582,-0.016 1.152,-0.084 1.724,-0.173 0.351,-0.055 0.647,-0.204 0.908,-0.431 0.152,-0.132 0.351,-0.255 0.312,-0.49 -0.041,-0.246 -0.274,-0.285 -0.47,-0.314 -0.571,-0.086 -1.143,-0.173 -1.719,-0.225 -2.091,-0.187 -4.213,-0.201 -6.262,-0.593 -1.531,-0.293 -3.079,-0.495 -4.6,-0.835 -0.462,-0.103 -0.922,-0.216 -1.409,-0.155 -0.419,0.053 -0.788,-0.162 -1.174,-0.287 -1.032,-0.332 -2.047,-0.727 -3.164,-0.705 -0.752,0.016 -1.495,-0.216 -2.186,-0.427 -1.068,-0.325 -2.136,-0.363 -3.217,-0.435 -0.364,-0.024 -0.772,0.045 -0.917,-0.495 0.436,-0.249 0.892,-0.223 1.358,-0.132 0.233,0.045 0.468,0.1 0.702,0.109 0.217,0.007 0.418,-0.085 0.402,-0.348 -0.014,-0.203 -0.2,-0.269 -0.371,-0.287 -0.166,-0.017 -0.337,0.014 -0.506,0.018 -0.34,0.009 -0.697,0.083 -1.018,0.008 -1.751,-0.41 -3.523,-0.024 -5.279,-0.177 -0.764,-0.066 -1.494,0.101 -2.176,0.439 -0.521,0.26 -1.087,0.4 -1.609,0.637 -1.368,0.621 -2.835,0.941 -4.234,1.464 -1.097,0.409 -2.113,0.939 -2.948,1.763 -0.482,0.475 -1.172,0.486 -1.7,0.874 -1.198,0.878 -2.618,1.394 -3.768,2.38 -0.978,0.839 -2.106,1.486 -3.26,2.085 -1.716,0.889 -3.309,1.986 -4.815,3.193 -0.967,0.776 -2.112,1.235 -3.118,1.931 -1.621,1.121 -3.489,1.612 -5.345,2.154 -1.445,0.422 -2.911,0.655 -4.404,0.595 -1.037,-0.041 -1.971,0.445 -2.993,0.427 -1.052,-0.018 -2.103,0.022 -3.148,-0.145 -0.292,-0.046 -0.605,-0.05 -0.896,-10e-4 -1.571,0.264 -3.098,-0.067 -4.633,-0.305 -0.134,-0.021 -0.272,-0.091 -0.4,-0.074 -1.259,0.163 -2.389,-0.427 -3.588,-0.595 -1.46,-0.204 -2.926,-0.475 -4.414,-0.254 -0.205,0.032 -0.407,0.052 -0.602,-0.035 -0.8,-0.355 -1.661,-0.38 -2.494,-0.3 -0.756,0.074 -1.405,-0.351 -2.188,-0.263 -0.447,0.051 -0.908,-0.257 -1.339,0.214 -0.093,0.103 -0.463,0.004 -0.684,-0.068 -1.659,-0.537 -3.374,-0.769 -5.098,-0.955 -0.649,-0.07 -1.275,-0.201 -1.851,-0.513 -0.502,-0.272 -0.968,-0.332 -1.426,0.317 -0.269,-0.821 -0.84,-0.983 -1.485,-0.945 -0.84,0.047 -1.684,-0.268 -2.524,0.045 -0.288,0.109 -0.529,-0.036 -0.709,-0.274 -0.275,-0.365 -0.666,-0.395 -1.11,-0.419 0.076,0.206 0.221,0.42 0.169,0.493 -0.166,0.235 -0.38,0.061 -0.506,-0.075 -0.917,-0.983 -2.23,-0.806 -3.336,-1.292 -0.131,0.505 0.323,0.476 0.404,0.717 -0.071,0.124 -0.18,0.078 -0.25,0.024 -0.187,-0.143 -0.361,-0.304 -0.537,-0.463 -0.131,-0.119 -0.297,-0.25 -0.449,-0.13 -0.721,0.562 -1.256,-0.117 -1.858,-0.278 -0.245,-0.065 -0.557,-0.412 -0.721,-0.297 -0.97,0.678 -1.654,-0.257 -2.452,-0.418 -0.895,-0.18 -1.797,-0.256 -2.692,-0.384 -0.882,-0.127 -1.724,-0.256 -2.516,-0.72 -0.504,-0.295 -1.036,-0.694 -1.71,-0.47 -0.135,0.045 -0.271,-0.003 -0.382,-0.09 -0.721,-0.567 -1.61,-0.672 -2.455,-0.893 -0.163,-0.043 -0.337,-0.078 -0.477,-0.164 -1.162,-0.708 -2.466,-0.581 -3.735,-0.639 -0.337,-0.016 -0.708,0.096 -1.007,-0.063 -0.488,-0.258 -0.939,-0.361 -1.433,-0.041 -0.148,0.097 -0.355,0.097 -0.459,-0.069 -0.328,-0.529 -0.941,-0.495 -1.41,-0.742 -0.426,-0.225 -0.822,-0.262 -1.213,0.111 -0.375,0.357 -0.673,0.142 -0.982,-0.265 0.384,-0.189 0.911,-0.106 1.099,-0.578 0.052,-0.131 0.097,-0.265 0.01,-0.385 -0.098,-0.137 -0.249,-0.115 -0.358,-0.024 -0.71,0.59 -1.393,0.347 -2.076,-0.049 -0.237,-0.137 -0.486,-0.3 -0.763,-0.24 -0.713,0.154 -1.336,-0.144 -1.988,-0.323 -0.461,-0.126 -0.961,-0.155 -1.049,-0.784 -0.02,-0.136 -0.201,-0.255 -0.315,-0.143 -0.409,0.409 -0.74,0.065 -1.11,-0.059 C 72.011,28.538 71.266,28.39 70.675,28.086 69.708,27.591 68.589,27.508 67.705,26.847 66.958,26.288 66.082,26.004 65.186,25.778 63.7,25.404 62.371,24.62 60.942,24.122 59.663,23.676 58.691,22.769 57.488,22.215 56.072,21.562 55.161,20.269 54.292,19 c -0.075,-0.109 -0.138,-0.247 -0.149,-0.377 -0.204,-2.181 -0.784,-4.367 0.195,-6.522 0.406,-0.895 0.609,-1.866 1.048,-2.761 0.559,-1.142 1.237,-2.189 2.038,-3.164 0.439,-0.535 0.613,-1.21 0.972,-1.788 1.737,-2.8 3.416,-5.626 5.406,-8.272 1.41,-1.874 2.898,-3.589 4.851,-4.889 0.279,-0.186 0.526,-0.434 0.75,-0.688 1.396,-1.59 3.072,-2.861 4.679,-4.221 1.369,-1.158 2.789,-2.262 4.06,-3.547 0.927,-0.936 2.044,-1.684 3.086,-2.504 0.371,-0.292 0.843,-0.498 0.62,-1.124 -0.059,-0.168 0.084,-0.311 0.202,-0.441 0.936,-1.03 1.89,-2.023 3.038,-2.848 1.211,-0.868 2.296,-1.911 3.43,-2.885 0.86,-0.74 1.786,-1.357 2.907,-1.633 0.731,-0.18 1.402,-0.485 2.062,-0.857 1.05,-0.589 2.238,-0.788 3.414,-0.96 0.376,-0.055 0.736,-0.12 1.076,-0.276 0.53,-0.242 1.049,-0.455 1.665,-0.318 0.417,0.093 0.797,-0.154 1.162,-0.321 0.459,-0.212 0.88,-0.235 1.374,-0.079 0.838,0.266 1.68,0.54 2.574,0.595 0.596,0.036 1.089,0.389 1.578,0.687 1.108,0.675 2.321,1.13 3.476,1.705 0.912,0.455 1.908,0.509 2.886,0.459 0.838,-0.043 1.647,0.05 2.413,0.311 2.738,0.935 5.622,1.254 8.39,2.05 0.876,0.251 1.707,0.659 2.559,0.994 0.284,0.112 0.561,0.265 0.857,0.32 1.467,0.279 2.898,0.737 4.394,0.887 0.607,0.061 1.206,0.2 1.808,0.313 1.034,0.193 2.054,0.381 3.13,0.29 1.6,-0.137 3.174,0.297 4.769,0.386 1.218,0.069 2.423,0.366 3.655,0.158 0.451,-0.076 0.858,0.188 1.304,0.193 2.008,0.022 4.016,-0.012 5.991,-0.39 1.2,-0.229 2.442,-0.15 3.615,-0.589 0.794,-0.298 1.586,-0.64 2.392,-0.863 1.456,-0.402 2.819,-1.218 4.407,-1.089 0.561,0.046 1.055,-0.261 1.592,-0.326 1.719,-0.206 3.44,-0.454 5.173,-0.159 0.378,0.064 0.745,0.057 1.114,-0.025 0.905,-0.203 1.828,-0.113 2.741,-0.171 0.322,-0.021 0.593,0.129 0.865,0.269 0.251,0.13 0.322,0.327 0.227,0.596 -0.292,0.818 -0.647,1.552 -1.565,1.881 -0.798,0.286 -1.546,0.708 -2.336,1.016 -0.893,0.35 -1.645,0.947 -2.454,1.424 -1.01,0.595 -2.02,1.007 -3.151,1.314 -2.421,0.655 -4.724,1.676 -7.06,2.592 -1.082,0.423 -2.103,0.928 -3.111,1.495 -0.741,0.415 -1.574,0.635 -2.426,0.748 -1.187,0.156 -2.32,0.463 -3.371,1.074 -0.464,0.269 -0.993,0.442 -1.51,0.604 -1.592,0.498 -3.021,1.37 -4.576,1.96 -1.814,0.69 -3.587,1.499 -4.872,3.058 -0.065,0.078 -0.14,0.159 -0.228,0.203 -1.803,0.886 -3.092,2.427 -4.628,3.651 -0.918,0.731 -1.415,1.729 -1.866,2.83 -0.362,0.885 -0.565,1.878 -1.184,2.661 -0.217,0.274 -0.297,0.603 -0.375,0.938 -0.101,0.43 -0.159,0.896 -0.374,1.266 -0.546,0.941 -0.418,1.975 -0.466,2.972 -0.04,0.807 -0.059,1.623 -0.064,2.426 -0.006,1.119 0.33,2.228 0.762,3.279 0.12,0.291 0.398,0.461 0.677,0.598 0.957,0.472 1.946,0.831 3.038,0.715 1.149,-0.122 2.316,0.047 3.457,-0.227 1.203,-0.288 2.267,-0.755 3.242,-1.599 1.228,-1.063 2.618,-1.95 3.997,-2.822 1.507,-0.954 2.669,-2.189 3.544,-3.73 0.507,-0.893 1.37,-1.497 1.972,-2.328 1.001,-1.383 2.208,-2.578 3.59,-3.587 0.362,-0.264 0.689,-0.571 0.935,-0.935 0.645,-0.957 1.552,-1.544 2.528,-2.125 0.669,-0.398 1.183,-1.102 1.676,-1.739 0.55,-0.711 1.163,-1.309 1.939,-1.772 0.956,-0.571 1.875,-1.203 2.806,-1.814 0.631,-0.414 1.369,-0.63 2.062,-0.823 1.575,-0.44 3.049,-1.156 4.621,-1.578 1.209,-0.325 2.459,-0.457 3.702,-0.622 1.064,-0.142 2.15,-0.075 3.201,-0.431 0.829,-0.279 1.75,-0.198 2.6,-0.478 0.21,-0.07 0.531,-0.078 0.696,0.036 0.532,0.37 1.066,0.163 1.541,0.003 2.01,-0.68 4.099,-0.829 6.178,-1.11 1.096,-0.148 2.235,-0.221 3.29,-0.645 0.355,-0.143 0.737,-0.111 1.11,-0.125 0.65,-0.023 1.302,-0.105 1.907,-0.31 0.894,-0.303 1.783,-0.45 2.704,-0.24 1.532,0.35 3.122,0.049 4.652,0.441 2.201,0.562 4.433,1.019 6.562,1.835 0.614,0.236 1.248,0.368 1.898,0.326 1.511,-0.098 2.981,0.118 4.436,0.496 0.132,0.034 0.269,0.063 0.403,0.065 2.215,0.029 4.388,0.486 6.594,0.641 1.21,0.085 2.412,0.383 3.631,0.473 1.317,0.099 2.593,0.47 3.884,0.642 1.284,0.172 2.593,0.522 3.941,0.214 0.68,-0.156 1.426,-0.127 2.131,-0.058 0.829,0.081 1.621,-0.066 2.431,-0.139 0.938,-0.085 1.889,0.014 2.825,-0.173 2.134,-0.429 4.32,-0.462 6.464,-0.818 0.053,-0.008 0.116,0.05 0.183,0.081 0.104,0.355 -0.169,0.485 -0.4,0.603 -1.184,0.612 -2.438,1.033 -3.746,1.292 -0.3,0.059 -0.614,0.069 -0.9,0.167 -2.551,0.873 -5.235,1.2 -7.818,1.895 -2.119,0.571 -4.263,1.185 -6.26,2.154 -1.334,0.646 -2.765,0.915 -4.199,1.176 -2.375,0.433 -4.796,0.641 -7.113,1.335 -1.553,0.464 -3.147,0.483 -4.72,0.716 -2.059,0.306 -4.029,0.865 -5.981,1.604 -1.543,0.585 -2.988,1.31 -4.361,2.181 -1.714,1.089 -3.235,2.379 -3.714,4.515 -0.111,0.493 -0.316,0.966 -0.656,1.365 -0.201,0.235 -0.432,0.527 -0.342,0.824 0.21,0.686 -0.006,1.334 -0.049,2.002 -0.069,1.072 0.937,2.192 2.029,2.272 2.093,0.153 4.189,0.279 6.283,0.399 1.562,0.09 3.12,0.215 4.668,0.437 0.169,0.024 0.346,0.087 0.505,0.059 1.738,-0.317 3.456,0.084 5.184,0.118 1.088,0.021 2.163,-0.145 3.248,-0.175 0.677,-0.02 1.258,0.263 1.896,0.269 1.122,0.013 2.242,0.017 3.363,0.021 0.203,10e-4 0.42,-0.064 0.609,-0.016 1.115,0.285 2.226,0.067 3.343,0.035 0.872,-0.025 1.751,0.183 2.627,0.282 0.405,0.046 0.812,0.119 1.218,0.11 1.914,-0.043 3.79,0.275 5.652,0.634 1.541,0.298 3.125,0.301 4.641,0.673 1.957,0.48 3.962,0.57 5.928,0.919 1.599,0.284 3.127,0.948 4.747,1.147 1.762,0.216 3.432,0.798 5.16,1.143 1.067,0.213 2.085,0.612 3.129,0.884 1.508,0.394 3.074,0.538 4.633,0.701 1.672,0.174 3.38,0.205 4.989,0.875 0.64,0.265 1.393,0.315 2.101,0.355 2.417,0.135 4.642,0.912 6.817,1.904 0.742,0.338 1.528,0.577 2.286,0.879 0.668,0.267 0.711,0.494 0.237,1.012 -0.803,0.879 -1.697,1.651 -2.616,2.408 -0.704,0.579 -1.581,0.752 -2.33,1.231 -1.423,0.908 -2.869,1.817 -4.447,2.437 -1.318,0.519 -2.484,1.239 -3.54,2.168 -0.435,0.384 -1.038,0.473 -1.505,0.841 -1.015,0.801 -1.966,1.672 -2.948,2.51 -0.771,0.657 -1.653,1.187 -2.504,1.748 -2.267,1.492 -4.543,2.974 -6.821,4.45 -0.195,0.126 -0.434,0.22 -0.662,0.254 -1.33,0.196 -2.225,1.103 -3.072,1.993 -0.487,0.51 -0.989,0.935 -1.615,1.19 -1.238,0.503 -2.278,1.33 -3.341,2.087 -2.034,1.452 -4.122,2.824 -6.142,4.285 -1.337,0.967 -2.816,1.547 -4.247,2.272 -0.305,0.153 -0.595,0.322 -0.886,0.499 -0.838,0.511 -1.635,1.095 -2.621,1.339 -0.659,0.163 -1.114,0.725 -1.782,0.957 -2.209,0.77 -4.43,1.482 -6.715,1.991 -0.354,0.079 -0.677,0.302 -1.015,0.455 -1.088,0.494 -2.283,0.663 -3.384,1.112 -0.438,0.177 -0.88,-0.009 -1.312,0.09 -1.796,0.414 -3.627,0.365 -5.45,0.392 -0.519,0.008 -1.012,-0.162 -1.477,-0.36 -1.689,-0.722 -3.445,-1.252 -5.175,-1.855 -0.884,-0.307 -1.68,-0.718 -2.322,-1.416 -0.819,-0.891 -1.929,-1.385 -2.921,-2.035 -0.657,-0.432 -1.302,-0.865 -1.84,-1.432 -1.08,-1.141 -2.423,-1.975 -3.544,-3.065 -1.813,-1.763 -3.438,-3.665 -4.632,-5.917 -0.588,-1.11 -1.273,-2.17 -1.912,-3.252 -0.175,-0.296 -0.444,-0.51 -0.66,-0.765 -1.217,-1.436 -2.721,-0.983 -4.117,-0.541 -1.88,0.597 -3.678,1.425 -5.066,2.92 -0.138,0.15 -0.274,0.338 -0.449,0.409 -1.643,0.664 -2.257,2.143 -2.951,3.588 -0.243,0.509 -0.643,0.957 -1.03,1.38 -0.564,0.617 -0.759,1.436 -1.225,2.103 -0.048,0.068 -0.06,0.209 -0.023,0.282 0.248,0.481 -0.013,0.859 -0.253,1.226 -0.319,0.488 -0.533,1.02 -0.753,1.555 -0.122,0.296 -0.2,0.569 -0.125,0.884 0.064,0.261 0.078,0.468 -0.161,0.724 -0.266,0.284 -0.104,0.711 0.066,1.046 0.109,0.217 0.265,0.447 0.183,0.669 -0.207,0.559 -0.078,1.066 -0.005,1.637 0.198,1.53 0.532,3.014 1.263,4.348 0.699,1.275 1.323,2.591 2.039,3.859 0.59,1.043 1.542,1.905 1.734,3.173 0.028,0.177 0.199,0.361 0.35,0.486 0.728,0.6 1.075,1.531 1.957,2.037 0.47,0.27 0.692,0.972 1.025,1.48 0.13,0.199 0.208,0.489 0.391,0.586 0.912,0.485 1.445,1.424 2.331,1.916 0.519,0.289 0.703,0.816 1.027,1.235 0.336,0.434 0.666,0.845 1.108,1.18 0.371,0.281 0.786,0.559 0.775,1.125 -0.005,0.25 0.157,0.359 0.4,0.353 0.422,-0.013 0.719,0.183 0.895,0.555 0.519,1.097 1.417,1.91 2.206,2.781 0.511,0.565 0.859,1.218 1.285,1.814 0.638,0.889 1.619,1.487 2.115,2.43 0.539,1.024 1.583,1.652 1.973,2.765 0.114,0.323 0.395,0.551 0.702,0.716 0.374,0.201 0.643,0.515 0.84,0.872 0.857,1.556 2.047,2.844 3.243,4.131 0.799,0.86 1.333,1.862 1.477,3.11 -0.701,0.263 -1.153,0.778 -1.414,1.551 -0.231,0.681 -0.953,0.943 -1.549,1.254 -1.67,0.875 -3.484,1.321 -5.308,1.743 -0.578,0.133 -1.235,0.066 -1.696,0.585 -0.12,0.135 -0.319,0 -0.484,-0.01 -1.526,-0.09 -3.055,-0.234 -4.551,0.253 -0.191,0.063 -0.411,0.126 -0.601,0.094 -1.048,-0.183 -2.128,0.093 -3.147,-0.118 -1.194,-0.248 -2.409,-0.264 -3.602,-0.578 -3.428,-0.903 -6.076,-2.8 -7.897,-5.828 -0.353,-0.588 -0.729,-1.16 -1.182,-1.656 -1.899,-2.078 -3.308,-4.483 -4.654,-6.924 -0.435,-0.788 -1.02,-1.444 -1.561,-2.134 -0.523,-0.668 -1.045,-1.342 -1.6,-1.984 -0.608,-0.703 -1.184,-1.403 -1.393,-2.337 -0.061,-0.274 -0.251,-0.478 -0.441,-0.675 -1.082,-1.122 -2.204,-2.202 -3.339,-3.271 -0.738,-0.694 -1.506,-1.375 -2.066,-2.233 -0.164,-0.251 -0.508,-0.596 0.144,-0.724 0.216,-0.041 0.233,-0.238 0.181,-0.41 -0.112,-0.364 -0.275,-0.753 -0.647,-0.866 -0.504,-0.154 -0.926,-0.409 -1.342,-0.708 -0.135,-0.097 -0.33,-0.187 -0.423,0.038 -0.224,0.537 -0.452,0.261 -0.651,0.006 -1.08,-1.392 -2.401,-2.584 -3.356,-4.077 -0.055,-0.085 -0.107,-0.191 -0.189,-0.237 -1.824,-1.028 -3.023,-2.833 -4.825,-3.889 -0.171,-0.102 -0.324,-0.252 -0.45,-0.409 -0.308,-0.378 -0.682,-0.708 -1.114,-0.878 -2.39,-0.94 -4.216,-2.826 -6.546,-3.858 -0.85,-0.377 -1.569,-0.973 -2.269,-1.552 -1.429,-1.182 -3.102,-1.651 -4.871,-1.838 -1.442,-0.151 -2.896,-0.353 -4.35,0.019 -0.374,0.096 -0.714,0.185 -0.993,0.461 -0.7,0.693 -1.423,1.363 -2.103,2.076 -0.496,0.52 -0.666,1.242 -0.994,1.862 -1.574,2.978 -1.038,5.904 0.382,8.78 0.44,0.89 1.037,1.662 1.622,2.458 1.147,1.561 2.102,3.25 2.897,5.023 0.111,0.248 0.196,0.518 0.356,0.732 1.273,1.718 1.89,3.752 2.755,5.668 0.361,0.801 0.796,1.574 1.243,2.335 0.826,1.411 1.775,2.735 2.957,3.877 0.221,0.215 0.465,0.423 0.538,0.73 0.299,1.252 1.137,2.178 2.014,2.999 0.975,0.913 1.546,2.045 2.189,3.156 0.118,0.204 0.181,0.473 0.351,0.61 0.754,0.609 0.924,1.567 1.417,2.333 0.515,0.801 0.012,2.212 -0.929,2.742 -0.852,0.479 -1.736,0.935 -2.744,1.036 -0.2,0.019 -0.411,0.062 -0.588,0.153 -2.172,1.11 -4.556,1.247 -6.909,1.505 -1.015,0.111 -1.962,-0.308 -2.837,-0.706 -0.734,-0.333 -1.477,-0.665 -2.202,-1.024 -1.249,-0.619 -2.341,-1.483 -3.437,-2.332 -1.533,-1.19 -2.935,-2.539 -4.252,-3.952 -1.003,-1.075 -2.055,-2.201 -2.216,-3.804 -0.012,-0.128 -0.076,-0.273 -0.162,-0.366 -0.728,-0.795 -0.807,-1.846 -1.141,-2.8 -0.909,-2.595 -0.664,-5.273 -0.378,-7.885 0.23,-2.108 0.628,-4.236 1.279,-6.288 0.163,-0.516 0.248,-1.061 0.324,-1.599 0.306,-2.184 0.541,-4.381 0.904,-6.554 0.347,-2.08 0.444,-4.189 0.84,-6.263 0.218,-1.139 0.126,-2.306 -0.143,-3.445 -0.128,-0.539 -0.348,-1.019 -0.754,-1.419 -0.816,-0.805 -1.41,-0.93 -2.364,-0.331 -1.352,0.847 -2.307,2.015 -2.936,3.514 -0.803,1.909 -1.177,3.892 -1.284,5.93 -0.066,1.242 -0.508,2.387 -0.749,3.582 -0.074,0.372 -0.118,0.724 -0.089,1.104 0.074,0.979 0.173,1.964 0.13,2.941 -0.044,1.019 -0.243,2.022 -1.177,2.693 -0.45,0.324 -0.683,0.841 -0.965,1.305 -0.225,0.369 -0.105,0.717 0.384,1.224 -0.679,-0.273 -1.055,-0.225 -1.216,0.252 -0.197,0.59 -0.634,1.149 -0.255,1.823 0.093,0.165 0.088,0.354 -0.075,0.454 -0.684,0.42 -0.555,1.188 -0.762,1.802 -0.082,0.245 -0.087,0.545 -0.23,0.765 -0.647,0.995 -0.991,2.132 -1.386,3.221 -0.479,1.323 -1.145,2.61 -1.263,4.05 -0.031,0.384 -0.063,0.744 -0.387,1.009 -0.076,0.062 -0.156,0.154 -0.177,0.246 -0.427,1.805 -2.019,2.842 -2.876,4.364 -0.754,0.371 -1.318,1.07 -2.386,0.792 -1.517,-0.396 -2.982,-0.939 -4.439,-1.478 -0.929,-0.343 -1.842,-0.862 -2.6,-1.563 -0.202,-0.188 -0.43,-0.322 -0.687,-0.428 -0.248,-0.101 -0.529,-0.207 -0.703,-0.394 -1.641,-1.762 -3.728,-2.927 -5.7,-4.231 -1.109,-0.733 -2.141,-1.558 -3.192,-2.358 -2.024,-1.543 -4.078,-3.051 -5.998,-4.726 -0.436,-0.379 -0.869,-0.765 -1.264,-1.184 -0.863,-0.915 -1.903,-1.647 -2.765,-2.54 -1.179,-1.22 -2.497,-2.289 -3.652,-3.524 -0.81,-0.868 -1.537,-1.813 -2.297,-2.727 C 59.621,74.841 59.404,74.577 59.212,74.297 58.235,72.864 57.26,71.43 56.297,69.986 55.542,68.854 54.971,67.629 54.392,66.396 53.759,65.047 53.118,63.691 52.383,62.391 52.008,61.726 51.782,61.033 51.685,60.278 51.159,56.193 50.42,52.152 49.263,48.191 48.813,46.653 48.726,45.043 48.546,43.455 48.512,43.152 48.527,42.828 48.422,42.551 47.922,41.233 47.687,39.862 47.563,38.473 47.499,37.745 47.293,37.081 46.99,36.429 46.561,35.506 46.151,34.573 45.735,33.644 45.413,32.923 44.87,32.345 44.461,31.69 43.667,30.421 42.562,29.525 41.464,28.556 39.443,26.771 37.303,25.202 34.963,23.858 33.705,23.135 32.458,22.37 31.228,21.588 31.029,21.461 30.815,21.342 30.591,21.272 29.083,20.8 27.742,19.983 26.411,19.17 24.605,18.068 22.62,17.322 20.797,16.258 20.27,15.949 19.716,15.681 19.22,15.323 18.06,14.486 16.884,13.685 15.571,13.094 15.174,12.915 14.8,12.649 14.471,12.361 13.175,11.226 11.9,10.065 10.555,8.857 10.937,8.62 11.18,8.77 11.371,8.919 c 0.506,0.395 1.095,0.684 1.524,1.185 0.173,0.203 0.399,0.38 0.635,0.503 1.536,0.805 2.992,1.748 4.57,2.488 0.713,0.335 1.469,0.677 2.079,1.226 0.075,0.069 0.152,0.168 0.24,0.184 1.062,0.179 1.745,1.025 2.644,1.486 2.055,1.053 4.091,2.146 6.176,3.132 2.298,1.087 4.645,2.068 6.965,3.108 0.525,0.237 1.046,0.496 1.536,0.796 1.845,1.133 3.981,1.549 5.924,2.439 0.308,0.141 0.635,0.245 0.933,0.404 1.435,0.764 2.851,1.565 4.298,2.305 1.056,0.539 2.164,0.945 3.329,1.225 0.637,0.154 1.211,0.558 1.853,0.781 0.922,0.32 1.825,0.72 2.687,1.178 0.424,0.226 0.862,0.078 1.277,0.27 0.794,0.368 1.646,0.614 2.433,0.995 0.836,0.404 1.73,0.607 2.609,0.832 1.379,0.351 2.706,0.845 4.039,1.246 0.046,0.245 -0.268,0.265 -0.184,0.525 0.293,0.085 0.612,0.239 0.938,0.256 0.398,0.021 0.711,0.077 0.957,0.438 0.312,0.461 0.915,0.323 1.364,0.582 0.815,0.469 1.768,0.668 2.698,0.868 0.205,0.045 0.403,0.015 0.584,-0.11 0.149,-0.103 0.335,-0.158 0.469,-0.016 0.625,0.66 1.535,0.792 2.303,0.993 1.492,0.392 2.835,1.162 4.373,1.453 1.057,0.201 2.157,0.485 3.135,1.1 0.614,0.385 1.399,0.515 2.121,0.7 0.824,0.21 1.642,0.427 2.442,0.72 0.761,0.279 1.579,0.29 2.361,0.571 1.306,0.468 2.582,1.047 3.97,1.289 2.944,0.514 5.825,1.335 8.794,1.758 1.118,0.159 2.31,0.194 3.343,0.793 0.222,0.129 0.464,0.054 0.698,0.077 1.216,0.123 2.423,0.323 3.605,0.622 0.89,0.225 1.824,0.251 2.68,0.611 1.53,-0.291 3.017,0.21 4.524,0.297 1.297,0.074 2.661,-0.028 3.9,0.569 0.081,0.039 0.217,0.05 0.29,0.008 0.443,-0.253 0.678,-0.217 0.656,0.374 -0.007,0.164 0.193,0.275 0.384,0.264 0.235,-0.013 0.197,-0.185 0.234,-0.361 0.126,-0.602 0.334,-0.755 0.913,-0.566 0.6,0.195 1.196,0.253 1.81,0.211 0.405,-0.028 0.697,0.217 1.037,0.367 0.559,0.245 1.139,0.737 1.714,-0.016 0.096,-0.125 0.358,-0.082 0.471,0.033 0.186,0.191 -0.294,0.285 -0.111,0.522 0.247,0.112 0.442,-0.098 0.668,-0.135 0.234,-0.038 0.533,-0.199 0.688,-0.108 0.714,0.42 1.598,0.169 2.286,0.636 0.27,0.184 0.58,0.188 0.887,0.144 0.504,-0.072 1.014,-0.128 1.508,-0.248 0.514,-0.124 0.977,-0.201 1.447,0.166 0.461,0.359 1.052,0.17 1.58,0.224 0.706,0.072 1.436,0.041 2.112,-0.214 0.38,-0.144 0.705,-0.194 1.066,0.017 0.139,0.08 0.346,0.16 0.481,0.115 1.099,-0.368 2.15,-0.067 3.232,0.125 0.822,0.146 1.685,0.081 2.525,0.08 0.497,0 0.993,-0.184 1.487,0.043 0.03,0.014 0.069,0.026 0.1,0.018 1.386,-0.338 2.801,0.184 4.189,-0.14 0.21,-0.048 0.459,-0.065 0.323,-0.351 -0.225,-0.476 0.168,-0.563 0.417,-0.622 0.57,-0.135 1.151,-0.104 1.691,0.174 0.144,0.074 0.311,0.292 0.441,0.158 0.716,-0.742 1.569,-0.284 2.363,-0.309 0.204,-0.006 0.42,0.067 0.609,0.017 1.992,-0.525 4.084,-0.697 5.956,-1.644 0.431,-0.217 0.859,-0.395 1.337,-0.464 0.533,-0.076 0.925,-0.38 1.262,-0.783 0.136,-0.162 0.286,-0.309 0.195,-0.534 -0.097,-0.24 -0.295,-0.368 -0.549,-0.4 -0.28,-0.036 -0.54,0.061 -0.791,0.164 -0.629,0.257 -1.257,0.521 -1.877,0.798 -0.407,0.181 -0.808,0.357 -1.271,0.298 -0.131,-0.016 -0.328,-0.04 -0.394,0.033 -0.722,0.78 -1.706,0.593 -2.588,0.672 -1.653,0.149 -3.317,0.179 -4.976,0.272 -0.441,0.024 -0.882,0.072 -1.317,0.149 -1.813,0.321 -3.669,0.062 -5.476,0.378 -1.664,0.291 -3.323,0.071 -4.983,0.11 -0.169,0.005 -0.346,-0.002 -0.508,-0.045 -1.72,-0.465 -3.493,-0.473 -5.252,-0.612 -0.684,-0.053 -1.358,0.035 -2.037,0.053 -2.112,0.059 -4.207,-0.14 -6.308,-0.329 -1.826,-0.164 -3.634,-0.579 -5.458,-0.561 -1.327,0.014 -2.647,-0.062 -3.97,-0.066 -3.485,-0.013 -6.894,-0.648 -10.291,-1.359 -3.06,-0.64 -6.129,-1.234 -9.187,-1.879 -1.33,-0.28 -2.656,-0.597 -3.961,-0.976 -0.928,-0.269 -1.87,-0.35 -2.818,-0.384 -0.377,-0.012 -0.665,-0.084 -0.883,-0.381 -0.264,-0.361 -0.636,-0.401 -1.05,-0.496 -0.882,-0.201 -1.803,-0.271 -2.647,-0.574 -1.474,-0.527 -3.005,-0.859 -4.478,-1.373 -2.116,-0.737 -4.197,-1.564 -6.274,-2.409 -2.103,-0.855 -4.257,-1.63 -6.461,-2.218 -2.079,-0.554 -4.009,-1.503 -6.002,-2.279 -0.696,-0.272 -1.417,-0.469 -2.117,-0.694 -2.95,-0.949 -5.787,-2.177 -8.655,-3.33 -1.01,-0.407 -2.028,-0.783 -3.089,-1.047 -0.49,-0.122 -0.961,-0.343 -1.423,-0.559 -3.168,-1.482 -6.4,-2.827 -9.552,-4.351 -1.49,-0.72 -3.077,-1.265 -4.618,-1.897 C 33.469,19.184 29.841,17.476 26.298,15.599 25.012,14.918 23.762,14.122 22.458,13.496 20.761,12.682 19.314,11.493 17.643,10.645 16.231,9.929 14.947,8.941 13.53,8.21 12.523,7.689 11.634,7.028 10.76,6.318 8.462,4.453 6.265,2.474 4.061,0.5 2.621,-0.79 1.078,-1.964 -0.393,-3.221 -1.579,-4.234 -2.69,-5.326 -4.006,-6.195 c -0.665,-0.44 -1.2,-1.106 -1.72,-1.732 -1.768,-2.126 -3.922,-3.861 -5.846,-5.828 -0.86,-0.88 -1.491,-1.939 -2.33,-2.831 -0.092,-0.099 -0.157,-0.223 -0.241,-0.329 -0.272,-0.346 -0.529,-0.817 -1.024,-0.723 -0.53,0.103 -0.328,0.667 -0.43,1.034 -0.054,0.196 -0.072,0.402 -0.111,0.602 -0.086,0.444 0.011,0.792 0.441,1.032 0.708,0.396 1.18,1.019 1.536,1.73 0.2,0.398 0.461,0.741 0.75,1.082 0.704,0.832 1.356,1.715 1.839,2.691 0.61,1.235 1.373,2.348 2.33,3.329 1.117,1.146 1.977,2.505 3.093,3.659 0.401,0.414 0.847,0.773 1.245,1.188 1.339,1.397 2.664,2.801 3.942,4.258 1.613,1.84 3.451,3.472 5.425,4.928 1.1,0.81 2,1.834 3.055,2.688 0.429,0.348 0.907,0.604 1.365,0.884 1.334,0.819 2.556,1.796 3.849,2.662 1.176,0.789 2.546,1.292 3.838,1.905 0.4,0.191 0.785,0.385 1.131,0.675 0.601,0.505 1.267,0.91 1.997,1.218 0.405,0.171 0.831,0.354 1.158,0.636 0.847,0.731 1.884,1.067 2.87,1.52 1.851,0.85 3.653,1.796 5.418,2.818 1.291,0.748 2.555,1.541 3.894,2.215 1.544,0.777 2.986,1.749 4.483,2.61 1.356,0.777 2.222,1.968 3.244,3.041 0.215,0.225 0.473,0.455 0.051,0.837 -0.429,0.389 0.029,0.86 0.3,1 1.372,0.712 1.878,2.075 2.614,3.267 0.355,0.575 0.791,1.117 1.045,1.733 0.282,0.684 0.475,1.426 0.572,2.162 0.198,1.487 0.697,2.904 0.945,4.379 0.152,0.904 0.311,1.798 0.326,2.72 0.02,1.168 0.478,2.255 0.725,3.382 0.475,2.157 1.008,4.302 1.468,6.462 0.169,0.792 0.063,1.62 0.176,2.434 0.084,0.606 0.153,1.209 0.314,1.8 0.196,0.721 0.381,1.439 0.43,2.196 0.055,0.869 0.488,1.626 0.947,2.34 0.244,0.377 0.467,0.754 0.576,1.183 0.156,0.615 0.36,1.175 1.022,1.42 0.128,0.048 0.264,0.132 0.25,0.289 -0.109,1.159 0.59,1.93 1.265,2.728 0.26,0.307 0.436,0.684 0.665,1.019 0.53,0.779 1.042,1.557 1.816,2.151 0.841,0.645 1.278,1.654 1.959,2.454 0.282,0.33 0.519,0.705 0.831,1.021 1.334,1.354 2.685,2.69 4.068,3.994 0.634,0.599 1.053,1.42 1.799,1.908 0.864,0.565 1.626,1.252 2.29,2.017 1.057,1.217 2.332,2.112 3.639,3.034 1.844,1.301 3.514,2.848 5.269,4.277 0.633,0.515 1.293,1.005 2.041,1.343 1.472,0.668 2.586,1.873 3.994,2.635 0.279,0.151 0.396,0.457 0.539,0.729 0.314,0.594 0.756,1.013 1.427,1.22 0.653,0.202 1.24,0.559 1.734,1.045 1.147,1.127 2.656,1.454 4.127,1.822 0.787,0.196 1.619,0.2 2.424,0.331 0.907,0.147 1.748,-0.036 2.59,-0.364 1.072,-0.417 2.095,-0.944 3.246,-1.198 0.591,-0.13 1.088,-0.691 1.682,-1.096"
             style="fill:#cbd8d8;fill-opacity:1;fill-rule:nonzero;stroke:none"
             id="path72" />
        </g>
        <g
           id="g74"
           transform="translate(246.2236,155.8467)">
          <path
             d="M 0,0 C -1.037,-0.349 -2.084,-0.369 -3.122,-0.441 -3.727,-0.484 -4.34,-0.394 -4.929,-0.626 -5.118,-0.701 -5.333,-0.672 -5.517,-0.558 -5.77,-0.399 -5.826,-0.21 -5.591,0.016 -5.409,0.19 -5.187,0.25 -4.94,0.252 -4.057,0.261 -3.17,0.31 -2.293,0.167 -2.065,0.13 -1.908,0.26 -1.717,0.306 -1.106,0.45 -0.529,0.35 0,0"
             style="fill:#cbd8d8;fill-opacity:1;fill-rule:nonzero;stroke:none"
             id="path76" />
        </g>
        <g
           id="g78"
           transform="translate(233.668,151.4756)">
          <path
             d="M 0,0 C -0.302,0.631 -0.145,0.932 0.146,1.117 0.727,1.49 1.341,1.811 2.133,2.262 1.536,1.235 0.506,1.009 0,0"
             style="fill:#cbd8d8;fill-opacity:1;fill-rule:nonzero;stroke:none"
             id="path80" />
        </g>
        <g
           id="g82"
           transform="translate(237.8105,154.8506)">
          <path
             d="M 0,0 C 0.344,0.254 0.666,0.549 1.039,0.747 1.304,0.886 1.738,1.118 1.895,0.694 2.009,0.385 1.605,0.225 1.315,0.132 1.19,0.091 1.05,0.101 0.921,0.067 0.64,-0.005 0.361,-0.089 0.081,-0.169 0.055,-0.112 0.027,-0.057 0,0"
             style="fill:#cbd8d8;fill-opacity:1;fill-rule:nonzero;stroke:none"
             id="path84" />
        </g>
        <g
           id="g86"
           transform="translate(233.7959,26.1895)">
          <path
             d="m 0,0 c -7.655,1.987 -15.082,6.004 -18.566,13.445 -1.842,3.935 -2.83,8.276 -3.954,12.455 -1.233,4.587 -2.318,9.204 -2.911,13.922 -0.25,1.993 -0.65,-0.973 -0.566,-1.639 0.62,-4.934 1.746,-9.774 3.036,-14.571 1.167,-4.341 2.194,-8.868 4.108,-12.955 C -15.268,3 -7.826,-1.167 0.079,-3.219 0.32,-3.282 0.718,-0.187 0,0"
             style="fill:#cbd8d8;fill-opacity:1;fill-rule:nonzero;stroke:none"
             id="path88" />
        </g>
        <g
           id="g90"
           transform="translate(250.2285,30.3789)">
          <path
             d="m 0,0 c -3.442,0.117 -6.095,2.308 -8.263,4.811 -2.244,2.588 -4.197,5.483 -5.862,8.473 -3.703,6.652 -6.058,14.327 -4.641,21.955 0.112,0.596 0.269,1.732 -0.055,2.277 -0.217,0.364 -0.36,0.723 -0.497,-0.013 -1.497,-8.057 -0.138,-16.363 3.267,-23.773 1.745,-3.797 3.981,-7.378 6.56,-10.665 2.406,-3.067 5.434,-6.143 9.57,-6.285 C 0.537,-3.235 0.572,-0.02 0,0"
             style="fill:#cbd8d8;fill-opacity:1;fill-rule:nonzero;stroke:none"
             id="path92" />
        </g>
        <g
           id="g94"
           transform="translate(327.666,41.2188)">
          <path
             d="m 0,0 c -5.361,0.732 -10.638,1.95 -15.756,3.715 -4.975,1.716 -10.08,3.79 -14.265,7.044 -7.751,6.027 -10.338,15.884 -12.561,24.981 -0.166,0.681 -0.294,0.372 -0.497,-0.012 -0.279,-0.53 -0.081,-1.716 0.056,-2.277 2.225,-9.106 4.781,-19.103 12.328,-25.348 C -26.669,4.77 -21.668,2.65 -16.796,0.89 -11.332,-1.085 -5.675,-2.434 0.079,-3.219 0.439,-3.269 0.648,-0.088 0,0"
             style="fill:#cbd8d8;fill-opacity:1;fill-rule:nonzero;stroke:none"
             id="path96" />
        </g>
      </g>
    </g>
  </g>
</svg>
