<?xml version="1.0" encoding="UTF-8"?>
<svg id="Layer_2" data-name="Layer 2" xmlns="http://www.w3.org/2000/svg" viewBox="0 0 352.03 352.03">
  <defs>
    <style>
      .cls-1 {
        fill: #c0d7d8;
      }

      .cls-1, .cls-2 {
        stroke-width: 0px;
      }

      .cls-2 {
        fill: #f7f7f7;
      }
    </style>
  </defs>
  <g id="Layer_1-2" data-name="Layer 1">
    <g>
      <circle class="cls-1" cx="176.02" cy="176.02" r="176.02"/>
      <g>
        <g>
          <path class="cls-2" d="m246.5,206.63c-.06.17-.16.36-.31.6s-.31.47-.47.7c-.17.23-.32.46-.47.68s-.27.41-.35.58c-.44.52-.98,1.11-1.63,1.75-.65.65-1.35,1.28-2.1,1.9-.76.62-1.54,1.19-2.35,1.71-.81.52-1.59.91-2.33,1.15-.85.3-1.71.59-2.58.87-.87.27-1.82.32-2.86.12-.14-.03-.3-.07-.47-.12-.18-.06-.35-.11-.52-.17-.82-.22-1.5-.51-2.04-.89-.54-.37-1.01-.89-1.42-1.55-.17-.3-.34-.61-.52-.93-.18-.32-.29-.69-.35-1.13-.06-.58-.01-1.12.12-1.63.14-.51.3-.97.5-1.38.39-.74.84-1.35,1.38-1.81.54-.47,1.2-.91,2-1.32.17-.08.34-.18.51-.29.18-.11.35-.18.51-.21.25-.03.43,0,.56.1.12.1.34.09.64-.02.17.22.4.37.7.45.3.08.59.22.86.41l.37.41c.08.06.16.1.23.14.07.04.13.1.19.19.08.14.14.3.18.49.04.19.03.37-.02.54-.14.06-.27.11-.39.17s-.25.11-.39.17c-.25-.08-.43-.24-.54-.47s-.25-.45-.41-.64c-.47-.14-.93-.08-1.38.16-.45.25-.83.48-1.13.7-.3.19-.6.41-.91.66-.3.25-.58.48-.82.7-.19.44-.4.91-.62,1.42-.22.51-.3,1.05-.25,1.63.06.47.2.87.43,1.22.23.34.51.62.84.84.55.25,1.11.39,1.69.41.58.03,1.16-.01,1.73-.12.58-.11,1.13-.26,1.67-.45.54-.19,1.05-.38,1.55-.58.83-.3,1.7-.76,2.64-1.38.93-.62,1.85-1.29,2.76-2.02.91-.73,1.75-1.47,2.53-2.23.78-.76,1.42-1.42,1.92-2,.22.06.39.05.5-.02.11-.07.25-.1.41-.1.14.03.18.08.12.14s-.11.13-.17.19c.06.08.11.12.17.1s.08.03.08.14Z"/>
          <path class="cls-2" d="m250.33,210.13c-.36.52-.8,1.09-1.32,1.71-.52.62-1.05,1.17-1.57,1.67-.41.41-.84.83-1.28,1.26-.44.43-.96.75-1.57.97-.3.11-.58.12-.84.02-.26-.1-.5-.19-.72-.27-.49-.19-.85-.59-1.07-1.2-.25-.19-.4-.45-.47-.78-.07-.33-.09-.68-.06-1.05.03-.37.09-.73.18-1.09.1-.36.19-.67.27-.95.63-1.37,1.47-2.52,2.52-3.42,1.04-.91,2.23-1.68,3.54-2.31.11.06.21.08.31.06s.2,0,.31.06c.05.03.11.06.16.1.06.04.11.08.17.1.14.06.3.1.47.12.18.03.34.07.48.12.19.06.34.17.45.33s.23.29.37.37c.06.06.07.1.04.12-.03.03-.04.07-.04.12.41-.22.89-.27,1.44-.14.55.12.91.38,1.07.76.19.44.22.96.08,1.57-.14.6-.29,1.13-.45,1.57-.08.22-.18.43-.29.64s-.21.42-.29.64c-.08.25-.16.5-.23.76-.07.26-.16.52-.27.76-.08.22-.17.46-.25.72-.08.26-.13.53-.15.8-.01.28,0,.53.06.76.06.23.18.42.37.56.41.14.8.14,1.17,0s.75-.3,1.13-.5c.74-.33,1.42-.66,2.04-.99.62-.33,1.2-.73,1.75-1.2.82-.71,1.61-1.37,2.35-1.98s1.47-1.26,2.18-1.98c.11-.17.21-.27.29-.33.08-.05.22-.15.41-.29.06-.22.21-.38.47-.49s.54-.34.84-.7c.17-.19.32-.37.45-.54.14-.17.37-.21.7-.12-.03.14.03.21.17.21.03.14.03.18,0,.12-.03-.06-.06-.03-.08.08.08.08.14.16.17.23.03.07.11.12.25.14-.06.3-.19.52-.41.64-.22.12-.43.27-.62.43-.06.06-.12.12-.19.21-.07.08-.1.17-.1.25-.5.63-.99,1.2-1.48,1.71s-.99,1-1.48,1.46c-.5.47-1,.93-1.52,1.4-.52.47-1.07.99-1.65,1.57-.41.28-.83.56-1.24.85-.41.29-.85.56-1.32.8-.39.08-.74.2-1.05.35s-.67.28-1.05.39c-.03,0-.04.04-.04.12-.3-.03-.64-.05-1.01-.06-.37-.01-.71-.09-1.01-.23-.44-.19-.8-.41-1.09-.66-.29-.25-.54-.6-.76-1.07-.22-.39-.35-.81-.39-1.28-.04-.47-.04-.93,0-1.4.04-.47.12-.93.25-1.38.12-.45.27-.87.43-1.26Zm-5.4,2.43c.82-.8,1.59-1.65,2.31-2.56.72-.91,1.43-1.81,2.14-2.72-.03-.19-.07-.37-.12-.54-.06-.17-.11-.34-.17-.54-.14.08-.3.14-.49.17-.19.03-.36.1-.5.21-.08.06-.14.12-.18.21-.04.08-.1.15-.19.21-.08.06-.18.11-.29.17-.11.06-.21.11-.29.17-.39.25-.72.49-1.01.74-.29.25-.58.52-.89.82-.19.22-.36.42-.5.6-.14.18-.26.38-.37.6l-.17.25-.17.25c-.52.88-.83,1.99-.91,3.34.36-.14.67-.33.95-.58.28-.25.55-.51.83-.78Z"/>
          <path class="cls-2" d="m267.81,210.13c-.28.52-.59,1.01-.95,1.46-.36.45-.67.95-.95,1.5-.11.19-.2.38-.27.56-.07.18-.16.36-.27.56-.06.14-.14.25-.25.35-.11.1-.21.21-.29.35-.08.14-.14.28-.19.41-.04.14-.1.28-.18.41-.11.22-.26.42-.43.6-.18.18-.31.38-.39.6-.17.17-.38.28-.64.35-.26.07-.53,0-.8-.23-.06-.06-.1-.12-.12-.21-.03-.08-.07-.17-.12-.25-.14-.14-.26-.26-.37-.37s-.17-.23-.17-.37c-.03-.14,0-.26.1-.37.1-.11.17-.22.23-.33,0-.93.16-1.79.47-2.58.32-.78.62-1.55.93-2.29.71-1.79,1.5-3.49,2.37-5.11.87-1.62,1.77-3.22,2.7-4.78l2.02-3.55.66-1.2c.47-.8.93-1.59,1.38-2.39.45-.8.9-1.59,1.34-2.39.27-.25.51-.51.72-.78.21-.27.46-.52.76-.74.36.06.6-.01.74-.21.17.08.32.09.47.02.15-.07.29-.09.43-.06.22,0,.41.08.58.23.17.15.3.3.41.43-.08.11-.11.23-.08.35.03.12.03.23,0,.31-.03.11-.08.2-.14.27-.07.07-.12.14-.15.23-.06.11-.07.22-.06.33.01.11,0,.22-.06.33-.06.14-.13.27-.23.39s-.17.25-.23.39c-.03.06-.03.11-.02.17.01.06.02.11.02.17-.03.06-.06.12-.1.21s-.09.15-.14.21l-.12.5c-.11.17-.23.32-.37.45-.14.14-.25.29-.33.45-.14.25-.24.52-.31.82s-.17.58-.31.82c-.08.14-.18.28-.29.41-.11.14-.21.28-.29.41-.3.41-.58.86-.83,1.34-.25.48-.52.94-.82,1.38-.22.3-.45.58-.7.83-.25.25-.45.52-.62.82-.39.58-.82,1.07-1.3,1.48-.48.41-.9.93-1.26,1.57-.11.08-.26.24-.43.47-.18.23-.3.41-.35.52-.25.19-.41.37-.49.54-.08.16-.23.34-.45.54-.39.5-.72,1.04-.99,1.63-.28.59-.52,1.24-.74,1.96.63-.82,1.32-1.66,2.06-2.52.74-.85,1.54-1.63,2.39-2.35.22-.16.43-.33.64-.49s.45-.32.72-.45c.22-.11.43-.22.62-.33.19-.11.44-.23.74-.37.3-.11.61-.22.93-.33s.71-.14,1.17-.08c.08,0,.17.02.25.06s.18.06.29.06c.17.03.34.04.52.04s.34.07.47.21c.11.3.21.57.31.8.1.23.07.53-.06.89-.06.22-.12.37-.18.45-.07.08-.16.21-.27.37-.06.08-.1.17-.12.27-.03.1-.07.17-.12.23-.03.06-.08.1-.14.14-.07.04-.13.09-.19.14-.22.25-.45.5-.7.76-.25.26-.52.49-.83.68l-.37.21c-.14.08-.24.16-.31.23-.07.07-.2.1-.39.1-.39.22-.79.39-1.22.49-.43.11-.84.25-1.26.41-.11-.06-.23-.1-.37-.12-.14-.03-.28-.01-.41.04.11.25.23.43.37.56.14.12.23.3.29.51.08.25.12.5.12.74s.03.48.08.7c.14.5.37,1,.7,1.51.33.51.71.87,1.15,1.09.11.06.24.11.39.16.15.06.29.11.43.17.27.11.54.19.78.25s.54.06.87,0c.63-.14,1.24-.36,1.81-.66.58-.3,1.15-.63,1.73-.99,1.16-.71,2.16-1.46,3.01-2.25.85-.78,1.7-1.67,2.56-2.66.17-.22.35-.45.56-.68s.42-.46.64-.68c.19-.22.44-.47.74-.76s.52-.45.66-.47c.14,0,.27.06.39.17.12.11.25.16.39.16.06.14.03.23-.06.27-.1.04-.12.1-.06.19.08.11.17.16.27.14.1-.01.21,0,.35.06l.04.04v.08c-.11.28-.26.49-.45.66-.19.17-.37.34-.54.54-.44.8-.98,1.53-1.63,2.21-.65.67-1.31,1.31-2,1.92-.3.25-.61.49-.91.72-.3.23-.62.46-.95.68s-.65.45-.97.7c-.32.25-.64.45-.97.62-.61.33-1.29.61-2.04.84-.76.23-1.53.36-2.33.39-.96.03-1.81-.16-2.56-.56-.74-.4-1.41-.9-2.02-1.5-.39-.38-.73-.85-1.03-1.4-.3-.55-.54-1.1-.7-1.65-.06-.22-.11-.54-.17-.97s-.17-.67-.33-.72c-.17-.06-.26,0-.29.14-.03.15-.11.24-.25.27Zm7.05-5.69c-.72.22-1.33.51-1.86.87-.52.36-1.03.74-1.52,1.15-.36.3-.7.61-1.03.91-.33.3-.65.63-.95.99,1.26-.33,2.36-.81,3.3-1.44.94-.63,1.66-1.47,2.18-2.51-.06,0-.1.01-.12.04Zm-.33-12.65c-.06.14-.1.28-.14.43-.04.15-.1.3-.19.43l-.45.5c-.14.22-.24.43-.31.64-.07.21-.16.42-.27.64-.08.14-.18.28-.31.41-.12.14-.23.28-.31.41-.06.14-.1.28-.14.43-.04.15-.1.31-.19.47-.14.3-.28.59-.43.87-.15.28-.29.56-.43.87-.14.3-.27.6-.39.91-.12.3-.26.59-.39.87.61-.74,1.17-1.59,1.69-2.54.52-.95,1.02-1.86,1.49-2.74.3-.55.62-1.11.97-1.69.34-.58.6-1.2.76-1.85-.17.14-.34.29-.51.45-.18.17-.32.33-.43.5Z"/>
          <path class="cls-2" d="m305.98,206.54c.11.06.15.12.12.21-.03.08,0,.19.08.33.08.03.1.08.04.17s-.14.17-.25.27c-.11.1-.23.19-.37.29-.14.1-.25.19-.33.27-.11.14-.23.32-.35.54s-.26.44-.41.66c-.15.22-.32.42-.51.6-.19.18-.39.31-.58.39-.16.06-.32.21-.47.47-.15.26-.32.47-.51.64-.5.47-.95.87-1.36,1.22-.41.34-.88.69-1.4,1.05-.25.19-.52.35-.83.47-.3.12-.56.25-.78.39-.61.33-1.18.6-1.73.8-.55.21-1.05.34-1.48.39-.5.08-1.01.17-1.55.27-.54.1-1.05.17-1.55.23-.96.03-1.76-.1-2.39-.37-.63-.27-1.22-.63-1.77-1.07-.47-.38-.97-.8-1.51-1.24s-.89-.98-1.05-1.61c-.14-.55-.17-1.09-.1-1.61.07-.52.19-1.01.37-1.46.18-.45.4-.88.66-1.28.26-.4.52-.76.76-1.09.14-.16.24-.33.31-.49s.13-.32.19-.45c.19-.22.42-.4.68-.54.26-.14.45-.32.56-.54.36-.08.62-.23.78-.45.17-.22.36-.44.58-.66.3-.03.54-.11.7-.25.17-.14.4-.23.7-.29.08,0,.16.03.23.08.07.06.16.08.27.08.52-.08,1.01-.06,1.46.06.45.12.8.35,1.05.68-.03.55-.06,1.11-.1,1.67s-.09,1.08-.14,1.55c-.5.88-1.13,1.61-1.9,2.18-.77.58-1.54,1.18-2.31,1.81-.33.11-.71.21-1.13.29s-.83.19-1.22.33c.03.55.15.94.37,1.17s.51.5.87.8c.3.3.64.53,1.03.68.39.15.92.21,1.61.19.96-.06,1.92-.21,2.89-.47.96-.26,1.88-.58,2.76-.97.17-.03.4-.13.72-.31.32-.18.65-.37.99-.58.34-.21.64-.41.91-.6.26-.19.42-.33.47-.41.03-.06.16-.19.39-.39.23-.21.51-.45.82-.72.32-.27.64-.57.97-.89s.62-.6.87-.85c.38-.41.78-.78,1.17-1.09.4-.32.64-.57.72-.76.22-.11.43-.21.64-.29s.32.08.35.49Zm-17.44.91c-.06.28-.12.5-.19.68-.07.18-.13.35-.18.51-.06.17-.12.34-.21.52-.08.18-.17.39-.25.64.66-.33,1.27-.76,1.81-1.28.55-.52,1.06-1.06,1.53-1.61.14-.14.26-.25.37-.35.11-.1.21-.21.29-.35.22-.33.34-.69.35-1.09.01-.4.09-.76.23-1.09-.55.06-1.01.26-1.38.62-.37.36-.73.69-1.09.99-.22.06-.32.15-.31.29.01.14-.05.28-.19.41-.17.3-.32.52-.47.66-.15.14-.25.29-.31.45Z"/>
          <path class="cls-2" d="m319.01,208.89c.11-.03.16-.01.14.04s-.21.21-.6.45c-.03,0-.09.01-.18.04-.1.03-.2.06-.31.08-.11.14-.23.24-.37.31-.14.07-.27.13-.41.19-.82.47-1.62.8-2.37.99-.76.19-1.56.44-2.41.74-.3.11-.59.19-.87.23-.28.04-.52.16-.74.35.06.14.11.23.17.29s.09.1.1.14c.01.04.02.1.02.19s-.01.23-.04.45c-.08.58-.27,1.11-.56,1.59-.29.48-.62.91-1.01,1.3s-.8.73-1.24,1.05-.85.61-1.24.89c-.25.03-.53.13-.85.31s-.61.3-.89.35c-.06.03-.08.01-.06-.04.01-.06,0-.08-.06-.08-.47.06-.95.13-1.44.23-.49.1-.89-.02-1.19-.35-.17-.19-.36-.45-.58-.78s-.4-.63-.54-.91c-.08-.17-.16-.29-.23-.37-.07-.08-.05-.23.06-.45.14-.25.32-.5.56-.76.23-.26.46-.52.68-.76.36-.38.75-.71,1.17-.99.43-.27.87-.52,1.34-.74.47-.22.95-.43,1.44-.62.5-.19.99-.4,1.48-.62-.22-.3-.47-.7-.76-1.2-.29-.5-.56-.89-.8-1.2-.14-.14-.24-.29-.31-.45-.07-.17-.15-.36-.23-.58-.11-.19-.21-.45-.31-.76-.1-.32-.16-.57-.19-.76-.03-.25,0-.49.08-.72.08-.23.2-.47.35-.7.15-.23.32-.44.5-.62.18-.18.35-.32.51-.43.14-.14.31-.23.52-.29.21-.05.42-.14.64-.25.5-.27.99-.52,1.49-.74.49-.22,1.07-.36,1.73-.41.11.11.22.24.33.39.11.15.27.2.5.14.08.06.15.12.21.21s.15.14.29.17c-.06.14-.05.3.02.47.07.18.13.3.18.35-.03.06-.07.1-.14.14-.07.04-.09.12-.06.23-.08,0-.14.04-.18.12-.04.08-.09.11-.14.08-.11.06-.17.05-.19-.02-.01-.07-.06-.09-.14-.06-.14-.03-.31-.03-.52,0-.21.03-.38.06-.51.08-.5.14-1.01.32-1.55.56-.54.23-.94.5-1.22.8-.06.06-.1.13-.14.23-.04.1-.09.19-.15.27-.11.17-.21.33-.31.49s-.12.39-.06.66c.06.22.14.4.25.54.11.17.25.36.43.58.18.22.36.45.56.7s.39.48.58.7c.19.22.37.41.54.58.69-.25,1.35-.47,1.98-.66.63-.19,1.26-.39,1.88-.6.62-.21,1.24-.44,1.88-.7.63-.26,1.29-.56,1.98-.89.08-.06.12-.06.1,0s0,.08.06.08.07-.02.04-.06c-.03-.04-.01-.08.04-.1.55-.22,1.04-.42,1.46-.6s.68-.24.76-.19c.06,0,.07.08.04.23-.03.15-.08.32-.14.49-.07.18-.17.42-.31.72l-.54.25Zm-11.25,4.66c0-.08-.03-.12-.08-.12,0,.11-.02.16-.06.14-.04-.01-.1,0-.19.02-.39.22-.76.41-1.11.56s-.71.31-1.05.47c-.34.17-.66.36-.95.58-.29.22-.56.51-.8.87.03.16,0,.28-.1.35-.1.07-.12.17-.06.31.3.05.61.06.93.02.31-.04.6-.12.84-.23.47-.19.94-.39,1.42-.58s.92-.43,1.32-.7c.4-.28.73-.61,1.01-1.01.28-.4.43-.89.45-1.46-.28.08-.54.2-.78.35-.25.15-.51.3-.78.43Zm10.8-4.16c.06,0-.06.07-.33.21l.33-.21Z"/>
        </g>
        <path class="cls-2" d="m131.02,186.86v.23h-4.43l-1.4-15.15h-5.2l-1.4,15.15h-4.43v-.39h.08l5.44-53.83h5.67l5.51,53.83h.08l.08.16Zm-8.39-43.65l-2.25,24.86h4.51l-2.25-24.86Z"/>
        <path class="cls-2" d="m178.27,186.86v.23h-4.44l-1.4-15.2h-5.22l-1.4,15.2h-4.44v-.39h.08l5.46-54h5.69l5.53,54h.08l.08.16Zm-8.42-43.79l-2.26,24.94h4.52l-2.26-24.94Z"/>
        <path class="cls-2" d="m149.68,165.99c0-2.32-1.24-3.87-3.17-3.87h-3.87v24.54h-4.41v-54.03h8.21c4.57,0,7.66,3.25,7.66,8.13v10.45c0,3.72-1.01,6.74-2.71,8.67,1.7,1.32,2.71,3.41,2.71,6.04v20.82h-4.41v-20.75Zm-3.25-7.66c1.94,0,3.25-2.86,3.25-7.12v-10.37c0-2.55-1.32-4.33-3.25-4.33h-3.79v21.75h3.79v.08Z"/>
        <path class="cls-2" d="m185.59,187.02v-54.32h7.7c4.98,0,8.25,3.27,8.25,8.17v38.05c0,4.9-3.27,8.17-8.25,8.17l-7.7-.08Zm7.7-3.81c2.26,0,3.81-1.71,3.81-4.28v-37.97c0-2.57-1.56-4.36-3.81-4.36h-3.27v46.53l3.27.08Z"/>
        <path class="cls-2" d="m209.63,132.7h4.88l.4,94.31h0c-3.51,0-4.98-2.85-4.96-6.36l-.32-87.95Z"/>
        <path class="cls-2" d="m226.34,176.46v3.34c0,2.2,1.22,3.72,2.96,3.72s3.04-1.9,3.04-4.79c0-5.47-1.67-12.08-4.94-17.85-3.49-6.08-5.32-12.61-5.32-19.07,0-5.55,2.96-9.19,7.37-9.19,3.42,0,6,1.9,6.91,4.86.23.84.38,1.75.38,2.66v2.89h-4.33v-2.89c0-2.2-1.22-3.72-2.96-3.72-1.9,0-3.11,1.9-3.11,4.71,0,5.62,1.75,11.47,5.01,17.32,3.49,6.08,5.32,13.37,5.32,19.45,0,5.7-2.96,9.42-7.37,9.42-3.42,0-6-1.9-6.91-4.86-.23-.84-.38-1.75-.38-2.66v-3.34h4.33Z"/>
        <path class="cls-2" d="m256.99,186.9h-12.87v-54.44h12.48v4.13h-8.03v19.81h6.01v4.21h-.39v-.08h-5.62v22.23h8.42v4.13Z"/>
        <path class="cls-2" d="m98.24,132.88h-30.99c-.13,0-.24.11-.24.24,0,2.56,2.08,4.64,4.64,4.64h16.93l.02,84.88c0,3.01,1.76,5.45,4.77,5.45l.1-53.71h4.79c5.76,0,8.98-4.59,8.98-11.43v-19.83c0-6.15-3.22-10.25-8.98-10.25Zm4.1,30.08c0,3.91-1.66,6.54-4.1,6.54h-4.79v-31.74h4.79c2.44,0,4.1,2.25,4.1,5.47v19.73Z"/>
        <g>
          <path class="cls-2" d="m137.15,197.7c-.14.12-.25-.03-.35.07-.02.13.06.22.13.31.27.37.51.77.81,1.13.06.07.1.16.14.25.43.98.77,2,1.16,2.99.27.68.39,1.4.55,2.1.1.45.06.92.07,1.39,0,.4-.04.81,0,1.21.05.49.07,1,.32,1.45.08.15.22.33-.09.4-.05.01-.05.07-.05.12.05.29.01.58.13.87.09.21.16.42.24.63.11.29.36.44.62.56.15.06.28.03.38-.1.2-.24.31-.51.28-.82-.04-.51-.08-1.02-.14-1.53-.02-.15,0-.34-.16-.46-.02-.02-.04-.08-.03-.09.16-.23-.09-.43-.04-.65.01-.06-.01-.1-.07-.1-.22.01-.22-.1-.19-.27,0-.05-.07-.12-.1-.18-.11-.2-.09-.31.1-.41.15-.08.17-.17.15-.31-.04-.27-.07-.53-.16-.79-.09-.27-.06-.58-.14-.87-.15-.6-.18-1.22-.34-1.82-.1-.37-.05-.75-.09-1.13,0-.05,0-.1,0-.14.02-.13-.21-.14-.14-.3.05-.11.11-.22.13-.33.05-.24.06-.49.09-.74.05-.49.21-.95.35-1.41.12-.38.31-.74.53-1.07.35-.53.76-.99,1.24-1.4.27-.23.5-.5.82-.67.21-.11.35-.35.55-.49.55-.39,1.18-.61,1.78-.9.28-.14.6-.13.91-.11.07,0,.15.04.21.03.64-.14,1.21.19,1.81.28.36.05.66.27.99.4.19.07.37.16.55.25.3.13.5.35.63.65.13.3.24.59.26.92.02.42-.21.74-.41,1.08-.29.47-.67.87-.92,1.35-.06.11-.16.2-.25.3-.38.41-.68.89-1,1.34-.17.24-.36.47-.54.71-.3.39-.56.81-.73,1.26-.27.69-.61,1.34-.98,1.98-.15.26-.26.53-.38.8-.22.48-.53.9-.83,1.33-.26.37-.51.75-.68,1.17-.22.55-.36,1.13-.15,1.7.15.41.43.76.72,1.09.53.6,1.19.49,1.85.38.84-.13,1.55-.55,2.24-1.04.33-.23.69-.42,1.04-.63.09-.05.2-.09.24-.2.08-.23.27-.32.46-.42.29-.16.61-.27.87-.49.33-.29.64-.6.98-.88.91-.76,1.72-1.64,2.66-2.37.27-.21.46-.51.68-.78.25-.32.51-.63.84-.88.16-.12.3-.27.41-.44.26-.42.59-.77.93-1.12.39-.41.73-.86,1.02-1.36.21-.36.41-.72.61-1.08.14-.25.24-.54.37-.8.11-.21.22-.43.38-.6.31-.36.54-.79.89-1.11.46-.41.84-.92,1.37-1.24.57-.35,1.14-.73,1.81-.88.07-.02.14-.04.21-.04.4.01.77-.12,1.16-.16.31-.03.62-.02.92,0,.99.1,1.99.16,2.97.35.08.02.17.01.24.05.41.21.87.23,1.29.41.45.2.91.4,1.18.86.12.22.28.41.43.61.17.24.21.49.05.73-.21.33-.34.71-.66.97-.04.03-.07.07-.08.11-.08.27-.27.44-.48.6-.04.03-.1.06-.1.09-.01.3-.32.43-.38.71-.02.09-.1.16-.17.23-.05.05-.12.1-.14.16-.24.5-.68.85-1,1.29-.13.18-.24.37-.48.45-.11.04-.02.07.03.13.07.09-.03.32-.17.33-.44.05-.52.45-.74.7-.14.16-.25.35-.45.45-.04.02-.1.03-.1.09.03.33-.32.42-.43.66-.05.11-.21.1-.33.1-.16,0-.21.04-.22.23-.01.38-.28.64-.57.85-.1.07-.26.08-.24.26,0,.02-.04.07-.06.07-.25.04-.33.26-.46.42-.28.35-.63.62-.9.96-.18.22-.33.46-.49.7-.21.31-.35.67-.63.94-.04.04-.08.09-.1.15-.24.57-.53,1.12-.63,1.74-.01.08-.04.17-.03.25.06.46-.03.93-.01,1.39,0,.16.02.31.07.46.16.47.31.94.54,1.38.04.08.09.17.16.24.16.16.26.36.38.55.22.34.46.68.84.9.32.18.58.44.86.68.08.07.14.18.26.16.15-.02.18.03.18.17,0,.12.35.26.5.23.59-.1.94-.52,1.26-.96.11-.15.07-.36.17-.54.13-.22.38-.34.45-.6.08-.27.36-.43.42-.71.03-.12.11-.16.23-.17.18-.01.32-.1.31-.31,0-.11.05-.18.14-.23.1-.07.18-.16.24-.26.08-.13.18-.21.33-.25.19-.05.33-.18.41-.37.03-.06.06-.15.12-.17.41-.18.71-.51,1.08-.74.38-.24.75-.53,1.06-.88.12-.14.25-.21.45-.22.29-.02.57-.14.83-.3.09-.05.18-.14.28-.15.73-.11,1.41-.42,2.16-.44.42-.01.83.07,1.23.14.3.05.59.09.88.09.22,0,.43.03.62.11.35.15.75.11,1.1.28.13.06.32-.05.48.04.06.03.14.03.18.1.09.14.21.23.39.15.02,0,.06,0,.07,0,.19.27.56.16.77.38.1.11.25.04.37.09.66.27,1.29.59,1.89.99.36.24.71.51,1.15.62.2.05.35.2.52.3.48.3.95.62,1.43.94.19.13.38.24.6.32.09.03.18.07.23.16.08.13.2.2.35.22.14.03.23.12.33.21.57.52,1.2.97,1.84,1.41.13.09.29.17.45.22.49.15.88.47,1.27.78.39.31.8.59,1.25.83.33.17.62.44.9.7.48.46,1.05.78,1.61,1.12.53.32,1.07.61,1.66.83.04.02.09.04.13.07.66.48,1.42.78,2.1,1.21.41.26.78.58,1.03,1.01.27.46.08.95-.44,1.03-.43.06-.78.26-1.14.47-.23.14-.49.24-.77.29-.54.1-1.07.22-1.61.31-.64.1-1.24.33-1.87.46-.21.05-.42.09-.63.1-.36.02-.7.13-1.04.24-.07.02-.14.05-.21.06-.61.06-1.19.23-1.77.39-1.1.32-2.25.38-3.37.61-.94.19-1.91.27-2.81.65-.11.05-.23.04-.35.05-.15,0-.31.03-.45.09-.39.18-.79.22-1.22.17-.4-.05-.81-.06-1.21-.04-1.13.06-2.26,0-3.39,0-.44,0-.88.03-1.39.06.35.23.74.22,1.05.5-.32.05-.55-.04-.78-.11-.22-.07-.44-.11-.66-.13-.32-.03-.63-.11-.95-.13-.73-.06-1.46-.06-2.19.06-.45.07-.9.1-1.35.14-.4.04-.79.16-1.2.2-.22.02-.25.1-.21.32.15.88.62,1.55,1.36,2.04.05.03.11.07.16.07.28,0,.49.15.71.3.21.14.48.14.71.24.59.26,1.22.41,1.86.49.24.03.47.1.69.17.22.06.44.12.67.09.07,0,.14,0,.21.03.32.16.66.2,1,.19.15,0,.28.09.42.08.6-.02,1.16.24,1.74.31.08,0,.17.03.24.05.31.1.62.18.94.19.49.01.96.14,1.44.23.54.1,1.08.24,1.55.58.23.16.51.25.78.35.21.08.44.1.61.27.02.02.07.04.1.04.43-.05.77.21,1.16.32.17.05.34.1.52.12.34.04.63.21.94.33.18.07.27.27.37.43.32.53.31.58-.15.97-.11.09-.23.12-.36.13-.45.03-.9.05-1.35-.04-.54-.1-1.09-.08-1.63-.15-.22-.03-.45-.04-.67-.07-.97-.11-1.94-.16-2.91-.1-.76.05-1.51.15-2.27.23-.55.05-1.1.2-1.66.25-.37.03-.73.07-1.1.08-.93.04-1.84.24-2.75.41-.84.15-1.66.39-2.48.61-.38.1-.79.2-1.2.18-.63-.02-1.26.02-1.89,0-.81-.03-1.61-.04-2.42-.13-.66-.07-1.31-.21-1.97-.25-.3-.02-.58-.11-.87-.2-.55-.17-1.11-.27-1.68-.31-.47-.04-.9-.22-1.32-.41-.61-.27-1.25-.44-1.89-.61-.69-.19-1.3-.51-1.84-.97-.29-.25-.56-.52-.79-.82-.09-.12-.23-.21-.35-.3-.15-.1-.28-.22-.4-.36-.21-.23-.43-.44-.7-.61-.09-.06-.17-.13-.24-.21-.58-.68-1.23-1.29-1.87-1.9-.06-.06-.14-.11-.17-.18-.24-.48-.68-.82-.92-1.31-.01-.02-.03-.04-.04-.06-.52-.36-.87-.91-1.38-1.28-.33-.24-.7-.29-1.07-.33-.28-.03-.57-.02-.86,0-.79.04-.84.17-.9.9-.06.76.16,1.47.4,2.19.25.74.72,1.3,1.2,1.87,1,1.17,2.28,1.88,3.74,2.3.48.14.92.38,1.39.55.96.33,1.82.88,2.78,1.21.1.03.2.09.3.11.53.12.98.42,1.48.61.09.03.17.09.26.12.59.14,1.14.4,1.74.53.32.07.63.19.93.35.2.11.43.16.62.27.47.26.89.6,1.28.97.27.26.38.56.23.94-.26.64-.74,1.1-1.46,1.02-.79-.09-1.59-.05-2.38-.14-.58-.06-1.17-.1-1.73-.24-.56-.14-1.11-.36-1.68-.48-.71-.14-1.4-.4-2.13-.42-.4-.01-.8-.18-1.2-.1-.57.11-1.16.12-1.74.19-1.03.11-2.06.13-3.08.25-.42.05-.82.19-1.2.33-.58.22-1.19.35-1.77.56-.38.14-.76.25-1.17.29-.34.03-.67.17-1,.24-.51.1-1.01.26-1.54.29-.32.02-.64.06-.89.3-.11.1-.25.13-.39.16-.32.05-.67.03-.94.28-.09.08-.24.07-.37.12-.41.17-.83.33-1.26.45-.34.1-.69.07-1.05,0-.54-.09-1.06-.26-1.61-.31-.37-.03-.71-.16-1.01-.33-.56-.32-1.17-.58-1.69-.99-.38-.31-.78-.63-1.25-.82-.06-.03-.13-.07-.17-.13-.36-.43-.85-.68-1.28-1.02-.22-.17-.43-.33-.59-.57-.07-.1-.16-.17-.26-.25-.39-.29-.8-.55-1.12-.93-.17-.2-.4-.29-.62-.41-.17-.09-.31-.21-.43-.36-.38-.47-.76-.95-1.14-1.42-.26-.32-.58-.59-.83-.93-.13-.19-.38-.27-.52-.48-.38-.6-.86-1.14-1.26-1.72-.33-.47-.68-.95-.89-1.5-.18-.47-.5-.86-.77-1.28-.21-.33-.41-.67-.62-1-.05-.08-.09-.17-.1-.26-.05-.35-.19-.66-.31-.98-.07-.19-.13-.39-.14-.59-.01-.43-.14-.84-.18-1.27-.05-.54.03-1.07.24-1.57,0-.02.02-.04.04-.06.44-.51.83-1.07,1.47-1.37.14-.07.28-.13.42-.21.37-.22.77-.33,1.19-.32.32,0,.61-.1.89-.23.46-.21.92-.45,1.38-.67.7-.33,1.44-.56,2.17-.81.37-.13.74-.25,1.09-.43.44-.22.9-.42,1.38-.45.81-.04,1.54-.39,2.32-.52.88-.14,1.71-.51,2.6-.6.5-.05.99-.18,1.46-.32.92-.28,1.87-.43,2.81-.63.46-.1.93-.18,1.4-.24.5-.06.99-.12,1.48-.2,1.01-.17,2.02-.32,3.05-.33,1.13-.01,2.25-.17,3.36-.36.44-.08.89-.16,1.35-.11.19.02.37-.08.56-.09.41,0,.83-.02,1.23-.14.09-.02.19-.02.28,0,.76.12,1.54.12,2.31.16.81.04,1.6.21,2.39.38.23.05.43.19.67.24.2.04.4.07.59.11.25.04.51.06.69.3.08.11.23.17.37.21.25.06.48.12.67.36.1.14.35.19.53.25.38.13.68.38,1.05.53.58.24.98.69,1.43,1.1.2.18.43.34.65.5.25.18.51.34.75.55.19.17.43.27.67.33.83.2,1.66.42,2.5.57.44.08.89.13,1.33.21.46.09.88.04,1.3-.08.34-.1.68-.2,1.04-.25.47-.06.94-.13,1.41-.19.77-.1,1.53-.22,2.29-.34.77-.12,1.54-.3,2.34-.27.2,0,.4.03.6.06.12.02.23.07.32.15.05.05.12.09.11.17-.01.09-.1.1-.16.11-.2.03-.4.06-.6.08-.73.07-1.47.07-2.19.21-.54.1-1.08.17-1.61.29-.16.04-.32.08-.49.05-.15-.02-.28.06-.41.1-.36.12-.72.25-1.11.25-.26,0-.52.08-.76.15-.37.11-.75.13-1.13.15-.13,0-.27-.02-.32.17.15.09.31.08.48.05.08-.02.16-.04.25-.04.08,0,.15.03.14.12,0,.07-.07.09-.13.1-.06,0-.12,0-.18,0-.12,0-.24-.03-.36,0-.61.14-1.23,0-1.85.06-.27.02-.52-.04-.76-.15-.18-.09-.38-.14-.56-.22-.48-.22-.99-.33-1.48-.51-.38-.14-.74-.33-1.03-.62-.17-.17-.41-.17-.6-.31-.42-.31-.92-.49-1.32-.83-.34-.29-.74-.52-1.14-.73-.6-.31-1.16-.7-1.69-1.12-.34-.27-.74-.43-1.09-.68-.57-.39-1.22-.56-1.87-.75-.51-.15-1.02-.23-1.54-.21-.36.01-.69-.16-1.05-.15-.37,0-.74,0-1.1.05-.1.02-.21.02-.31,0-.55-.09-1.08.02-1.62.11-.05,0-.1.03-.14.03-.44-.06-.84.15-1.26.21-.51.07-1.02.17-1.54.09-.07-.01-.14-.02-.21.01-.28.12-.58.13-.87.11-.26-.03-.49.12-.77.09-.16-.02-.32.09-.47-.07-.03-.04-.16,0-.24.02-.58.19-1.18.27-1.78.33-.23.02-.45.07-.65.18-.18.1-.34.12-.5-.11-.09.29-.29.34-.52.33-.29-.02-.59.09-.88-.02-.1-.04-.19.01-.25.1-.1.13-.23.14-.39.15.03-.07.08-.15.06-.17-.06-.08-.13-.02-.18.03-.32.34-.78.28-1.17.45-.05-.18.11-.17.14-.25-.03-.04-.06-.03-.09,0-.07.05-.13.11-.19.16-.05.04-.1.09-.16.05-.25-.2-.44.04-.65.1-.09.02-.2.14-.25.1-.34-.24-.58.09-.86.15-.31.06-.63.09-.94.13-.31.04-.6.09-.88.25-.18.1-.36.24-.6.16-.05-.02-.09,0-.13.03-.25.2-.56.24-.86.31-.06.01-.12.03-.17.06-.41.25-.86.2-1.31.22-.12,0-.25-.03-.35.02-.17.09-.33.13-.5.01-.05-.03-.12-.03-.16.02-.12.19-.33.17-.49.26-.15.08-.29.09-.42-.04-.13-.12-.24-.05-.34.09.13.07.32.04.38.2.02.05.03.09,0,.13-.03.05-.09.04-.13,0-.25-.21-.49-.12-.73.02-.08.05-.17.11-.27.08-.25-.05-.47.05-.7.11-.16.04-.34.05-.37.27,0,.05-.07.09-.11.05-.14-.14-.26-.02-.39.02-.24.08-.5.13-.7.24-.34.17-.73.2-1.04.43-.26.2-.57.3-.88.37-.52.13-.99.41-1.49.58-.45.16-.79.47-1.21.67-.5.23-.81.68-1.12,1.13-.03.04-.05.09-.05.13-.07.76-.27,1.53.07,2.28.14.31.21.65.37.97.2.4.43.77.71,1.11.15.19.21.42.34.63.61.98,1.2,1.97,1.89,2.89.49.66,1.01,1.26,1.7,1.71.1.07.18.15.26.24.49.56,1.08,1,1.64,1.48.48.41.98.79,1.42,1.24.32.33.72.59,1.08.88.13.1.3.17.22.39-.02.06.03.11.07.15.33.36.66.71,1.06,1,.42.3.8.67,1.2,1.01.3.26.63.47,1.02.57.26.06.49.17.72.3.37.21.78.28,1.19.34.13.02.26.04.38.1.19.09.37.16.58.11.15-.03.28.05.41.11.16.07.31.08.48.03.29-.09.59-.19.9-.21.21-.01.38-.14.55-.24.39-.24.81-.4,1.22-.6.32-.16.67-.18,1.01-.16.29.02.58-.02.84-.11.96-.33,1.97-.44,2.94-.72.31-.09.6-.23.9-.35.1-.04.2-.09.3-.11.51-.1,1.01-.26,1.54-.31.21-.02.42-.07.63-.11.36-.07.72-.13,1.1-.1.56.05,1.11-.1,1.67-.14.43-.02.85-.13,1.28-.06.16.03.3-.07.46-.07.7,0,1.41,0,2.1.14.42.08.85.05,1.26.21.28.1.56.22.84.3.51.14.99.43,1.54.38.2-.02.37.09.56.11.6.07,1.2.16,1.81.06.13-.02.26-.02.39,0,.32.07.64.04.96.06.11,0,.21-.04.3-.09.09-.05.11-.11.08-.21-.1-.29-.23-.54-.55-.66-.28-.1-.54-.25-.82-.36-.31-.12-.58-.33-.86-.5-.35-.21-.71-.35-1.1-.46-.85-.23-1.65-.59-2.47-.91-.38-.15-.74-.33-1.09-.52-.26-.15-.55-.22-.85-.26-.42-.05-.81-.16-1.18-.38-.16-.09-.35-.15-.53-.21-.56-.17-1.06-.48-1.6-.69-.63-.24-1.26-.52-1.71-1.07-.02-.03-.05-.06-.08-.07-.63-.31-1.08-.85-1.62-1.28-.32-.26-.5-.61-.65-.99-.13-.31-.2-.66-.41-.93-.08-.1-.1-.21-.13-.33-.04-.15-.06-.31-.13-.44-.19-.33-.15-.69-.16-1.04-.01-.28-.02-.57-.02-.85,0-.39.12-.78.27-1.15.04-.1.14-.16.24-.21.34-.17.68-.29,1.06-.25.4.04.81-.02,1.21.08.42.1.79.26,1.13.56.43.37.92.68,1.4.99.53.33.93.77,1.24,1.31.18.31.48.52.69.81.35.48.77.9,1.26,1.26.13.09.24.2.33.33.23.33.54.54.88.74.23.14.41.39.59.61.19.25.41.46.68.62.33.2.66.42.98.63.22.14.48.22.72.29.55.15,1.07.4,1.62.55.42.11.86.16,1.3.22.37.05.75.03,1.12.15.29.1.61.07.91.17.07.02.19.03.24-.01.19-.13.37-.06.54,0,.7.24,1.43.29,2.16.39.38.05.78.08,1.15.23.12.05.26.04.39.04.23,0,.46.04.67.11.31.11.62.16.95.08.54-.12,1.09-.02,1.63-.15.77-.2,1.55-.36,2.3-.64.21-.08.44-.13.66-.11.53.03,1.04-.04,1.55-.17.05-.01.09-.02.14-.02.78-.01,1.54-.17,2.31-.22.42-.03.84-.13,1.27-.17.46-.03.91-.16,1.36-.22.45-.06.91-.18,1.38-.07.24.05.5.04.75.02.29-.03.57.02.85.05.33.03.66,0,.99.06.75.15,1.51.16,2.26.29.02,0,.04-.02.06-.03.04-.12-.06-.17-.14-.21-.41-.21-.85-.36-1.31-.45-.1-.02-.22-.02-.32-.06-.89-.31-1.83-.42-2.74-.66-.74-.2-1.49-.41-2.19-.75-.47-.23-.97-.32-1.47-.41-.83-.15-1.68-.22-2.49-.47-.54-.16-1.1-.17-1.65-.25-.72-.11-1.41-.3-2.09-.56-.54-.2-1.05-.46-1.53-.76-.6-.38-1.13-.83-1.3-1.58-.04-.17-.11-.34-.23-.48-.07-.08-.15-.18-.12-.29.07-.24,0-.47-.02-.7-.02-.38.33-.77.71-.8.73-.05,1.47-.1,2.2-.14.55-.03,1.09-.08,1.63-.15.06,0,.12-.03.18-.02.61.11,1.21-.03,1.81-.04.38,0,.76.05,1.14.06.24,0,.44-.09.66-.09.39,0,.78,0,1.18,0,.07,0,.15.02.21,0,.39-.1.78-.02,1.17-.01.31,0,.61-.06.92-.1.14-.02.28-.04.43-.04.67.01,1.33-.1,1.98-.22.54-.1,1.09-.11,1.62-.24.68-.17,1.39-.2,2.07-.32.56-.1,1.09-.33,1.66-.4.62-.08,1.2-.28,1.81-.4.37-.07.73-.21,1.1-.31.53-.14,1.08-.19,1.62-.24.59-.06,1.18-.07,1.75-.31.22-.09.49-.11.74-.12.85-.05,1.62-.32,2.39-.67.26-.12.53-.2.8-.31.23-.09.25-.17.08-.35-.28-.31-.59-.58-.92-.84-.25-.2-.55-.26-.82-.43-.5-.32-1-.64-1.56-.85-.46-.18-.87-.43-1.24-.76-.15-.13-.36-.17-.53-.29-.36-.28-.69-.59-1.03-.88-.27-.23-.58-.42-.88-.61-.79-.52-1.59-1.04-2.39-1.56-.07-.04-.15-.08-.23-.09-.47-.07-.78-.39-1.08-.7-.17-.18-.35-.33-.56-.42-.43-.18-.8-.47-1.17-.73-.71-.51-1.44-.99-2.15-1.5-.47-.34-.99-.54-1.49-.8-.11-.05-.21-.11-.31-.17-.29-.18-.57-.38-.92-.47-.23-.06-.39-.25-.62-.34-.77-.27-1.55-.52-2.35-.7-.12-.03-.24-.11-.36-.16-.38-.17-.8-.23-1.18-.39-.15-.06-.31,0-.46-.03-.63-.14-1.27-.13-1.91-.14-.18,0-.35.06-.52.13-.59.25-1.21.44-1.81.65-.31.11-.59.25-.81.5-.29.31-.68.48-1.02.71-.23.15-.46.3-.64.5-.38.4-.85.69-1.24,1.07-.63.62-1.2,1.28-1.62,2.07-.21.39-.45.76-.67,1.14-.06.1-.16.18-.23.27-.43.5-.95.34-1.44.19-.66-.21-1.29-.5-1.77-1.02-.05-.05-.1-.12-.16-.14-.57-.23-.79-.75-1.03-1.26-.09-.18-.23-.33-.36-.48-.2-.22-.27-.5-.43-.74-.02-.02-.02-.07,0-.1.09-.17,0-.3-.09-.43-.11-.17-.19-.36-.26-.54-.04-.1-.07-.2-.04-.31.02-.09.03-.16-.06-.25-.09-.1-.04-.25.02-.37.04-.08.09-.16.06-.23-.07-.2-.03-.37,0-.57.07-.54.19-1.05.44-1.52.24-.45.46-.91.71-1.35.21-.36.54-.67.61-1.11,0-.06.07-.13.12-.17.25-.21.38-.54.68-.71.16-.09.24-.34.36-.52.05-.07.07-.17.14-.21.32-.17.51-.5.82-.67.18-.1.25-.29.36-.43.12-.15.23-.3.39-.41.13-.1.28-.2.27-.39,0-.09.05-.13.14-.12.15,0,.25-.06.31-.19.18-.38.5-.67.77-.97.18-.2.3-.43.45-.63.22-.31.57-.52.74-.85.19-.36.55-.58.69-.97.04-.11.14-.19.25-.25.13-.07.23-.18.29-.31.3-.54.72-1,1.14-1.45.28-.3.47-.65.52-1.09-.25-.09-.4-.27-.49-.54-.08-.24-.33-.33-.54-.44-.58-.31-1.22-.46-1.86-.61-.2-.05-.43-.02-.59-.2-.04-.05-.11,0-.17,0-.53.03-1.07.08-1.59-.09-.07-.02-.14-.04-.21-.03-.37.06-.75-.03-1.1.04-.42.09-.84.09-1.26.2-1.2.32-2.13.98-2.76,2.04-.12.21-.26.41-.41.58-.66.73-1.16,1.57-1.63,2.42-.15.28-.36.51-.55.75-.18.23-.37.47-.56.69-.21.25-.41.49-.49.82-.02.1-.09.17-.15.24-.38.39-.77.77-1.17,1.14-.26.24-.53.48-.72.78-.06.09-.18.21.05.25.08.01.08.08.06.14-.04.13-.1.26-.23.3-.18.05-.32.14-.47.25-.05.03-.12.07-.15-.01-.08-.19-.16-.09-.23,0-.38.49-.84.9-1.17,1.43-.02.03-.04.07-.07.08-.64.36-1.06.99-1.69,1.36-.06.04-.11.09-.16.14-.11.13-.24.25-.39.31-.84.33-1.48.99-2.29,1.35-.3.13-.55.34-.79.54-.5.41-1.09.58-1.7.64-.5.05-1.01.12-1.52,0-.13-.03-.25-.06-.35-.16-.24-.24-.5-.48-.74-.73-.17-.18-.23-.43-.35-.65-.55-1.04-.36-2.07.13-3.07.15-.31.36-.58.57-.86.4-.55.74-1.14,1.01-1.76.04-.09.07-.18.12-.26.45-.6.66-1.31.96-1.98.13-.28.28-.55.44-.82.29-.49.62-.96,1.03-1.36.08-.08.16-.15.19-.26.1-.44.4-.76.71-1.05.34-.32.54-.72.77-1.1.04-.07.06-.17.12-.21.26-.21.32-.55.5-.82.18-.28,0-.77-.33-.96-.3-.17-.61-.33-.96-.36-.07,0-.14-.02-.21-.05-.76-.39-1.59-.44-2.42-.53-.36-.04-.69.11-.99.25-.26.12-.52.23-.77.36-.44.22-.82.52-1.2.82-.54.42-1.03.89-1.49,1.38-.35.38-.72.77-.78,1.33,0,.04-.03.1-.06.13-.25.28-.28.65-.4.98-.32.91-.23,1.85-.13,2.76.08.74.22,1.48.45,2.2.06.18.09.37.11.56.11.76.19,1.53.32,2.29.12.73.16,1.47.29,2.19.08.4.04.81-.05,1.21-.04.19-.12.36-.26.5-.29.28-.49.33-.83.12-.47-.3-.81-.71-1.03-1.23-.28-.67-.41-1.36-.45-2.08-.02-.43-.18-.84-.26-1.25-.03-.13-.04-.25-.03-.39.03-.34.06-.69.05-1.03-.02-.36-.09-.71-.41-.94-.16-.11-.24-.29-.34-.46-.08-.13-.04-.25.13-.43-.24.1-.37.08-.43-.09-.07-.21-.22-.4-.09-.64.03-.06.03-.12-.03-.16-.24-.15-.19-.42-.27-.63-.03-.09-.03-.19-.08-.27-.23-.35-.35-.75-.49-1.13-.17-.46-.4-.91-.44-1.42-.01-.13-.02-.26-.14-.35-.03-.02-.05-.05-.06-.09-.15-.63-.71-1-1.01-1.53-.26-.13-.46-.37-.83-.28-.53.14-1.04.33-1.55.52-.33.12-.64.3-.91.55-.07.07-.15.11-.24.15-.09.04-.18.07-.25.14-.57.62-1.3,1.02-1.99,1.48-.39.26-.75.55-1.12.83-.71.54-1.43,1.07-2.1,1.65-.15.13-.3.27-.44.41-.3.32-.67.58-.97.89-.41.43-.87.8-1.28,1.23-.28.3-.54.63-.8.95-.08.09-.15.18-.22.28-.34.5-.68,1-1.02,1.51-.26.4-.46.83-.67,1.26-.22.47-.45.95-.7,1.4-.13.23-.21.48-.24.74-.18,1.43-.44,2.84-.85,4.23-.16.54-.19,1.1-.25,1.66-.01.11,0,.22-.04.32-.17.46-.26.94-.3,1.43-.02.25-.09.49-.2.72-.15.32-.29.65-.44.97-.11.25-.3.45-.45.68-.28.44-.66.76-1.05,1.1-.71.62-1.46,1.17-2.28,1.64-.44.25-.88.52-1.31.79-.07.04-.14.09-.22.11-.53.17-1,.45-1.46.74-.63.39-1.33.65-1.96,1.02-.18.11-.38.2-.55.33-.41.29-.82.57-1.28.78-.14.06-.27.16-.39.26-.45.4-.9.8-1.37,1.23.13.08.22.03.29-.02.18-.14.38-.24.53-.42.06-.07.14-.13.22-.18.54-.28,1.05-.61,1.6-.87.25-.12.51-.24.73-.43.03-.02.05-.06.08-.06.37-.06.61-.36.93-.52.72-.37,1.43-.75,2.16-1.1.8-.38,1.63-.72,2.44-1.09.18-.08.37-.17.54-.28.65-.4,1.39-.54,2.07-.85.11-.05.22-.09.33-.14.5-.27,1-.55,1.5-.81.37-.19.76-.33,1.17-.43.22-.05.42-.2.65-.27.32-.11.64-.25.94-.41.15-.08.3-.03.45-.09.28-.13.58-.21.85-.35.29-.14.61-.21.91-.29.48-.12.95-.3,1.41-.44.02-.09-.09-.09-.06-.18.1-.03.21-.08.33-.09.14,0,.25-.03.33-.15.11-.16.32-.11.48-.2.29-.16.62-.23.94-.3.07-.02.14,0,.2.04.05.04.12.06.16,0,.22-.23.54-.28.81-.35.52-.14.99-.41,1.53-.51.37-.07.75-.17,1.1-.38.21-.13.49-.18.74-.25.29-.07.57-.15.85-.25.27-.1.55-.1.83-.2.46-.16.9-.37,1.39-.45,1.03-.18,2.04-.47,3.08-.62.39-.06.81-.07,1.17-.28.08-.05.16-.02.24-.03.43-.04.85-.11,1.26-.22.31-.08.64-.09.94-.21.54.1,1.06-.07,1.58-.1.45-.03.93,0,1.36-.2.03-.01.08-.02.1,0,.16.09.24.08.23-.13,0-.06.07-.1.13-.09.08,0,.07.06.08.13.04.21.12.26.32.2.21-.07.42-.09.63-.07.14,0,.24-.08.36-.13.2-.09.4-.26.6,0,.03.04.13.03.16-.01.07-.07-.1-.1-.04-.18.09-.04.15.03.23.05.08.01.19.07.24.04.25-.15.56-.06.8-.22.09-.06.2-.07.31-.05.18.03.36.04.53.09.18.04.34.07.51-.06.16-.13.37-.06.55-.08.25-.03.5-.01.74.07.13.05.25.07.37,0,.05-.03.12-.06.17-.04.39.13.75.02,1.13-.04.29-.05.59-.03.88-.03.17,0,.35.06.52-.02.01,0,.02,0,.03,0,.49.12.98-.06,1.47.05.07.02.16.02.11.12-.08.17.06.2.15.22.2.05.4.04.59-.06.05-.03.11-.1.15-.06.25.26.55.1.83.11.07,0,.15-.02.21,0,.7.18,1.43.24,2.08.58.15.08.3.14.47.16.19.03.32.13.44.27.05.06.1.11.07.19-.03.08-.1.13-.19.14-.1.01-.19-.02-.28-.06-.22-.09-.44-.18-.66-.28-.14-.06-.28-.13-.45-.1-.05,0-.11.01-.14-.01-.25-.27-.6-.21-.91-.24-.58-.05-1.16-.06-1.74-.1-.15,0-.31-.03-.46-.05-.63-.11-1.28-.02-1.92-.13-.58-.1-1.16-.02-1.74-.04-.06,0-.12,0-.18.02-.6.16-1.22.17-1.84.21-.24.02-.48-.01-.71-.02-.74-.02-1.47.05-2.21.12-.64.06-1.27.2-1.91.2-.46,0-.93.02-1.39.02-1.22,0-2.41.23-3.6.48-1.07.22-2.14.43-3.22.66-.47.1-.93.21-1.39.34-.33.09-.65.12-.99.13-.13,0-.23.03-.31.13-.09.13-.22.14-.37.17-.31.07-.63.1-.93.2-.52.18-1.05.3-1.57.48-.74.26-1.47.55-2.2.84-.74.3-1.49.57-2.26.78-.73.19-1.4.53-2.1.8-.24.09-.5.16-.74.24-1.03.33-2.03.76-3.03,1.17-.35.14-.71.27-1.08.37-.17.04-.34.12-.5.2-1.11.52-2.24.99-3.34,1.52-.52.25-1.08.44-1.62.66-1.3.53-2.57,1.13-3.81,1.79-.45.24-.89.52-1.34.74-.59.29-1.1.7-1.69,1-.49.25-.94.6-1.44.85-.35.18-.66.41-.97.66-.8.65-1.57,1.35-2.34,2.04-.5.45-1.04.86-1.56,1.3-.42.35-.8.74-1.26,1.04-.23.15-.42.39-.6.61-.62.74-1.37,1.35-2.05,2.04-.3.31-.52.68-.82.99-.03.03-.05.08-.08.12-.1.12-.19.29-.36.25-.19-.04-.11-.23-.15-.36-.02-.07-.03-.14-.04-.21-.03-.16,0-.28.15-.36.25-.14.41-.36.54-.61.07-.14.16-.26.26-.38.25-.29.47-.6.64-.94.21-.43.48-.82.82-1.16.39-.4.69-.88,1.08-1.28.14-.14.3-.27.44-.42.47-.49.93-.98,1.38-1.49.56-.64,1.21-1.22,1.9-1.72.38-.28.7-.64,1.07-.94.15-.12.32-.21.48-.31.47-.29.89-.63,1.35-.93.41-.28.89-.45,1.34-.67.14-.07.27-.13.4-.24.21-.18.44-.32.7-.43.14-.06.29-.12.41-.22.3-.26.66-.37,1-.53.65-.3,1.28-.63,1.9-.99.45-.26.89-.54,1.36-.78.54-.27,1.05-.61,1.57-.91.47-.27.78-.69,1.14-1.06.08-.08.17-.16.02-.29-.15-.14.01-.3.11-.35.48-.25.66-.73.91-1.14.12-.2.28-.39.37-.61.1-.24.17-.5.2-.76.07-.52.24-1.02.33-1.53.05-.32.11-.63.11-.95,0-.41.17-.79.25-1.18.17-.76.35-1.51.51-2.26.06-.28.02-.57.06-.85.03-.21.05-.42.11-.63.07-.25.13-.5.15-.77.02-.3.17-.57.33-.82.09-.13.16-.26.2-.41.05-.22.13-.41.36-.5.04-.02.09-.05.09-.1-.04-.41.21-.68.44-.95.09-.11.15-.24.23-.36.19-.27.36-.54.64-.75.29-.23.45-.58.69-.86.1-.12.18-.25.29-.36.47-.47.94-.94,1.42-1.4.22-.21.37-.5.63-.67.3-.2.57-.44.8-.71.37-.43.82-.74,1.27-1.06.65-.46,1.23-1,1.84-1.5.22-.18.45-.35.71-.47.52-.23.9-.66,1.4-.92.1-.05.14-.16.19-.26.11-.21.26-.35.5-.43.23-.07.43-.2.61-.37.4-.39.93-.51,1.44-.64.28-.07.57-.07.85-.12.32-.05.61.01.91.13.38.15.73.33,1.14.42.21.05.38.24.59.38Zm.13,1.72c-.06-.04-.11-.05-.15-.01-.05.05-.05.11-.02.16.15.19.1.42.15.64.02.07,0,.13.07.17.27.15.36.4.39.68,0,.08.04.16.08.23.26.42.42.87.44,1.37.03.61.4,1.1.58,1.67.02.06.08.09.14.07.07-.02.08-.07.06-.14-.11-.35-.1-.72-.22-1.08-.15-.44-.3-.88-.44-1.32-.13-.43-.3-.84-.44-1.26-.13-.39-.43-.7-.59-1.08-.02-.04-.05-.08-.06-.1Zm31.21,24.17c-.26.04-.54-.09-.82-.03-.03,0-.06.05-.06.07,0,.07.06.11.12.11.23,0,.45.03.67.09.03,0,.07,0,.1-.01.05-.01.08-.05.08-.1,0-.05-.03-.09-.09-.14Zm-66.47,8.91c.26.05.39-.04.49-.21.02-.04.03-.1-.01-.13-.02-.02-.07-.02-.1,0-.15.06-.25.16-.38.34Z"/>
          <path class="cls-2" d="m147.08,196.23c-.36.12-.73.13-1.09.15-.21.01-.43-.02-.63.06-.07.03-.14.02-.21-.02-.09-.06-.11-.12-.03-.2.06-.06.14-.08.23-.08.31,0,.62-.02.93.03.08.01.13-.03.2-.05.21-.05.42-.02.6.11Z"/>
          <path class="cls-2" d="m142.69,197.76c-.11-.22-.05-.33.05-.39.2-.13.42-.24.7-.4-.21.36-.57.44-.75.79Z"/>
          <path class="cls-2" d="m144.14,196.57c.12-.09.23-.19.36-.26.09-.05.24-.13.3.02.04.11-.1.16-.2.2-.04.01-.09.01-.14.02-.1.03-.2.05-.29.08,0-.02-.02-.04-.03-.06Z"/>
        </g>
        <path class="cls-2" d="m142.73,241.6c-2.68-.7-5.28-2.1-6.5-4.71-.64-1.38-.99-2.9-1.38-4.36-.43-1.61-.81-3.22-1.02-4.87-.09-.7-.23.34-.2.57.22,1.73.61,3.42,1.06,5.1.41,1.52.77,3.1,1.44,4.53,1.25,2.68,3.86,4.14,6.63,4.86.08.02.22-1.06-.03-1.13h0Z"/>
        <path class="cls-2" d="m148.49,240.14c-1.2-.04-2.13-.81-2.89-1.68-.79-.91-1.47-1.92-2.05-2.97-1.3-2.33-2.12-5.01-1.62-7.68.04-.21.09-.61-.02-.8-.08-.13-.13-.25-.17,0-.52,2.82-.05,5.73,1.14,8.32.61,1.33,1.39,2.58,2.3,3.73.84,1.07,1.9,2.15,3.35,2.2.16,0,.17-1.12-.03-1.13h0Z"/>
        <path class="cls-2" d="m175.59,236.34c-1.88-.26-3.72-.68-5.51-1.3-1.74-.6-3.53-1.33-4.99-2.47-2.71-2.11-3.62-5.56-4.4-8.74-.06-.24-.1-.13-.17,0-.1.19-.03.6.02.8.78,3.19,1.67,6.69,4.31,8.87,1.41,1.17,3.16,1.91,4.86,2.52,1.91.69,3.89,1.16,5.91,1.44.13.02.2-1.1-.03-1.13h0Z"/>
      </g>
    </g>
  </g>
</svg>