<?xml version="1.0" encoding="UTF-8"?>
<svg id="Layer_2" data-name="Layer 2" xmlns="http://www.w3.org/2000/svg" viewBox="0 0 354.13 354.13">
  <defs>
    <style>
      .cls-1 {
        fill: #c0d7d8;
      }

      .cls-1, .cls-2 {
        stroke-width: 0;
      }

      .cls-2 {
        fill: #f7f7f7;
      }
    </style>
  </defs>
  <g id="Layer_1-2" data-name="Layer 1">
    <g>
      <circle class="cls-1" cx="177.06" cy="177.06" r="177.06"/>
      <g>
        <g>
          <path class="cls-2" d="m152.77,133.07c-.29.25-.52-.07-.71.15-.04.26.13.45.27.64.56.77,1.05,1.58,1.65,2.31.12.15.2.33.28.51.88,2,1.58,4.08,2.37,6.11.55,1.4.8,2.85,1.12,4.29.2.91.12,1.89.13,2.83.01.82-.08,1.66,0,2.47.1,1,.15,2.03.66,2.95.17.31.45.66-.18.81-.1.02-.11.15-.09.25.1.59.02,1.19.27,1.77.18.42.33.86.49,1.29.23.59.73.9,1.27,1.14.3.13.56.06.78-.2.41-.49.63-1.04.58-1.68-.08-1.04-.16-2.08-.29-3.12-.04-.31-.01-.7-.33-.93-.05-.03-.09-.16-.06-.19.33-.46-.18-.87-.07-1.32.03-.11-.02-.21-.14-.21-.45.03-.45-.21-.39-.55.02-.11-.14-.24-.21-.37-.22-.41-.19-.63.21-.83.31-.16.34-.34.3-.64-.07-.55-.14-1.08-.33-1.62-.19-.54-.13-1.18-.28-1.78-.31-1.22-.36-2.49-.69-3.72-.2-.75-.11-1.54-.19-2.31,0-.1-.01-.2,0-.29.04-.27-.43-.29-.29-.6.1-.22.22-.44.26-.67.1-.5.13-1.01.18-1.51.11-1,.42-1.94.71-2.89.24-.77.62-1.51,1.08-2.19.71-1.07,1.55-2.01,2.52-2.86.55-.47,1.02-1.01,1.68-1.36.44-.23.71-.71,1.13-1.01,1.12-.8,2.42-1.24,3.63-1.84.57-.28,1.23-.27,1.86-.22.14.01.3.09.43.06,1.31-.29,2.46.39,3.69.58.74.11,1.34.56,2.02.81.39.15.76.34,1.13.5.61.27,1.02.72,1.28,1.33.26.6.5,1.21.53,1.88.04.86-.42,1.52-.84,2.2-.58.95-1.36,1.77-1.89,2.76-.12.23-.33.42-.51.61-.78.84-1.39,1.81-2.05,2.74-.35.5-.73.97-1.1,1.45-.61.79-1.14,1.66-1.5,2.57-.55,1.41-1.25,2.74-1.99,4.05-.3.52-.53,1.09-.78,1.64-.45.98-1.09,1.84-1.69,2.72-.52.77-1.05,1.53-1.4,2.38-.45,1.12-.73,2.3-.3,3.48.3.84.87,1.54,1.47,2.23,1.09,1.23,2.44.99,3.78.79,1.72-.27,3.17-1.12,4.57-2.12.67-.48,1.41-.86,2.12-1.28.19-.11.42-.19.49-.41.16-.46.55-.65.94-.87.59-.33,1.25-.56,1.77-1.01.68-.59,1.31-1.23,2-1.8,1.86-1.55,3.51-3.35,5.42-4.85.54-.43.95-1.04,1.38-1.59.52-.65,1.04-1.28,1.71-1.79.33-.25.62-.55.84-.9.54-.85,1.21-1.57,1.91-2.29.8-.84,1.5-1.76,2.09-2.77.43-.73.83-1.47,1.24-2.2.29-.52.49-1.1.76-1.64.22-.44.45-.87.77-1.23.64-.73,1.09-1.62,1.82-2.27.94-.84,1.72-1.87,2.79-2.53,1.17-.72,2.33-1.49,3.7-1.81.14-.03.29-.09.43-.08.81.03,1.58-.24,2.37-.33.64-.07,1.26-.04,1.88.02,2.03.2,4.06.32,6.06.72.17.03.35.03.5.1.83.43,1.79.46,2.63.83.93.4,1.85.81,2.4,1.76.25.44.58.84.88,1.25.35.48.43,1,.11,1.5-.43.67-.69,1.45-1.34,1.97-.07.06-.14.15-.17.23-.16.55-.55.9-.99,1.22-.08.06-.21.12-.21.19-.02.61-.66.88-.77,1.44-.04.19-.2.33-.34.47-.1.1-.24.19-.3.32-.5,1.02-1.39,1.73-2.04,2.63-.27.38-.5.76-.98.92-.23.08-.03.15.06.26.14.18-.06.65-.35.68-.89.1-1.05.92-1.51,1.43-.29.32-.5.71-.91.91-.09.04-.21.07-.2.18.07.68-.66.85-.87,1.36-.09.22-.43.2-.67.2-.32,0-.43.08-.44.46-.03.78-.56,1.3-1.17,1.73-.2.15-.54.16-.48.54,0,.05-.08.14-.13.15-.5.08-.68.52-.94.85-.56.71-1.28,1.26-1.84,1.97-.36.46-.68.95-1.01,1.43-.44.63-.72,1.37-1.28,1.92-.09.08-.16.19-.21.3-.49,1.16-1.09,2.28-1.29,3.55-.03.17-.09.34-.07.5.13.95-.06,1.89-.03,2.84.01.32.04.63.14.93.33.96.64,1.92,1.1,2.83.09.17.19.34.32.48.32.34.53.74.78,1.12.45.7.94,1.4,1.71,1.83.65.37,1.19.91,1.76,1.39.17.14.29.37.53.33.31-.05.36.06.36.35,0,.24.72.53,1.01.48,1.21-.2,1.92-1.06,2.58-1.97.22-.3.14-.73.34-1.09.26-.46.78-.7.93-1.23.16-.56.73-.88.87-1.45.06-.24.22-.34.48-.36.37-.03.66-.2.63-.64-.01-.23.11-.36.28-.47.21-.14.37-.32.5-.53.16-.26.36-.43.67-.51.39-.11.67-.37.83-.76.05-.13.13-.31.24-.35.83-.36,1.45-1.03,2.21-1.51.78-.49,1.54-1.08,2.17-1.79.25-.28.51-.42.93-.44.59-.04,1.16-.29,1.69-.61.19-.11.37-.28.57-.31,1.48-.23,2.88-.86,4.41-.91.86-.03,1.69.15,2.52.3.6.11,1.2.19,1.81.18.45,0,.87.06,1.27.23.72.31,1.53.22,2.25.56.27.13.65-.11.98.08.12.07.29.07.38.2.19.3.42.47.79.31.04-.02.12-.02.14,0,.38.55,1.15.33,1.58.78.21.23.5.07.76.18,1.36.55,2.64,1.21,3.87,2.01.73.48,1.46,1.04,2.34,1.28.41.11.72.4,1.07.62.99.61,1.95,1.27,2.92,1.91.39.26.78.49,1.22.66.18.07.37.14.47.32.16.27.41.4.71.46.28.05.47.24.67.42,1.17,1.06,2.46,1.97,3.75,2.88.28.19.6.34.92.44,1,.32,1.79.97,2.59,1.59.81.63,1.63,1.21,2.54,1.69.67.35,1.27.9,1.83,1.43.98.93,2.15,1.58,3.29,2.28,1.08.66,2.19,1.26,3.38,1.69.09.03.18.08.26.14,1.34.97,2.89,1.6,4.3,2.46.84.52,1.59,1.18,2.1,2.06.55.93.17,1.94-.9,2.1-.88.13-1.59.53-2.33.96-.48.28-1.01.48-1.57.58-1.1.2-2.19.45-3.3.63-1.3.21-2.54.66-3.82.94-.43.09-.86.19-1.29.21-.74.04-1.43.26-2.12.48-.14.05-.28.11-.42.12-1.24.12-2.43.46-3.61.8-2.25.65-4.59.77-6.87,1.24-1.92.39-3.91.54-5.74,1.32-.23.1-.47.09-.72.1-.32.02-.63.06-.92.19-.79.36-1.61.44-2.48.34-.82-.09-1.65-.12-2.48-.08-2.31.13-4.62-.02-6.93-.01-.9,0-1.79.07-2.84.12.71.46,1.5.45,2.15,1.02-.65.11-1.13-.08-1.6-.22-.45-.14-.89-.22-1.35-.27-.65-.07-1.3-.22-1.95-.27-1.49-.11-2.98-.12-4.47.12-.91.15-1.83.2-2.75.3-.82.08-1.62.33-2.44.41-.45.04-.51.21-.44.66.3,1.8,1.28,3.16,2.77,4.16.1.07.22.15.33.14.58-.02,1.01.31,1.45.6.44.29.97.29,1.44.49,1.21.52,2.48.84,3.79,1,.49.06.95.21,1.42.34.45.13.89.24,1.36.18.15-.02.29,0,.43.06.65.33,1.34.42,2.05.38.3-.02.57.18.85.17,1.24-.04,2.36.49,3.56.63.17.02.34.06.5.11.62.21,1.26.36,1.92.38,1,.03,1.97.28,2.94.47,1.11.21,2.2.49,3.16,1.18.46.33,1.05.5,1.59.72.43.17.9.21,1.25.56.05.05.14.08.2.07.88-.1,1.58.42,2.36.66.35.11.7.21,1.06.25.69.09,1.29.43,1.92.68.36.14.54.54.75.87.66,1.08.64,1.18-.31,1.98-.22.19-.47.24-.74.26-.92.07-1.84.09-2.76-.08-1.1-.21-2.22-.17-3.33-.3-.46-.05-.92-.08-1.38-.13-1.98-.22-3.95-.32-5.95-.2-1.55.09-3.09.31-4.63.46-1.13.11-2.24.42-3.38.52-.75.07-1.5.14-2.25.17-1.9.08-3.75.49-5.61.84-1.71.32-3.38.79-5.07,1.24-.78.21-1.61.4-2.44.37-1.29-.04-2.58.05-3.86,0-1.65-.07-3.3-.09-4.94-.26-1.35-.14-2.68-.44-4.03-.51-.61-.03-1.19-.23-1.77-.4-1.12-.34-2.26-.55-3.43-.64-.96-.07-1.84-.45-2.7-.84-1.25-.56-2.56-.89-3.87-1.25-1.41-.38-2.65-1.04-3.76-1.98-.6-.51-1.13-1.06-1.61-1.68-.18-.24-.46-.43-.72-.61-.31-.21-.58-.45-.81-.73-.42-.48-.89-.9-1.42-1.24-.18-.12-.35-.26-.49-.43-1.18-1.39-2.51-2.63-3.82-3.89-.12-.12-.28-.22-.35-.37-.5-.98-1.4-1.68-1.88-2.67-.02-.04-.05-.09-.09-.11-1.07-.73-1.77-1.85-2.81-2.62-.67-.49-1.43-.59-2.19-.68-.58-.07-1.17-.04-1.75-.02-1.6.07-1.72.34-1.84,1.83-.13,1.54.32,3,.82,4.47.51,1.51,1.46,2.65,2.46,3.82,2.05,2.39,4.66,3.84,7.63,4.7.99.29,1.88.78,2.85,1.12,1.95.68,3.71,1.81,5.68,2.47.21.07.4.18.61.23,1.07.25,2,.85,3.02,1.24.18.07.35.19.53.24,1.21.29,2.34.81,3.56,1.07.65.14,1.29.4,1.9.72.4.22.87.32,1.27.54.96.53,1.82,1.22,2.61,1.98.55.52.78,1.15.48,1.91-.52,1.31-1.51,2.24-2.98,2.08-1.62-.18-3.25-.11-4.87-.29-1.18-.13-2.39-.21-3.54-.49-1.15-.28-2.27-.74-3.43-.98-1.45-.29-2.85-.81-4.35-.86-.82-.03-1.63-.36-2.46-.2-1.17.23-2.36.25-3.54.38-2.09.23-4.2.27-6.3.51-.86.1-1.67.38-2.45.68-1.18.46-2.42.71-3.6,1.14-.78.28-1.56.5-2.39.58-.69.07-1.37.35-2.05.48-1.04.21-2.06.54-3.14.59-.66.04-1.31.12-1.82.61-.22.21-.5.27-.8.32-.66.11-1.36.07-1.91.58-.18.17-.5.15-.75.25-.85.34-1.7.67-2.58.92-.7.2-1.4.13-2.15.01-1.1-.18-2.17-.53-3.28-.63-.75-.06-1.45-.33-2.06-.68-1.15-.66-2.38-1.18-3.44-2.03-.79-.63-1.59-1.28-2.55-1.68-.13-.05-.26-.15-.35-.26-.73-.88-1.74-1.4-2.62-2.08-.44-.34-.89-.68-1.2-1.16-.14-.21-.33-.35-.52-.5-.79-.6-1.63-1.13-2.29-1.9-.34-.4-.82-.6-1.27-.84-.35-.19-.64-.43-.88-.74-.77-.97-1.55-1.93-2.32-2.9-.53-.66-1.19-1.2-1.68-1.91-.27-.38-.78-.55-1.05-.98-.79-1.23-1.75-2.33-2.58-3.52-.67-.97-1.39-1.93-1.81-3.06-.36-.96-1.03-1.75-1.56-2.61-.42-.68-.85-1.36-1.26-2.05-.1-.16-.18-.35-.21-.54-.1-.71-.4-1.35-.64-2.01-.15-.39-.27-.8-.28-1.2-.03-.88-.29-1.72-.37-2.59-.1-1.11.07-2.18.49-3.21.02-.04.04-.09.07-.13.91-1.04,1.7-2.19,3-2.81.29-.14.58-.26.85-.42.75-.45,1.56-.68,2.43-.65.66.02,1.24-.19,1.82-.46.95-.44,1.88-.91,2.82-1.36,1.43-.68,2.94-1.14,4.43-1.65.76-.26,1.52-.51,2.23-.87.9-.45,1.84-.86,2.82-.92,1.66-.09,3.15-.79,4.75-1.05,1.8-.29,3.49-1.04,5.31-1.23,1.02-.1,2.02-.36,2.98-.65,1.89-.57,3.83-.88,5.74-1.28.94-.2,1.9-.37,2.86-.49,1.01-.12,2.02-.25,3.03-.41,2.06-.34,4.13-.66,6.22-.68,2.31-.02,4.59-.34,6.86-.73.9-.16,1.81-.34,2.75-.22.39.05.75-.17,1.15-.18.85-.02,1.69-.05,2.52-.28.18-.05.39-.03.58,0,1.56.24,3.14.24,4.71.32,1.66.08,3.27.43,4.89.78.47.1.88.4,1.37.48.4.07.81.15,1.21.22.51.09,1.05.12,1.41.62.16.22.46.35.75.42.52.13.99.25,1.36.73.21.28.71.39,1.08.52.77.27,1.4.78,2.14,1.09,1.17.49,2.01,1.42,2.93,2.24.42.37.88.69,1.33,1.02.51.37,1.05.7,1.52,1.12.38.34.87.55,1.36.67,1.7.42,3.39.86,5.11,1.17.9.16,1.83.27,2.72.43.94.18,1.8.09,2.65-.16.7-.21,1.39-.42,2.12-.51.96-.12,1.92-.27,2.89-.4,1.56-.2,3.12-.45,4.68-.7,1.57-.25,3.15-.6,4.77-.56.42.01.82.06,1.23.12.25.04.46.15.65.31.11.09.25.18.22.35-.03.18-.2.2-.34.23-.41.06-.82.12-1.23.16-1.49.13-3.01.14-4.48.42-1.09.21-2.2.35-3.29.6-.33.07-.66.15-1.01.11-.3-.04-.56.12-.84.21-.74.24-1.46.52-2.26.5-.54-.01-1.07.15-1.56.3-.76.23-1.53.26-2.3.31-.26.02-.55-.03-.66.35.31.18.64.16.97.09.17-.03.33-.07.5-.08.15,0,.3.06.29.25,0,.15-.14.19-.26.21-.12.01-.24,0-.36-.01-.24,0-.5-.06-.73,0-1.25.29-2.52.02-3.77.13-.55.05-1.07-.07-1.55-.31-.37-.19-.78-.29-1.15-.45-.98-.44-2.03-.67-3.03-1.05-.78-.29-1.51-.67-2.11-1.26-.34-.34-.84-.35-1.22-.63-.86-.63-1.87-1-2.69-1.7-.7-.6-1.51-1.06-2.33-1.49-1.23-.64-2.37-1.42-3.44-2.28-.69-.55-1.51-.88-2.23-1.38-1.16-.8-2.49-1.15-3.82-1.54-1.03-.3-2.08-.47-3.15-.43-.74.03-1.41-.32-2.14-.31-.75.01-1.5-.02-2.25.1-.21.03-.43.04-.64,0-1.12-.19-2.21.05-3.31.22-.1.01-.19.06-.29.05-.9-.12-1.71.3-2.57.42-1.04.15-2.09.34-3.15.18-.15-.02-.29-.04-.43.03-.57.25-1.19.27-1.78.21-.54-.05-1,.25-1.56.19-.32-.04-.65.18-.96-.15-.07-.07-.33,0-.49.05-1.19.38-2.41.55-3.64.68-.46.05-.91.14-1.32.37-.36.19-.69.24-1.02-.23-.19.59-.6.7-1.06.68-.6-.03-1.2.19-1.8-.03-.21-.08-.38.03-.51.2-.2.26-.48.28-.79.3.05-.15.16-.3.12-.35-.12-.17-.27-.04-.36.05-.66.7-1.59.58-2.38.92-.09-.36.23-.34.29-.51-.05-.09-.13-.06-.18-.02-.13.1-.26.22-.38.33-.09.08-.21.18-.32.09-.52-.4-.9.08-1.33.2-.18.05-.4.29-.52.21-.69-.48-1.18.18-1.75.3-.64.13-1.28.18-1.92.28-.63.09-1.23.18-1.8.51-.36.21-.74.5-1.22.34-.1-.03-.19,0-.27.06-.52.4-1.15.48-1.75.64-.12.03-.24.06-.34.12-.83.51-1.76.42-2.67.46-.24.01-.51-.07-.72.04-.35.19-.67.26-1.02.03-.11-.07-.25-.07-.33.05-.24.38-.67.35-1.01.53-.3.16-.59.19-.87-.08-.27-.25-.48-.1-.7.19.27.14.65.08.79.41.04.09.07.19,0,.27-.07.1-.18.08-.26.02-.51-.42-1-.25-1.48.04-.17.1-.35.21-.55.17-.51-.11-.95.1-1.42.23-.33.09-.69.11-.75.56-.01.1-.14.18-.22.1-.29-.29-.53-.05-.79.04-.48.16-1.01.27-1.44.48-.69.35-1.49.41-2.12.89-.53.4-1.16.6-1.8.76-1.06.27-2.01.83-3.03,1.18-.91.32-1.61.97-2.47,1.36-1.01.47-1.66,1.39-2.28,2.3-.05.08-.1.18-.11.27-.14,1.56-.56,3.12.14,4.66.29.64.44,1.33.75,1.97.4.82.88,1.56,1.46,2.26.31.38.44.86.69,1.28,1.24,2,2.44,4.02,3.86,5.91,1.01,1.34,2.07,2.57,3.47,3.49.2.13.38.31.54.49,1,1.14,2.2,2.04,3.34,3.02.98.83,1.99,1.62,2.9,2.54.66.67,1.46,1.2,2.21,1.79.27.21.6.36.44.8-.04.12.06.22.14.31.67.74,1.35,1.45,2.17,2.04.87.62,1.64,1.37,2.45,2.06.62.53,1.28.97,2.08,1.17.52.13,1,.35,1.47.61.75.42,1.6.56,2.44.69.27.04.53.09.77.2.38.17.75.33,1.19.23.3-.07.57.11.83.23.33.15.63.17.98.06.6-.19,1.2-.39,1.84-.42.43-.03.78-.28,1.13-.49.79-.48,1.66-.81,2.48-1.22.65-.32,1.36-.36,2.06-.33.6.03,1.18-.04,1.72-.22,1.96-.67,4.02-.9,6-1.46.63-.18,1.22-.47,1.83-.71.2-.08.4-.19.61-.23,1.05-.2,2.07-.53,3.14-.63.43-.04.86-.14,1.29-.22.74-.14,1.47-.27,2.24-.21,1.14.1,2.27-.21,3.41-.28.87-.05,1.73-.26,2.61-.11.32.05.61-.14.93-.14,1.43-.01,2.87,0,4.28.28.86.16,1.74.11,2.58.42.57.21,1.13.46,1.71.62,1.04.29,2.01.87,3.15.78.4-.03.75.19,1.14.23,1.23.15,2.46.32,3.7.11.27-.05.53-.04.8.02.65.15,1.31.08,1.96.12.23.01.42-.09.62-.19.18-.09.23-.23.16-.43-.21-.59-.46-1.11-1.12-1.34-.57-.2-1.1-.51-1.67-.73-.64-.25-1.18-.68-1.75-1.02-.72-.43-1.44-.72-2.25-.94-1.73-.47-3.38-1.2-5.05-1.85-.77-.3-1.5-.66-2.22-1.07-.53-.3-1.12-.45-1.73-.53-.85-.11-1.66-.33-2.41-.77-.33-.19-.71-.32-1.08-.43-1.14-.36-2.16-.98-3.27-1.4-1.3-.49-2.56-1.07-3.48-2.19-.05-.06-.1-.11-.16-.14-1.29-.63-2.21-1.73-3.31-2.61-.66-.52-1.01-1.24-1.33-2.02-.26-.63-.4-1.34-.85-1.9-.15-.2-.21-.43-.27-.67-.07-.31-.11-.64-.27-.9-.39-.67-.3-1.41-.33-2.12-.03-.58-.04-1.16-.04-1.73,0-.8.24-1.59.54-2.34.09-.21.28-.33.48-.43.68-.34,1.39-.59,2.17-.51.82.09,1.66-.03,2.47.16.86.21,1.62.54,2.32,1.14.88.76,1.87,1.39,2.86,2.02,1.08.68,1.91,1.56,2.53,2.67.36.64.98,1.07,1.41,1.66.72.99,1.58,1.84,2.57,2.56.26.19.49.41.67.67.46.68,1.11,1.1,1.81,1.52.48.28.85.79,1.2,1.24.39.51.83.94,1.39,1.27.68.41,1.34.86,2.01,1.3.45.3.98.45,1.47.59,1.13.31,2.18.83,3.3,1.13.86.23,1.76.33,2.65.44.76.1,1.54.05,2.29.31.59.2,1.25.14,1.86.34.15.05.38.06.5-.03.38-.26.76-.12,1.1,0,1.44.49,2.93.59,4.42.79.78.11,1.6.16,2.35.46.25.1.53.08.79.09.46.02.93.07,1.36.22.64.22,1.27.32,1.93.17,1.1-.25,2.23-.03,3.33-.31,1.57-.4,3.17-.73,4.69-1.31.44-.17.89-.26,1.36-.23,1.08.07,2.13-.08,3.17-.35.09-.02.19-.05.29-.05,1.58-.02,3.14-.35,4.71-.46.87-.06,1.72-.27,2.6-.34.94-.07,1.85-.34,2.78-.46.92-.12,1.85-.37,2.82-.15.49.11,1.02.09,1.52.04.59-.06,1.16.05,1.74.1.67.06,1.35-.01,2.02.12,1.53.31,3.09.33,4.62.58.04,0,.08-.04.13-.06.07-.25-.12-.35-.29-.43-.85-.44-1.74-.74-2.68-.92-.21-.04-.44-.05-.64-.12-1.82-.62-3.74-.86-5.59-1.35-1.51-.41-3.05-.85-4.47-1.54-.95-.46-1.98-.65-3-.84-1.7-.31-3.43-.46-5.08-.95-1.11-.33-2.25-.35-3.37-.51-1.47-.22-2.88-.62-4.27-1.15-1.1-.42-2.14-.94-3.12-1.56-1.23-.78-2.31-1.7-2.65-3.23-.08-.35-.23-.69-.47-.98-.14-.17-.31-.38-.24-.59.15-.49,0-.95-.04-1.43-.05-.77.67-1.57,1.45-1.62,1.5-.11,2.99-.2,4.49-.29,1.12-.06,2.23-.15,3.34-.31.12-.02.25-.06.36-.04,1.24.23,2.47-.06,3.7-.08.78-.02,1.55.1,2.32.13.48.01.9-.19,1.36-.19.8,0,1.6-.01,2.4-.01.15,0,.3.05.44.01.8-.2,1.59-.05,2.39-.03.62.02,1.25-.13,1.88-.2.29-.03.58-.09.87-.08,1.37.03,2.71-.2,4.04-.45,1.1-.21,2.23-.22,3.32-.48,1.4-.34,2.83-.41,4.24-.66,1.14-.2,2.23-.68,3.39-.82,1.26-.15,2.45-.57,3.69-.82.76-.15,1.49-.44,2.24-.63,1.08-.28,2.2-.38,3.31-.5,1.2-.12,2.42-.15,3.57-.63.46-.19,1-.23,1.5-.25,1.73-.1,3.32-.65,4.87-1.36.53-.24,1.09-.41,1.63-.63.48-.19.51-.35.17-.72-.57-.63-1.21-1.18-1.87-1.72-.5-.41-1.13-.54-1.67-.88-1.02-.65-2.05-1.3-3.18-1.74-.94-.37-1.78-.89-2.53-1.55-.31-.27-.74-.34-1.08-.6-.73-.57-1.41-1.2-2.11-1.79-.55-.47-1.18-.85-1.79-1.25-1.62-1.07-3.25-2.13-4.88-3.18-.14-.09-.31-.16-.47-.18-.95-.14-1.59-.79-2.2-1.42-.35-.36-.71-.67-1.15-.85-.88-.36-1.63-.95-2.39-1.49-1.45-1.04-2.95-2.02-4.39-3.06-.96-.69-2.01-1.11-3.04-1.62-.22-.11-.42-.23-.63-.36-.6-.37-1.17-.78-1.87-.96-.47-.12-.8-.52-1.27-.68-1.58-.55-3.17-1.06-4.8-1.42-.25-.06-.48-.22-.73-.33-.78-.35-1.63-.47-2.42-.79-.31-.13-.63,0-.94-.06-1.28-.3-2.59-.26-3.9-.28-.37,0-.72.12-1.06.26-1.21.52-2.46.89-3.7,1.32-.63.22-1.2.51-1.66,1.01-.59.64-1.38.99-2.09,1.45-.47.31-.93.62-1.32,1.02-.77.82-1.73,1.41-2.53,2.19-1.3,1.26-2.46,2.62-3.31,4.23-.42.79-.91,1.55-1.37,2.32-.12.21-.32.36-.47.55-.87,1.03-1.95.7-2.94.39-1.34-.43-2.63-1.02-3.62-2.09-.1-.11-.2-.24-.32-.29-1.17-.47-1.61-1.53-2.11-2.56-.17-.36-.46-.68-.74-.99-.4-.44-.54-1.03-.88-1.5-.03-.05-.04-.15-.02-.2.18-.34,0-.61-.18-.88-.23-.35-.38-.73-.54-1.11-.09-.21-.14-.41-.09-.63.05-.19.06-.33-.12-.52-.19-.2-.07-.51.05-.75.08-.16.19-.32.13-.48-.15-.4-.06-.76,0-1.17.14-1.09.38-2.15.9-3.11.5-.91.95-1.85,1.46-2.76.42-.75,1.1-1.36,1.24-2.27.02-.13.14-.26.25-.35.52-.43.77-1.09,1.4-1.46.34-.19.5-.69.73-1.06.09-.14.15-.35.28-.42.65-.35,1.03-1.02,1.67-1.37.37-.21.5-.58.73-.88.24-.31.48-.6.79-.84.27-.2.56-.4.55-.8,0-.18.11-.26.29-.25.3,0,.51-.13.64-.4.37-.78,1.01-1.37,1.58-1.99.37-.4.61-.87.92-1.3.46-.64,1.16-1.06,1.51-1.74.39-.73,1.13-1.18,1.41-1.98.08-.23.28-.39.5-.51.27-.14.46-.37.6-.62.61-1.11,1.46-2.03,2.32-2.95.57-.61.95-1.33,1.06-2.22-.5-.19-.82-.56-1.01-1.11-.16-.49-.68-.67-1.11-.9-1.19-.63-2.49-.94-3.79-1.25-.41-.1-.88-.05-1.21-.42-.09-.1-.23,0-.35,0-1.09.07-2.18.17-3.25-.18-.14-.04-.29-.09-.43-.07-.75.13-1.52-.07-2.25.08-.85.18-1.72.19-2.57.41-2.45.64-4.34,2-5.64,4.17-.25.42-.52.83-.85,1.18-1.36,1.49-2.36,3.2-3.33,4.95-.31.56-.73,1.03-1.12,1.52-.37.48-.75.96-1.14,1.42-.43.5-.85,1-1,1.67-.04.2-.18.34-.32.48-.77.8-1.58,1.57-2.39,2.34-.53.5-1.08.98-1.48,1.6-.12.18-.36.43.1.52.15.03.17.17.13.29-.08.26-.2.54-.46.62-.36.11-.66.29-.96.51-.1.07-.24.13-.3-.03-.16-.38-.32-.19-.47,0-.77.99-1.72,1.85-2.4,2.91-.04.06-.08.14-.13.17-1.3.74-2.16,2.02-3.45,2.78-.12.07-.23.18-.32.29-.22.27-.49.51-.8.63-1.71.67-3.01,2.02-4.68,2.76-.61.27-1.12.7-1.62,1.11-1.02.85-2.22,1.18-3.48,1.31-1.03.11-2.07.25-3.11-.01-.27-.07-.51-.13-.71-.33-.5-.5-1.02-.97-1.5-1.48-.35-.37-.48-.89-.71-1.33-1.13-2.13-.74-4.22.27-6.27.31-.64.74-1.19,1.16-1.76.82-1.12,1.5-2.32,2.07-3.59.08-.18.14-.37.25-.52.91-1.23,1.35-2.68,1.97-4.05.26-.57.57-1.13.89-1.67.59-1.01,1.27-1.95,2.11-2.77.16-.15.33-.3.38-.52.21-.89.81-1.56,1.44-2.14.7-.65,1.11-1.46,1.56-2.26.08-.15.13-.34.25-.44.54-.44.66-1.12,1.01-1.67.37-.57,0-1.58-.66-1.96-.61-.34-1.24-.67-1.96-.74-.14-.01-.29-.05-.42-.11-1.55-.79-3.26-.89-4.94-1.08-.72-.08-1.4.22-2.03.51-.52.24-1.06.48-1.57.73-.89.44-1.67,1.06-2.46,1.67-1.1.85-2.1,1.81-3.04,2.82-.72.77-1.47,1.57-1.58,2.72,0,.09-.05.19-.12.26-.52.57-.58,1.32-.82,2-.65,1.85-.47,3.77-.27,5.64.16,1.51.45,3.03.91,4.49.12.37.18.76.23,1.14.22,1.56.39,3.13.65,4.69.25,1.49.32,2.99.6,4.48.16.81.09,1.65-.1,2.46-.09.39-.25.73-.54,1.01-.58.57-1.01.66-1.69.24-.97-.61-1.65-1.44-2.1-2.51-.57-1.36-.84-2.78-.92-4.24-.05-.89-.36-1.71-.54-2.56-.05-.27-.08-.52-.06-.79.05-.7.12-1.4.09-2.1-.03-.73-.17-1.45-.84-1.93-.32-.23-.49-.6-.69-.93-.16-.26-.08-.51.27-.87-.48.19-.75.16-.87-.18-.14-.42-.45-.82-.18-1.3.07-.12.06-.25-.05-.32-.49-.3-.4-.85-.54-1.29-.06-.17-.06-.39-.16-.55-.46-.71-.71-1.52-.99-2.3-.34-.95-.82-1.87-.9-2.9-.02-.27-.05-.53-.28-.72-.05-.04-.11-.11-.13-.18-.31-1.29-1.44-2.03-2.06-3.12-.54-.27-.94-.77-1.7-.57-1.09.28-2.13.67-3.17,1.06-.66.25-1.32.62-1.86,1.12-.14.13-.31.23-.49.31-.18.07-.38.15-.5.28-1.17,1.26-2.66,2.09-4.07,3.02-.79.52-1.53,1.11-2.28,1.69-1.45,1.1-2.91,2.18-4.29,3.38-.31.27-.62.55-.9.85-.62.65-1.36,1.18-1.98,1.82-.84.87-1.78,1.64-2.61,2.52-.58.62-1.1,1.3-1.64,1.95-.16.19-.31.38-.45.58-.7,1.02-1.4,2.05-2.08,3.08-.54.81-.95,1.68-1.36,2.57-.45.96-.91,1.93-1.44,2.86-.27.48-.43.97-.5,1.51-.38,2.92-.9,5.81-1.73,8.64-.32,1.1-.38,2.25-.51,3.39-.02.22-.01.45-.09.65-.36.94-.53,1.92-.61,2.91-.05.52-.19.99-.41,1.46-.31.66-.6,1.33-.9,1.99-.23.52-.62.93-.91,1.4-.57.91-1.36,1.55-2.14,2.24-1.44,1.28-2.97,2.4-4.65,3.36-.9.52-1.79,1.06-2.67,1.62-.14.09-.3.18-.46.23-1.08.34-2.04.92-2.99,1.5-1.29.79-2.71,1.32-4.01,2.08-.38.22-.77.41-1.13.67-.83.6-1.67,1.17-2.61,1.59-.28.13-.55.32-.79.52-.93.81-1.84,1.64-2.8,2.5.27.17.45.06.58-.04.36-.28.78-.49,1.09-.85.12-.14.29-.27.45-.36,1.1-.57,2.14-1.25,3.27-1.78.51-.24,1.05-.48,1.49-.88.05-.05.11-.12.17-.13.76-.13,1.25-.73,1.89-1.06,1.47-.75,2.92-1.53,4.41-2.24,1.64-.78,3.32-1.48,4.98-2.22.38-.17.75-.35,1.1-.57,1.32-.81,2.85-1.11,4.23-1.74.22-.1.45-.18.67-.29,1.03-.55,2.04-1.12,3.07-1.65.75-.39,1.55-.68,2.38-.88.46-.11.87-.4,1.32-.56.66-.23,1.3-.52,1.92-.84.3-.16.62-.06.91-.19.57-.26,1.18-.44,1.74-.71.6-.29,1.24-.43,1.87-.59.99-.25,1.93-.6,2.89-.89.03-.17-.19-.19-.13-.37.21-.06.44-.17.67-.18.28-.01.51-.05.68-.31.22-.33.65-.23.97-.42.58-.34,1.26-.48,1.93-.62.15-.03.29-.01.42.08.11.07.24.11.34.01.45-.47,1.1-.57,1.65-.71,1.07-.28,2.03-.83,3.13-1.04.76-.14,1.54-.35,2.24-.79.44-.28,1-.37,1.52-.5.59-.15,1.17-.31,1.74-.51.54-.2,1.13-.21,1.69-.41.93-.33,1.85-.75,2.84-.92,2.1-.37,4.16-.95,6.29-1.26.8-.11,1.65-.14,2.39-.57.16-.09.33-.04.5-.06.87-.09,1.73-.23,2.58-.44.64-.16,1.3-.18,1.92-.44,1.09.21,2.16-.15,3.23-.21.93-.05,1.9.02,2.79-.41.06-.03.16-.04.21,0,.32.18.48.16.47-.27,0-.12.14-.2.27-.19.17,0,.14.13.17.26.09.43.24.54.65.4.43-.14.85-.18,1.29-.15.29.02.5-.16.74-.26.4-.18.81-.53,1.23.01.07.09.26.06.34-.02.13-.14-.21-.2-.08-.37.18-.08.32.07.48.1.17.03.38.14.49.08.51-.3,1.14-.12,1.63-.45.19-.13.41-.13.63-.1.36.05.73.09,1.08.18.37.09.7.14,1.03-.12.33-.26.75-.12,1.13-.16.5-.05,1.03-.03,1.51.15.27.1.5.14.76-.01.1-.06.25-.11.34-.08.79.26,1.54.05,2.31-.09.59-.1,1.2-.06,1.8-.06.36,0,.71.13,1.06-.03.02,0,.05-.02.07-.01.99.24,2-.13,2.99.1.15.03.33.05.23.25-.16.34.12.4.3.44.41.1.82.07,1.21-.12.1-.05.22-.21.32-.11.51.53,1.12.2,1.69.22.15,0,.3-.05.43-.01,1.42.38,2.92.5,4.26,1.17.31.16.61.28.96.33.38.05.66.27.9.56.1.12.2.22.14.38-.07.17-.21.26-.39.29-.2.03-.39-.04-.57-.12-.45-.18-.9-.37-1.34-.57-.29-.13-.58-.26-.91-.21-.09.01-.23.03-.28-.02-.52-.56-1.22-.42-1.85-.48-1.18-.11-2.37-.13-3.56-.19-.31-.02-.63-.05-.94-.11-1.3-.23-2.62-.04-3.91-.27-1.19-.21-2.37-.05-3.56-.08-.12,0-.25,0-.36.03-1.23.33-2.5.34-3.75.44-.49.04-.97-.02-1.46-.04-1.51-.04-3.01.1-4.51.24-1.3.12-2.6.41-3.9.4-.95,0-1.89.04-2.84.05-2.49,0-4.93.46-7.36.97-2.19.46-4.38.88-6.57,1.34-.95.2-1.9.43-2.83.7-.66.19-1.34.25-2.01.27-.27,0-.48.06-.63.27-.19.26-.45.29-.75.35-.63.14-1.29.19-1.89.41-1.05.38-2.15.61-3.2.98-1.51.53-3,1.12-4.48,1.72-1.5.61-3.04,1.16-4.62,1.59-1.49.4-2.87,1.07-4.29,1.63-.5.19-1.01.34-1.51.5-2.11.68-4.14,1.56-6.19,2.38-.72.29-1.45.56-2.21.75-.35.09-.69.25-1.02.4-2.27,1.06-4.57,2.02-6.83,3.11-1.07.51-2.2.9-3.3,1.36-2.66,1.09-5.25,2.31-7.78,3.65-.92.49-1.81,1.06-2.74,1.5-1.21.58-2.25,1.43-3.44,2.04-1.01.51-1.93,1.22-2.94,1.74-.72.37-1.36.84-1.98,1.35-1.64,1.33-3.21,2.75-4.79,4.16-1.03.92-2.13,1.76-3.18,2.66-.85.72-1.64,1.51-2.58,2.13-.48.31-.86.79-1.23,1.24-1.26,1.52-2.8,2.76-4.18,4.17-.61.63-1.07,1.39-1.67,2.02-.07.07-.11.16-.17.24-.19.25-.38.58-.73.52-.38-.07-.23-.48-.31-.74-.04-.14-.05-.29-.08-.43-.06-.32,0-.57.32-.74.51-.28.84-.73,1.1-1.24.14-.29.33-.53.54-.77.5-.59.97-1.23,1.31-1.92.44-.88.98-1.68,1.67-2.38.8-.82,1.41-1.79,2.21-2.61.29-.3.61-.55.89-.85.96-1,1.9-2,2.82-3.04,1.15-1.31,2.47-2.48,3.88-3.52.79-.58,1.43-1.31,2.18-1.92.31-.25.65-.43.98-.63.95-.59,1.83-1.28,2.75-1.9.84-.56,1.82-.92,2.74-1.36.29-.14.56-.28.81-.48.43-.36.91-.65,1.43-.87.29-.12.59-.25.83-.46.61-.52,1.35-.76,2.05-1.09,1.32-.61,2.61-1.28,3.87-2.01.92-.53,1.83-1.1,2.78-1.58,1.1-.56,2.13-1.25,3.2-1.86.97-.56,1.59-1.41,2.32-2.17.15-.16.34-.32.04-.6-.31-.28.02-.62.21-.72.98-.51,1.34-1.48,1.87-2.33.25-.41.57-.8.75-1.24.2-.49.34-1.02.41-1.54.14-1.06.5-2.08.68-3.13.11-.65.22-1.29.23-1.94.01-.83.34-1.61.52-2.42.34-1.54.72-3.07,1.05-4.62.12-.57.04-1.16.13-1.74.06-.43.11-.86.22-1.29.14-.51.27-1.03.31-1.57.04-.62.35-1.16.68-1.67.17-.27.33-.54.41-.85.11-.44.26-.84.73-1.02.09-.03.19-.09.18-.21-.08-.83.42-1.38.9-1.95.19-.22.31-.49.48-.73.38-.56.75-1.11,1.3-1.54.6-.46.91-1.18,1.4-1.75.2-.24.37-.5.59-.73.95-.97,1.92-1.92,2.91-2.86.45-.43.75-1.01,1.29-1.36.62-.4,1.16-.9,1.64-1.44.76-.87,1.67-1.51,2.6-2.17,1.32-.93,2.51-2.04,3.77-3.06.45-.37.92-.72,1.46-.96,1.05-.48,1.85-1.34,2.86-1.88.2-.11.28-.33.39-.52.22-.42.54-.72,1.02-.87.47-.14.89-.4,1.24-.75.82-.81,1.9-1.04,2.95-1.3.56-.14,1.16-.14,1.73-.24.65-.11,1.25.03,1.85.26.77.3,1.5.68,2.32.86.42.09.78.49,1.2.78Zm.27,3.52c-.13-.08-.22-.1-.3-.02-.1.1-.11.23-.03.33.3.39.2.87.3,1.3.03.14,0,.27.15.34.55.3.73.81.79,1.39.02.16.08.34.17.47.54.86.85,1.78.9,2.79.06,1.24.82,2.25,1.18,3.4.04.12.16.19.29.15.15-.04.17-.15.13-.29-.22-.72-.21-1.48-.45-2.2-.3-.89-.62-1.79-.89-2.69-.27-.87-.61-1.71-.9-2.57-.27-.79-.88-1.43-1.2-2.21-.04-.09-.1-.16-.12-.21Zm63.75,49.36c-.53.07-1.1-.17-1.68-.06-.05.01-.13.1-.13.15,0,.14.12.23.24.23.46.01.92.06,1.36.19.06.02.14,0,.21-.03.1-.03.17-.09.17-.21,0-.1-.05-.18-.18-.28Zm-135.74,18.2c.53.1.8-.07,1-.42.05-.09.07-.2-.03-.26-.05-.03-.15-.04-.2-.02-.3.12-.51.33-.77.7Z"/>
          <path class="cls-2" d="m173.05,130.07c-.74.25-1.49.26-2.23.32-.43.03-.87-.03-1.29.13-.14.05-.29.03-.42-.05-.18-.11-.22-.25-.05-.41.13-.12.29-.17.46-.17.63,0,1.27-.04,1.89.06.16.03.27-.07.41-.1.44-.1.85-.03,1.23.22Z"/>
          <path class="cls-2" d="m164.08,133.19c-.22-.45-.1-.67.1-.8.42-.27.85-.5,1.42-.82-.43.73-1.16.9-1.52,1.62Z"/>
          <path class="cls-2" d="m167.04,130.78c.25-.18.48-.39.74-.53.19-.1.5-.27.61.04.08.22-.21.34-.41.4-.09.03-.19.02-.28.05-.2.05-.4.11-.6.17-.02-.04-.04-.08-.06-.12Z"/>
        </g>
        <path class="cls-2" d="m164.17,222.74c-5.47-1.42-10.78-4.29-13.27-9.61-1.32-2.81-2.02-5.91-2.83-8.9-.88-3.28-1.66-6.58-2.08-9.95-.18-1.42-.47.7-.41,1.17.44,3.53,1.25,6.99,2.17,10.41.83,3.1,1.57,6.34,2.94,9.26,2.56,5.47,7.88,8.45,13.53,9.92.17.04.46-2.17-.06-2.3h0Z"/>
        <path class="cls-2" d="m175.91,219.74c-2.46-.08-4.36-1.65-5.91-3.44s-3-3.92-4.19-6.06c-2.65-4.75-4.33-10.24-3.32-15.69.08-.43.19-1.24-.04-1.63-.16-.26-.26-.52-.36,0-1.07,5.76-.1,11.7,2.33,16.99,1.25,2.71,2.85,5.27,4.69,7.62,1.72,2.19,3.88,4.39,6.84,4.49.33.01.35-2.29-.06-2.3h0Z"/>
        <path class="cls-2" d="m231.26,211.99c-3.83-.52-7.6-1.39-11.26-2.65-3.56-1.23-7.2-2.71-10.2-5.03-5.54-4.31-7.39-11.35-8.98-17.85-.12-.49-.21-.27-.36,0-.2.38-.06,1.23.04,1.63,1.59,6.51,3.42,13.65,8.81,18.12,2.88,2.38,6.45,3.9,9.93,5.16,3.91,1.41,7.95,2.38,12.06,2.94.26.04.41-2.24-.06-2.3h0Z"/>
      </g>
    </g>
  </g>
</svg>